<svg xmlns="http://www.w3.org/2000/svg" width="1100" height="700" viewBox="0 0 1100 700">
<rect width="100%" height="100%" fill="#ffffff"/>
<text x="110" y="40" font-family="Arial, sans-serif" font-size="24" font-weight="700" fill="#111">B Scaling vs Engineering Scale</text>
<text x="480.0" y="665" text-anchor="middle" font-family="Arial, sans-serif" font-size="18" fill="#111">Scale factor s</text>
<text x="32" y="335.0" transform="rotate(-90 32 335.0)" text-anchor="middle" font-family="Arial, sans-serif" font-size="18" fill="#111">B/B0</text>
<line x1="110.00" y1="80" x2="110.00" y2="590" stroke="#e6e6e6" stroke-width="1"/>
<text x="110.00" y="618" text-anchor="middle" font-family="Arial, sans-serif" font-size="13" fill="#333">0.5</text>
<line x1="258.00" y1="80" x2="258.00" y2="590" stroke="#e6e6e6" stroke-width="1"/>
<text x="258.00" y="618" text-anchor="middle" font-family="Arial, sans-serif" font-size="13" fill="#333">1.2</text>
<line x1="406.00" y1="80" x2="406.00" y2="590" stroke="#e6e6e6" stroke-width="1"/>
<text x="406.00" y="618" text-anchor="middle" font-family="Arial, sans-serif" font-size="13" fill="#333">1.9</text>
<line x1="554.00" y1="80" x2="554.00" y2="590" stroke="#e6e6e6" stroke-width="1"/>
<text x="554.00" y="618" text-anchor="middle" font-family="Arial, sans-serif" font-size="13" fill="#333">2.6</text>
<line x1="702.00" y1="80" x2="702.00" y2="590" stroke="#e6e6e6" stroke-width="1"/>
<text x="702.00" y="618" text-anchor="middle" font-family="Arial, sans-serif" font-size="13" fill="#333">3.3</text>
<line x1="850.00" y1="80" x2="850.00" y2="590" stroke="#e6e6e6" stroke-width="1"/>
<text x="850.00" y="618" text-anchor="middle" font-family="Arial, sans-serif" font-size="13" fill="#333">4</text>
<line x1="110" y1="590.00" x2="850" y2="590.00" stroke="#e6e6e6" stroke-width="1"/>
<text x="98" y="594.00" text-anchor="end" font-family="Arial, sans-serif" font-size="13" fill="#333">0.1</text>
<line x1="110" y1="335.00" x2="850" y2="335.00" stroke="#e6e6e6" stroke-width="1"/>
<text x="98" y="339.00" text-anchor="end" font-family="Arial, sans-serif" font-size="13" fill="#333">1</text>
<line x1="110" y1="80.00" x2="850" y2="80.00" stroke="#e6e6e6" stroke-width="1"/>
<text x="98" y="84.00" text-anchor="end" font-family="Arial, sans-serif" font-size="13" fill="#333">10</text>
<rect x="110" y="80" width="740" height="510" fill="none" stroke="#111" stroke-width="1.4"/>
<polyline fill="none" stroke="#1f77b4" stroke-width="3" points="110.00,335.00 119.25,335.00 128.50,335.00 137.75,335.00 147.00,335.00 156.25,335.00 165.50,335.00 174.75,335.00 184.00,335.00 193.25,335.00 202.50,335.00 211.75,335.00 221.00,335.00 230.25,335.00 239.50,335.00 248.75,335.00 258.00,335.00 267.25,335.00 276.50,335.00 285.75,335.00 295.00,335.00 304.25,335.00 313.50,335.00 322.75,335.00 332.00,335.00 341.25,335.00 350.50,335.00 359.75,335.00 369.00,335.00 378.25,335.00 387.50,335.00 396.75,335.00 406.00,335.00 415.25,335.00 424.50,335.00 433.75,335.00 443.00,335.00 452.25,335.00 461.50,335.00 470.75,335.00 480.00,335.00 489.25,335.00 498.50,335.00 507.75,335.00 517.00,335.00 526.25,335.00 535.50,335.00 544.75,335.00 554.00,335.00 563.25,335.00 572.50,335.00 581.75,335.00 591.00,335.00 600.25,335.00 609.50,335.00 618.75,335.00 628.00,335.00 637.25,335.00 646.50,335.00 655.75,335.00 665.00,335.00 674.25,335.00 683.50,335.00 692.75,335.00 702.00,335.00 711.25,335.00 720.50,335.00 729.75,335.00 739.00,335.00 748.25,335.00 757.50,335.00 766.75,335.00 776.00,335.00 785.25,335.00 794.50,335.00 803.75,335.00 813.00,335.00 822.25,335.00 831.50,335.00 840.75,335.00 850.00,335.00"/>
<line x1="880" y1="100" x2="910" y2="100" stroke="#1f77b4" stroke-width="4"/>
<text x="920" y="105" font-family="Arial, sans-serif" font-size="15" fill="#111">Constant B</text>
<polyline fill="none" stroke="#d62728" stroke-width="3" points="110.00,296.62 119.25,301.26 128.50,305.55 137.75,309.53 147.00,313.24 156.25,316.71 165.50,319.99 174.75,323.07 184.00,326.00 193.25,328.78 202.50,331.43 211.75,333.95 221.00,336.37 230.25,338.68 239.50,340.90 248.75,343.04 258.00,345.10 267.25,347.08 276.50,348.99 285.75,350.84 295.00,352.63 304.25,354.37 313.50,356.05 322.75,357.68 332.00,359.27 341.25,360.81 350.50,362.31 359.75,363.77 369.00,365.19 378.25,366.58 387.50,367.93 396.75,369.25 406.00,370.54 415.25,371.80 424.50,373.03 433.75,374.24 443.00,375.42 452.25,376.58 461.50,377.71 470.75,378.82 480.00,379.90 489.25,380.97 498.50,382.02 507.75,383.04 517.00,384.05 526.25,385.04 535.50,386.01 544.75,386.97 554.00,387.91 563.25,388.83 572.50,389.74 581.75,390.64 591.00,391.52 600.25,392.38 609.50,393.24 618.75,394.07 628.00,394.90 637.25,395.72 646.50,396.52 655.75,397.31 665.00,398.09 674.25,398.86 683.50,399.62 692.75,400.37 702.00,401.11 711.25,401.84 720.50,402.56 729.75,403.27 739.00,403.97 748.25,404.66 757.50,405.35 766.75,406.02 776.00,406.69 785.25,407.35 794.50,408.00 803.75,408.65 813.00,409.29 822.25,409.92 831.50,410.54 840.75,411.15 850.00,411.76"/>
<line x1="880" y1="130" x2="910" y2="130" stroke="#d62728" stroke-width="4"/>
<text x="920" y="135" font-family="Arial, sans-serif" font-size="15" fill="#111">B only as required</text>
<polyline fill="none" stroke="#2ca02c" stroke-width="3" points="110.00,315.81 119.25,318.13 128.50,320.27 137.75,322.26 147.00,324.12 156.25,325.86 165.50,327.49 174.75,329.04 184.00,330.50 193.25,331.89 202.50,333.21 211.75,334.48 221.00,335.68 230.25,336.84 239.50,337.95 248.75,339.02 258.00,340.05 267.25,341.04 276.50,342.00 285.75,342.92 295.00,343.82 304.25,344.68 313.50,345.52 322.75,346.34 332.00,347.13 341.25,347.90 350.50,348.65 359.75,349.38 369.00,350.10 378.25,350.79 387.50,351.47 396.75,352.13 406.00,352.77 415.25,353.40 424.50,354.02 433.75,354.62 443.00,355.21 452.25,355.79 461.50,356.35 470.75,356.91 480.00,357.45 489.25,357.98 498.50,358.51 507.75,359.02 517.00,359.53 526.25,360.02 535.50,360.51 544.75,360.98 554.00,361.45 563.25,361.92 572.50,362.37 581.75,362.82 591.00,363.26 600.25,363.69 609.50,364.12 618.75,364.54 628.00,364.95 637.25,365.36 646.50,365.76 655.75,366.16 665.00,366.55 674.25,366.93 683.50,367.31 692.75,367.69 702.00,368.06 711.25,368.42 720.50,368.78 729.75,369.14 739.00,369.49 748.25,369.83 757.50,370.17 766.75,370.51 776.00,370.85 785.25,371.18 794.50,371.50 803.75,371.82 813.00,372.14 822.25,372.46 831.50,372.77 840.75,373.08 850.00,373.38"/>
<line x1="880" y1="160" x2="910" y2="160" stroke="#2ca02c" stroke-width="4"/>
<text x="920" y="165" font-family="Arial, sans-serif" font-size="15" fill="#111">Middle ground</text>
</svg>