<svg xmlns="http://www.w3.org/2000/svg" width="1100" height="700" viewBox="0 0 1100 700">
<rect width="100%" height="100%" fill="#ffffff"/>
<text x="110" y="40" font-family="Arial, sans-serif" font-size="24" font-weight="700" fill="#111">Beta-Limited Density Scaling</text>
<text x="480.0" y="665" text-anchor="middle" font-family="Arial, sans-serif" font-size="18" fill="#111">Scale factor s</text>
<text x="32" y="335.0" transform="rotate(-90 32 335.0)" text-anchor="middle" font-family="Arial, sans-serif" font-size="18" fill="#111">n_beta / n_beta(1)</text>
<line x1="110.00" y1="80" x2="110.00" y2="590" stroke="#e6e6e6" stroke-width="1"/>
<text x="110.00" y="618" text-anchor="middle" font-family="Arial, sans-serif" font-size="13" fill="#333">0.5</text>
<line x1="258.00" y1="80" x2="258.00" y2="590" stroke="#e6e6e6" stroke-width="1"/>
<text x="258.00" y="618" text-anchor="middle" font-family="Arial, sans-serif" font-size="13" fill="#333">1.2</text>
<line x1="406.00" y1="80" x2="406.00" y2="590" stroke="#e6e6e6" stroke-width="1"/>
<text x="406.00" y="618" text-anchor="middle" font-family="Arial, sans-serif" font-size="13" fill="#333">1.9</text>
<line x1="554.00" y1="80" x2="554.00" y2="590" stroke="#e6e6e6" stroke-width="1"/>
<text x="554.00" y="618" text-anchor="middle" font-family="Arial, sans-serif" font-size="13" fill="#333">2.6</text>
<line x1="702.00" y1="80" x2="702.00" y2="590" stroke="#e6e6e6" stroke-width="1"/>
<text x="702.00" y="618" text-anchor="middle" font-family="Arial, sans-serif" font-size="13" fill="#333">3.3</text>
<line x1="850.00" y1="80" x2="850.00" y2="590" stroke="#e6e6e6" stroke-width="1"/>
<text x="850.00" y="618" text-anchor="middle" font-family="Arial, sans-serif" font-size="13" fill="#333">4</text>
<line x1="110" y1="590.00" x2="850" y2="590.00" stroke="#e6e6e6" stroke-width="1"/>
<text x="98" y="594.00" text-anchor="end" font-family="Arial, sans-serif" font-size="13" fill="#333">0.1</text>
<line x1="110" y1="335.00" x2="850" y2="335.00" stroke="#e6e6e6" stroke-width="1"/>
<text x="98" y="339.00" text-anchor="end" font-family="Arial, sans-serif" font-size="13" fill="#333">1</text>
<line x1="110" y1="80.00" x2="850" y2="80.00" stroke="#e6e6e6" stroke-width="1"/>
<text x="98" y="84.00" text-anchor="end" font-family="Arial, sans-serif" font-size="13" fill="#333">10</text>
<rect x="110" y="80" width="740" height="510" fill="none" stroke="#111" stroke-width="1.4"/>
<polyline fill="none" stroke="#1f77b4" stroke-width="3" points="110.00,335.00 119.25,335.00 128.50,335.00 137.75,335.00 147.00,335.00 156.25,335.00 165.50,335.00 174.75,335.00 184.00,335.00 193.25,335.00 202.50,335.00 211.75,335.00 221.00,335.00 230.25,335.00 239.50,335.00 248.75,335.00 258.00,335.00 267.25,335.00 276.50,335.00 285.75,335.00 295.00,335.00 304.25,335.00 313.50,335.00 322.75,335.00 332.00,335.00 341.25,335.00 350.50,335.00 359.75,335.00 369.00,335.00 378.25,335.00 387.50,335.00 396.75,335.00 406.00,335.00 415.25,335.00 424.50,335.00 433.75,335.00 443.00,335.00 452.25,335.00 461.50,335.00 470.75,335.00 480.00,335.00 489.25,335.00 498.50,335.00 507.75,335.00 517.00,335.00 526.25,335.00 535.50,335.00 544.75,335.00 554.00,335.00 563.25,335.00 572.50,335.00 581.75,335.00 591.00,335.00 600.25,335.00 609.50,335.00 618.75,335.00 628.00,335.00 637.25,335.00 646.50,335.00 655.75,335.00 665.00,335.00 674.25,335.00 683.50,335.00 692.75,335.00 702.00,335.00 711.25,335.00 720.50,335.00 729.75,335.00 739.00,335.00 748.25,335.00 757.50,335.00 766.75,335.00 776.00,335.00 785.25,335.00 794.50,335.00 803.75,335.00 813.00,335.00 822.25,335.00 831.50,335.00 840.75,335.00 850.00,335.00"/>
<line x1="880" y1="100" x2="910" y2="100" stroke="#1f77b4" stroke-width="4"/>
<text x="920" y="105" font-family="Arial, sans-serif" font-size="15" fill="#111">Constant B</text>
<polyline fill="none" stroke="#d62728" stroke-width="3" points="110.00,258.24 119.25,267.53 128.50,276.10 137.75,284.05 147.00,291.47 156.25,298.43 165.50,304.97 174.75,311.15 184.00,317.00 193.25,322.56 202.50,327.85 211.75,332.90 221.00,337.73 230.25,342.36 239.50,346.81 248.75,351.08 258.00,355.19 267.25,359.16 276.50,362.99 285.75,366.69 295.00,370.27 304.25,373.74 313.50,377.10 322.75,380.36 332.00,383.53 341.25,386.62 350.50,389.62 359.75,392.54 369.00,395.38 378.25,398.15 387.50,400.86 396.75,403.50 406.00,406.08 415.25,408.60 424.50,411.07 433.75,413.48 443.00,415.84 452.25,418.15 461.50,420.41 470.75,422.63 480.00,424.81 489.25,426.94 498.50,429.03 507.75,431.09 517.00,433.10 526.25,435.08 535.50,437.03 544.75,438.94 554.00,440.82 563.25,442.67 572.50,444.48 581.75,446.27 591.00,448.03 600.25,449.76 609.50,451.47 618.75,453.15 628.00,454.80 637.25,456.43 646.50,458.04 655.75,459.63 665.00,461.19 674.25,462.73 683.50,464.24 692.75,465.74 702.00,467.22 711.25,468.68 720.50,470.12 729.75,471.54 739.00,472.94 748.25,474.33 757.50,475.70 766.75,477.05 776.00,478.38 785.25,479.70 794.50,481.01 803.75,482.30 813.00,483.57 822.25,484.83 831.50,486.08 840.75,487.31 850.00,488.53"/>
<line x1="880" y1="130" x2="910" y2="130" stroke="#d62728" stroke-width="4"/>
<text x="920" y="135" font-family="Arial, sans-serif" font-size="15" fill="#111">B only as required</text>
<polyline fill="none" stroke="#2ca02c" stroke-width="3" points="110.00,296.62 119.25,301.26 128.50,305.55 137.75,309.53 147.00,313.24 156.25,316.71 165.50,319.99 174.75,323.07 184.00,326.00 193.25,328.78 202.50,331.43 211.75,333.95 221.00,336.37 230.25,338.68 239.50,340.90 248.75,343.04 258.00,345.10 267.25,347.08 276.50,348.99 285.75,350.84 295.00,352.63 304.25,354.37 313.50,356.05 322.75,357.68 332.00,359.27 341.25,360.81 350.50,362.31 359.75,363.77 369.00,365.19 378.25,366.58 387.50,367.93 396.75,369.25 406.00,370.54 415.25,371.80 424.50,373.03 433.75,374.24 443.00,375.42 452.25,376.58 461.50,377.71 470.75,378.82 480.00,379.90 489.25,380.97 498.50,382.02 507.75,383.04 517.00,384.05 526.25,385.04 535.50,386.01 544.75,386.97 554.00,387.91 563.25,388.83 572.50,389.74 581.75,390.64 591.00,391.52 600.25,392.38 609.50,393.24 618.75,394.07 628.00,394.90 637.25,395.72 646.50,396.52 655.75,397.31 665.00,398.09 674.25,398.86 683.50,399.62 692.75,400.37 702.00,401.11 711.25,401.84 720.50,402.56 729.75,403.27 739.00,403.97 748.25,404.66 757.50,405.35 766.75,406.02 776.00,406.69 785.25,407.35 794.50,408.00 803.75,408.65 813.00,409.29 822.25,409.92 831.50,410.54 840.75,411.15 850.00,411.76"/>
<line x1="880" y1="160" x2="910" y2="160" stroke="#2ca02c" stroke-width="4"/>
<text x="920" y="165" font-family="Arial, sans-serif" font-size="15" fill="#111">Middle ground</text>
</svg>