<svg xmlns="http://www.w3.org/2000/svg" width="1100" height="700" viewBox="0 0 1100 700">
<rect width="100%" height="100%" fill="#ffffff"/>
<text x="110" y="40" font-family="Arial, sans-serif" font-size="24" font-weight="700" fill="#111">Required Fusion-Active Area</text>
<text x="480.0" y="665" text-anchor="middle" font-family="Arial, sans-serif" font-size="18" fill="#111">Scale factor s</text>
<text x="32" y="335.0" transform="rotate(-90 32 335.0)" text-anchor="middle" font-family="Arial, sans-serif" font-size="18" fill="#111">A_req / A_req(1)</text>
<line x1="110.00" y1="80" x2="110.00" y2="590" stroke="#e6e6e6" stroke-width="1"/>
<text x="110.00" y="618" text-anchor="middle" font-family="Arial, sans-serif" font-size="13" fill="#333">0.5</text>
<line x1="258.00" y1="80" x2="258.00" y2="590" stroke="#e6e6e6" stroke-width="1"/>
<text x="258.00" y="618" text-anchor="middle" font-family="Arial, sans-serif" font-size="13" fill="#333">1.2</text>
<line x1="406.00" y1="80" x2="406.00" y2="590" stroke="#e6e6e6" stroke-width="1"/>
<text x="406.00" y="618" text-anchor="middle" font-family="Arial, sans-serif" font-size="13" fill="#333">1.9</text>
<line x1="554.00" y1="80" x2="554.00" y2="590" stroke="#e6e6e6" stroke-width="1"/>
<text x="554.00" y="618" text-anchor="middle" font-family="Arial, sans-serif" font-size="13" fill="#333">2.6</text>
<line x1="702.00" y1="80" x2="702.00" y2="590" stroke="#e6e6e6" stroke-width="1"/>
<text x="702.00" y="618" text-anchor="middle" font-family="Arial, sans-serif" font-size="13" fill="#333">3.3</text>
<line x1="850.00" y1="80" x2="850.00" y2="590" stroke="#e6e6e6" stroke-width="1"/>
<text x="850.00" y="618" text-anchor="middle" font-family="Arial, sans-serif" font-size="13" fill="#333">4</text>
<line x1="110" y1="590.00" x2="850" y2="590.00" stroke="#e6e6e6" stroke-width="1"/>
<text x="98" y="594.00" text-anchor="end" font-family="Arial, sans-serif" font-size="13" fill="#333">0.1</text>
<line x1="110" y1="420.00" x2="850" y2="420.00" stroke="#e6e6e6" stroke-width="1"/>
<text x="98" y="424.00" text-anchor="end" font-family="Arial, sans-serif" font-size="13" fill="#333">1</text>
<line x1="110" y1="250.00" x2="850" y2="250.00" stroke="#e6e6e6" stroke-width="1"/>
<text x="98" y="254.00" text-anchor="end" font-family="Arial, sans-serif" font-size="13" fill="#333">10</text>
<line x1="110" y1="80.00" x2="850" y2="80.00" stroke="#e6e6e6" stroke-width="1"/>
<text x="98" y="84.00" text-anchor="end" font-family="Arial, sans-serif" font-size="13" fill="#333">100</text>
<rect x="110" y="80" width="740" height="510" fill="none" stroke="#111" stroke-width="1.4"/>
<polyline fill="none" stroke="#1f77b4" stroke-width="3" points="110.00,471.18 119.25,464.98 128.50,459.27 137.75,453.97 147.00,449.02 156.25,444.38 165.50,440.02 174.75,435.90 184.00,432.00 193.25,428.29 202.50,424.76 211.75,421.40 221.00,418.18 230.25,415.09 239.50,412.13 248.75,409.28 258.00,406.54 267.25,403.90 276.50,401.34 285.75,398.88 295.00,396.49 304.25,394.18 313.50,391.93 322.75,389.76 332.00,387.64 341.25,385.59 350.50,383.59 359.75,381.64 369.00,379.75 378.25,377.90 387.50,376.09 396.75,374.33 406.00,372.61 415.25,370.93 424.50,369.29 433.75,367.68 443.00,366.11 452.25,364.57 461.50,363.06 470.75,361.58 480.00,360.13 489.25,358.71 498.50,357.31 507.75,355.94 517.00,354.60 526.25,353.28 535.50,351.98 544.75,350.71 554.00,349.45 563.25,348.22 572.50,347.01 581.75,345.82 591.00,344.65 600.25,343.49 609.50,342.35 618.75,341.23 628.00,340.13 637.25,339.04 646.50,337.97 655.75,336.92 665.00,335.88 674.25,334.85 683.50,333.84 692.75,332.84 702.00,331.85 711.25,330.88 720.50,329.92 729.75,328.97 739.00,328.04 748.25,327.11 757.50,326.20 766.75,325.30 776.00,324.41 785.25,323.53 794.50,322.66 803.75,321.80 813.00,320.95 822.25,320.11 831.50,319.28 840.75,318.46 850.00,317.65"/>
<line x1="880" y1="100" x2="910" y2="100" stroke="#1f77b4" stroke-width="4"/>
<text x="920" y="105" font-family="Arial, sans-serif" font-size="15" fill="#111">Constant B</text>
<polyline fill="none" stroke="#d62728" stroke-width="3" points="110.00,573.53 119.25,554.95 128.50,537.81 137.75,521.90 147.00,507.06 156.25,493.15 165.50,480.06 174.75,467.70 184.00,456.00 193.25,444.88 202.50,434.29 211.75,424.19 221.00,414.53 230.25,405.27 239.50,396.39 248.75,387.84 258.00,379.62 267.25,371.69 276.50,364.03 285.75,356.63 295.00,349.47 304.25,342.53 313.50,335.80 322.75,329.27 332.00,322.93 341.25,316.77 350.50,310.77 359.75,304.93 369.00,299.24 378.25,293.69 387.50,288.28 396.75,283.00 406.00,277.84 415.25,272.79 424.50,267.86 433.75,263.04 443.00,258.32 452.25,253.70 461.50,249.17 470.75,244.74 480.00,240.39 489.25,236.12 498.50,231.94 507.75,227.83 517.00,223.80 526.25,219.84 535.50,215.95 544.75,212.12 554.00,208.36 563.25,204.67 572.50,201.03 581.75,197.46 591.00,193.94 600.25,190.47 609.50,187.06 618.75,183.70 628.00,180.39 637.25,177.13 646.50,173.92 655.75,170.75 665.00,167.63 674.25,164.55 683.50,161.51 692.75,158.51 702.00,155.56 711.25,152.64 720.50,149.76 729.75,146.92 739.00,144.11 748.25,141.34 757.50,138.61 766.75,135.90 776.00,133.23 785.25,130.59 794.50,127.98 803.75,125.41 813.00,122.86 822.25,120.34 831.50,117.85 840.75,115.39 850.00,112.95"/>
<line x1="880" y1="130" x2="910" y2="130" stroke="#d62728" stroke-width="4"/>
<text x="920" y="135" font-family="Arial, sans-serif" font-size="15" fill="#111">B only as required</text>
<polyline fill="none" stroke="#2ca02c" stroke-width="3" points="110.00,522.35 119.25,509.96 128.50,498.54 137.75,487.93 147.00,478.04 156.25,468.76 165.50,460.04 174.75,451.80 184.00,444.00 193.25,436.59 202.50,429.53 211.75,422.79 221.00,416.35 230.25,410.18 239.50,404.26 248.75,398.56 258.00,393.08 267.25,387.79 276.50,382.69 285.75,377.75 295.00,372.98 304.25,368.35 313.50,363.87 322.75,359.51 332.00,355.29 341.25,351.18 350.50,347.18 359.75,343.29 369.00,339.49 378.25,335.79 387.50,332.19 396.75,328.66 406.00,325.22 415.25,321.86 424.50,318.58 433.75,315.36 443.00,312.21 452.25,309.13 461.50,306.11 470.75,303.16 480.00,300.26 489.25,297.41 498.50,294.62 507.75,291.89 517.00,289.20 526.25,286.56 535.50,283.96 544.75,281.41 554.00,278.91 563.25,276.45 572.50,274.02 581.75,271.64 591.00,269.29 600.25,266.98 609.50,264.71 618.75,262.47 628.00,260.26 637.25,258.09 646.50,255.94 655.75,253.83 665.00,251.75 674.25,249.70 683.50,247.67 692.75,245.68 702.00,243.71 711.25,241.76 720.50,239.84 729.75,237.95 739.00,236.08 748.25,234.23 757.50,232.40 766.75,230.60 776.00,228.82 785.25,227.06 794.50,225.32 803.75,223.60 813.00,221.91 822.25,220.23 831.50,218.57 840.75,216.92 850.00,215.30"/>
<line x1="880" y1="160" x2="910" y2="160" stroke="#2ca02c" stroke-width="4"/>
<text x="920" y="165" font-family="Arial, sans-serif" font-size="15" fill="#111">Middle ground</text>
</svg>