<svg xmlns="http://www.w3.org/2000/svg" width="1100" height="700" viewBox="0 0 1100 700">
<rect width="100%" height="100%" fill="#ffffff"/>
<text x="110" y="40" font-family="Arial, sans-serif" font-size="24" font-weight="700" fill="#111">Estimated Magnet Mass Intensity</text>
<text x="480.0" y="665" text-anchor="middle" font-family="Arial, sans-serif" font-size="18" fill="#111">Scale factor s</text>
<text x="32" y="335.0" transform="rotate(-90 32 335.0)" text-anchor="middle" font-family="Arial, sans-serif" font-size="18" fill="#111">kg/kW</text>
<line x1="110.00" y1="80" x2="110.00" y2="590" stroke="#e6e6e6" stroke-width="1"/>
<text x="110.00" y="618" text-anchor="middle" font-family="Arial, sans-serif" font-size="13" fill="#333">0.5</text>
<line x1="258.00" y1="80" x2="258.00" y2="590" stroke="#e6e6e6" stroke-width="1"/>
<text x="258.00" y="618" text-anchor="middle" font-family="Arial, sans-serif" font-size="13" fill="#333">1.2</text>
<line x1="406.00" y1="80" x2="406.00" y2="590" stroke="#e6e6e6" stroke-width="1"/>
<text x="406.00" y="618" text-anchor="middle" font-family="Arial, sans-serif" font-size="13" fill="#333">1.9</text>
<line x1="554.00" y1="80" x2="554.00" y2="590" stroke="#e6e6e6" stroke-width="1"/>
<text x="554.00" y="618" text-anchor="middle" font-family="Arial, sans-serif" font-size="13" fill="#333">2.6</text>
<line x1="702.00" y1="80" x2="702.00" y2="590" stroke="#e6e6e6" stroke-width="1"/>
<text x="702.00" y="618" text-anchor="middle" font-family="Arial, sans-serif" font-size="13" fill="#333">3.3</text>
<line x1="850.00" y1="80" x2="850.00" y2="590" stroke="#e6e6e6" stroke-width="1"/>
<text x="850.00" y="618" text-anchor="middle" font-family="Arial, sans-serif" font-size="13" fill="#333">4</text>
<line x1="110" y1="590.00" x2="850" y2="590.00" stroke="#e6e6e6" stroke-width="1"/>
<text x="98" y="594.00" text-anchor="end" font-family="Arial, sans-serif" font-size="13" fill="#333">0.55</text>
<line x1="110" y1="488.00" x2="850" y2="488.00" stroke="#e6e6e6" stroke-width="1"/>
<text x="98" y="492.00" text-anchor="end" font-family="Arial, sans-serif" font-size="13" fill="#333">2.58</text>
<line x1="110" y1="386.00" x2="850" y2="386.00" stroke="#e6e6e6" stroke-width="1"/>
<text x="98" y="390.00" text-anchor="end" font-family="Arial, sans-serif" font-size="13" fill="#333">4.61</text>
<line x1="110" y1="284.00" x2="850" y2="284.00" stroke="#e6e6e6" stroke-width="1"/>
<text x="98" y="288.00" text-anchor="end" font-family="Arial, sans-serif" font-size="13" fill="#333">6.64</text>
<line x1="110" y1="182.00" x2="850" y2="182.00" stroke="#e6e6e6" stroke-width="1"/>
<text x="98" y="186.00" text-anchor="end" font-family="Arial, sans-serif" font-size="13" fill="#333">8.67</text>
<line x1="110" y1="80.00" x2="850" y2="80.00" stroke="#e6e6e6" stroke-width="1"/>
<text x="98" y="84.00" text-anchor="end" font-family="Arial, sans-serif" font-size="13" fill="#333">10.7</text>
<rect x="110" y="80" width="740" height="510" fill="none" stroke="#111" stroke-width="1.4"/>
<polyline fill="none" stroke="#1f77b4" stroke-width="3" points="110.00,366.40 119.25,366.40 128.50,366.40 137.75,366.40 147.00,366.40 156.25,366.40 165.50,366.40 174.75,366.40 184.00,366.40 193.25,366.40 202.50,366.40 211.75,366.40 221.00,366.40 230.25,366.40 239.50,366.40 248.75,366.40 258.00,366.40 267.25,366.40 276.50,366.40 285.75,366.40 295.00,366.40 304.25,366.40 313.50,366.40 322.75,366.40 332.00,366.40 341.25,366.40 350.50,366.40 359.75,366.40 369.00,366.40 378.25,366.40 387.50,366.40 396.75,366.40 406.00,366.40 415.25,366.40 424.50,366.40 433.75,366.40 443.00,366.40 452.25,366.40 461.50,366.40 470.75,366.40 480.00,366.40 489.25,366.40 498.50,366.40 507.75,366.40 517.00,366.40 526.25,366.40 535.50,366.40 544.75,366.40 554.00,366.40 563.25,366.40 572.50,366.40 581.75,366.40 591.00,366.40 600.25,366.40 609.50,366.40 618.75,366.40 628.00,366.40 637.25,366.40 646.50,366.40 655.75,366.40 665.00,366.40 674.25,366.40 683.50,366.40 692.75,366.40 702.00,366.40 711.25,366.40 720.50,366.40 729.75,366.40 739.00,366.40 748.25,366.40 757.50,366.40 766.75,366.40 776.00,366.40 785.25,366.40 794.50,366.40 803.75,366.40 813.00,366.40 822.25,366.40 831.50,366.40 840.75,366.40 850.00,366.40"/>
<line x1="880" y1="100" x2="910" y2="100" stroke="#1f77b4" stroke-width="4"/>
<text x="920" y="105" font-family="Arial, sans-serif" font-size="15" fill="#111">Constant B</text>
<polyline fill="none" stroke="#d62728" stroke-width="3" points="110.00,115.17 119.25,155.60 128.50,190.01 137.75,219.64 147.00,245.44 156.25,268.10 165.50,288.15 174.75,306.03 184.00,322.07 193.25,336.54 202.50,349.66 211.75,361.60 221.00,372.53 230.25,382.57 239.50,391.81 248.75,400.35 258.00,408.28 267.25,415.64 276.50,422.50 285.75,428.92 295.00,434.92 304.25,440.56 313.50,445.85 322.75,450.84 332.00,455.55 341.25,460.00 350.50,464.21 359.75,468.20 369.00,471.99 378.25,475.60 387.50,479.02 396.75,482.29 406.00,485.41 415.25,488.38 424.50,491.23 433.75,493.95 443.00,496.56 452.25,499.06 461.50,501.46 470.75,503.76 480.00,505.98 489.25,508.11 498.50,510.16 507.75,512.13 517.00,514.03 526.25,515.87 535.50,517.64 544.75,519.35 554.00,521.01 563.25,522.61 572.50,524.15 581.75,525.65 591.00,527.10 600.25,528.51 609.50,529.87 618.75,531.19 628.00,532.47 637.25,533.72 646.50,534.93 655.75,536.10 665.00,537.24 674.25,538.35 683.50,539.43 692.75,540.48 702.00,541.50 711.25,542.50 720.50,543.47 729.75,544.42 739.00,545.34 748.25,546.24 757.50,547.11 766.75,547.97 776.00,548.80 785.25,549.62 794.50,550.42 803.75,551.19 813.00,551.95 822.25,552.70 831.50,553.42 840.75,554.13 850.00,554.83"/>
<line x1="880" y1="130" x2="910" y2="130" stroke="#d62728" stroke-width="4"/>
<text x="920" y="135" font-family="Arial, sans-serif" font-size="15" fill="#111">B only as required</text>
<polyline fill="none" stroke="#2ca02c" stroke-width="3" points="110.00,262.34 119.25,276.93 128.50,289.86 137.75,301.43 147.00,311.85 156.25,321.30 165.50,329.93 174.75,337.84 184.00,345.14 193.25,351.89 202.50,358.16 211.75,364.01 221.00,369.49 230.25,374.62 239.50,379.45 248.75,383.99 258.00,388.29 267.25,392.36 276.50,396.22 285.75,399.89 295.00,403.38 304.25,406.71 313.50,409.89 322.75,412.93 332.00,415.84 341.25,418.63 350.50,421.31 359.75,423.88 369.00,426.35 378.25,428.73 387.50,431.03 396.75,433.24 406.00,435.37 415.25,437.44 424.50,439.43 433.75,441.36 443.00,443.23 452.25,445.04 461.50,446.79 470.75,448.50 480.00,450.15 489.25,451.75 498.50,453.31 507.75,454.83 517.00,456.30 526.25,457.74 535.50,459.14 544.75,460.50 554.00,461.83 563.25,463.12 572.50,464.39 581.75,465.62 591.00,466.82 600.25,468.00 609.50,469.14 618.75,470.27 628.00,471.36 637.25,472.44 646.50,473.49 655.75,474.51 665.00,475.52 674.25,476.50 683.50,477.47 692.75,478.41 702.00,479.34 711.25,480.24 720.50,481.13 729.75,482.01 739.00,482.86 748.25,483.70 757.50,484.53 766.75,485.34 776.00,486.13 785.25,486.92 794.50,487.68 803.75,488.44 813.00,489.18 822.25,489.91 831.50,490.62 840.75,491.33 850.00,492.02"/>
<line x1="880" y1="160" x2="910" y2="160" stroke="#2ca02c" stroke-width="4"/>
<text x="920" y="165" font-family="Arial, sans-serif" font-size="15" fill="#111">Middle ground</text>
</svg>