<svg xmlns="http://www.w3.org/2000/svg" width="1100" height="700" viewBox="0 0 1100 700">
<rect width="100%" height="100%" fill="#ffffff"/>
<text x="110" y="40" font-family="Arial, sans-serif" font-size="24" font-weight="700" fill="#111">Wall-Limited Power Target</text>
<text x="480.0" y="665" text-anchor="middle" font-family="Arial, sans-serif" font-size="18" fill="#111">Scale factor s</text>
<text x="32" y="335.0" transform="rotate(-90 32 335.0)" text-anchor="middle" font-family="Arial, sans-serif" font-size="18" fill="#111">P_req/L normalized</text>
<line x1="110.00" y1="80" x2="110.00" y2="590" stroke="#e6e6e6" stroke-width="1"/>
<text x="110.00" y="618" text-anchor="middle" font-family="Arial, sans-serif" font-size="13" fill="#333">0.5</text>
<line x1="258.00" y1="80" x2="258.00" y2="590" stroke="#e6e6e6" stroke-width="1"/>
<text x="258.00" y="618" text-anchor="middle" font-family="Arial, sans-serif" font-size="13" fill="#333">1.2</text>
<line x1="406.00" y1="80" x2="406.00" y2="590" stroke="#e6e6e6" stroke-width="1"/>
<text x="406.00" y="618" text-anchor="middle" font-family="Arial, sans-serif" font-size="13" fill="#333">1.9</text>
<line x1="554.00" y1="80" x2="554.00" y2="590" stroke="#e6e6e6" stroke-width="1"/>
<text x="554.00" y="618" text-anchor="middle" font-family="Arial, sans-serif" font-size="13" fill="#333">2.6</text>
<line x1="702.00" y1="80" x2="702.00" y2="590" stroke="#e6e6e6" stroke-width="1"/>
<text x="702.00" y="618" text-anchor="middle" font-family="Arial, sans-serif" font-size="13" fill="#333">3.3</text>
<line x1="850.00" y1="80" x2="850.00" y2="590" stroke="#e6e6e6" stroke-width="1"/>
<text x="850.00" y="618" text-anchor="middle" font-family="Arial, sans-serif" font-size="13" fill="#333">4</text>
<line x1="110" y1="590.00" x2="850" y2="590.00" stroke="#e6e6e6" stroke-width="1"/>
<text x="98" y="594.00" text-anchor="end" font-family="Arial, sans-serif" font-size="13" fill="#333">0.1</text>
<line x1="110" y1="335.00" x2="850" y2="335.00" stroke="#e6e6e6" stroke-width="1"/>
<text x="98" y="339.00" text-anchor="end" font-family="Arial, sans-serif" font-size="13" fill="#333">1</text>
<line x1="110" y1="80.00" x2="850" y2="80.00" stroke="#e6e6e6" stroke-width="1"/>
<text x="98" y="84.00" text-anchor="end" font-family="Arial, sans-serif" font-size="13" fill="#333">10</text>
<rect x="110" y="80" width="740" height="510" fill="none" stroke="#111" stroke-width="1.4"/>
<polyline fill="none" stroke="#1f77b4" stroke-width="3" points="110.00,411.76 119.25,402.47 128.50,393.90 137.75,385.95 147.00,378.53 156.25,371.57 165.50,365.03 174.75,358.85 184.00,353.00 193.25,347.44 202.50,342.15 211.75,337.10 221.00,332.27 230.25,327.64 239.50,323.19 248.75,318.92 258.00,314.81 267.25,310.84 276.50,307.01 285.75,303.31 295.00,299.73 304.25,296.26 313.50,292.90 322.75,289.64 332.00,286.47 341.25,283.38 350.50,280.38 359.75,277.46 369.00,274.62 378.25,271.85 387.50,269.14 396.75,266.50 406.00,263.92 415.25,261.40 424.50,258.93 433.75,256.52 443.00,254.16 452.25,251.85 461.50,249.59 470.75,247.37 480.00,245.19 489.25,243.06 498.50,240.97 507.75,238.91 517.00,236.90 526.25,234.92 535.50,232.97 544.75,231.06 554.00,229.18 563.25,227.33 572.50,225.52 581.75,223.73 591.00,221.97 600.25,220.24 609.50,218.53 618.75,216.85 628.00,215.20 637.25,213.57 646.50,211.96 655.75,210.37 665.00,208.81 674.25,207.27 683.50,205.76 692.75,204.26 702.00,202.78 711.25,201.32 720.50,199.88 729.75,198.46 739.00,197.06 748.25,195.67 757.50,194.30 766.75,192.95 776.00,191.62 785.25,190.30 794.50,188.99 803.75,187.70 813.00,186.43 822.25,185.17 831.50,183.92 840.75,182.69 850.00,181.47"/>
<line x1="880" y1="100" x2="910" y2="100" stroke="#1f77b4" stroke-width="4"/>
<text x="920" y="105" font-family="Arial, sans-serif" font-size="15" fill="#111">Constant B</text>
<polyline fill="none" stroke="#d62728" stroke-width="3" points="110.00,411.76 119.25,402.47 128.50,393.90 137.75,385.95 147.00,378.53 156.25,371.57 165.50,365.03 174.75,358.85 184.00,353.00 193.25,347.44 202.50,342.15 211.75,337.10 221.00,332.27 230.25,327.64 239.50,323.19 248.75,318.92 258.00,314.81 267.25,310.84 276.50,307.01 285.75,303.31 295.00,299.73 304.25,296.26 313.50,292.90 322.75,289.64 332.00,286.47 341.25,283.38 350.50,280.38 359.75,277.46 369.00,274.62 378.25,271.85 387.50,269.14 396.75,266.50 406.00,263.92 415.25,261.40 424.50,258.93 433.75,256.52 443.00,254.16 452.25,251.85 461.50,249.59 470.75,247.37 480.00,245.19 489.25,243.06 498.50,240.97 507.75,238.91 517.00,236.90 526.25,234.92 535.50,232.97 544.75,231.06 554.00,229.18 563.25,227.33 572.50,225.52 581.75,223.73 591.00,221.97 600.25,220.24 609.50,218.53 618.75,216.85 628.00,215.20 637.25,213.57 646.50,211.96 655.75,210.37 665.00,208.81 674.25,207.27 683.50,205.76 692.75,204.26 702.00,202.78 711.25,201.32 720.50,199.88 729.75,198.46 739.00,197.06 748.25,195.67 757.50,194.30 766.75,192.95 776.00,191.62 785.25,190.30 794.50,188.99 803.75,187.70 813.00,186.43 822.25,185.17 831.50,183.92 840.75,182.69 850.00,181.47"/>
<line x1="880" y1="130" x2="910" y2="130" stroke="#d62728" stroke-width="4"/>
<text x="920" y="135" font-family="Arial, sans-serif" font-size="15" fill="#111">B only as required</text>
<polyline fill="none" stroke="#2ca02c" stroke-width="3" points="110.00,411.76 119.25,402.47 128.50,393.90 137.75,385.95 147.00,378.53 156.25,371.57 165.50,365.03 174.75,358.85 184.00,353.00 193.25,347.44 202.50,342.15 211.75,337.10 221.00,332.27 230.25,327.64 239.50,323.19 248.75,318.92 258.00,314.81 267.25,310.84 276.50,307.01 285.75,303.31 295.00,299.73 304.25,296.26 313.50,292.90 322.75,289.64 332.00,286.47 341.25,283.38 350.50,280.38 359.75,277.46 369.00,274.62 378.25,271.85 387.50,269.14 396.75,266.50 406.00,263.92 415.25,261.40 424.50,258.93 433.75,256.52 443.00,254.16 452.25,251.85 461.50,249.59 470.75,247.37 480.00,245.19 489.25,243.06 498.50,240.97 507.75,238.91 517.00,236.90 526.25,234.92 535.50,232.97 544.75,231.06 554.00,229.18 563.25,227.33 572.50,225.52 581.75,223.73 591.00,221.97 600.25,220.24 609.50,218.53 618.75,216.85 628.00,215.20 637.25,213.57 646.50,211.96 655.75,210.37 665.00,208.81 674.25,207.27 683.50,205.76 692.75,204.26 702.00,202.78 711.25,201.32 720.50,199.88 729.75,198.46 739.00,197.06 748.25,195.67 757.50,194.30 766.75,192.95 776.00,191.62 785.25,190.30 794.50,188.99 803.75,187.70 813.00,186.43 822.25,185.17 831.50,183.92 840.75,182.69 850.00,181.47"/>
<line x1="880" y1="160" x2="910" y2="160" stroke="#2ca02c" stroke-width="4"/>
<text x="920" y="165" font-family="Arial, sans-serif" font-size="15" fill="#111">Middle ground</text>
</svg>