<svg xmlns="http://www.w3.org/2000/svg" width="1100" height="700" viewBox="0 0 1100 700">
<rect width="100%" height="100%" fill="#ffffff"/>
<text x="110" y="40" font-family="Arial, sans-serif" font-size="24" font-weight="700" fill="#111">Why the Minimum-B Case Flattens rho/a</text>
<text x="480.0" y="665" text-anchor="middle" font-family="Arial, sans-serif" font-size="18" fill="#111">Minor radius a / a0</text>
<text x="32" y="335.0" transform="rotate(-90 32 335.0)" text-anchor="middle" font-family="Arial, sans-serif" font-size="18" fill="#111">(rho / a) normalized to a0</text>
<line x1="110.00" y1="80" x2="110.00" y2="590" stroke="#e6e6e6" stroke-width="1"/>
<text x="110.00" y="618" text-anchor="middle" font-family="Arial, sans-serif" font-size="13" fill="#333">0.5</text>
<line x1="258.00" y1="80" x2="258.00" y2="590" stroke="#e6e6e6" stroke-width="1"/>
<text x="258.00" y="618" text-anchor="middle" font-family="Arial, sans-serif" font-size="13" fill="#333">1.2</text>
<line x1="406.00" y1="80" x2="406.00" y2="590" stroke="#e6e6e6" stroke-width="1"/>
<text x="406.00" y="618" text-anchor="middle" font-family="Arial, sans-serif" font-size="13" fill="#333">1.9</text>
<line x1="554.00" y1="80" x2="554.00" y2="590" stroke="#e6e6e6" stroke-width="1"/>
<text x="554.00" y="618" text-anchor="middle" font-family="Arial, sans-serif" font-size="13" fill="#333">2.6</text>
<line x1="702.00" y1="80" x2="702.00" y2="590" stroke="#e6e6e6" stroke-width="1"/>
<text x="702.00" y="618" text-anchor="middle" font-family="Arial, sans-serif" font-size="13" fill="#333">3.3</text>
<line x1="850.00" y1="80" x2="850.00" y2="590" stroke="#e6e6e6" stroke-width="1"/>
<text x="850.00" y="618" text-anchor="middle" font-family="Arial, sans-serif" font-size="13" fill="#333">4</text>
<line x1="110" y1="590.00" x2="850" y2="590.00" stroke="#e6e6e6" stroke-width="1"/>
<text x="98" y="594.00" text-anchor="end" font-family="Arial, sans-serif" font-size="13" fill="#333">0.1</text>
<line x1="110" y1="335.00" x2="850" y2="335.00" stroke="#e6e6e6" stroke-width="1"/>
<text x="98" y="339.00" text-anchor="end" font-family="Arial, sans-serif" font-size="13" fill="#333">1</text>
<line x1="110" y1="80.00" x2="850" y2="80.00" stroke="#e6e6e6" stroke-width="1"/>
<text x="98" y="84.00" text-anchor="end" font-family="Arial, sans-serif" font-size="13" fill="#333">10</text>
<rect x="110" y="80" width="740" height="510" fill="none" stroke="#111" stroke-width="1.4"/>
<polyline fill="none" stroke="#1f77b4" stroke-width="3" points="110.00,168.43 119.25,177.72 128.50,186.29 137.75,194.24 147.00,201.67 156.25,208.62 165.50,215.16 174.75,221.34 184.00,227.20 193.25,232.75 202.50,238.05 211.75,243.10 221.00,247.93 230.25,252.56 239.50,257.00 248.75,261.27 258.00,265.38 267.25,269.35 276.50,273.18 285.75,276.88 295.00,280.46 304.25,283.93 313.50,287.29 322.75,290.56 332.00,293.73 341.25,296.81 350.50,299.81 359.75,302.73 369.00,305.57 378.25,308.35 387.50,311.05 396.75,313.70 406.00,316.28 415.25,318.80 424.50,321.26 433.75,323.67 443.00,326.03 452.25,328.34 461.50,330.61 470.75,332.83 480.00,335.00 489.25,337.13 498.50,339.23 507.75,341.28 517.00,343.29 526.25,345.28 535.50,347.22 544.75,349.13 554.00,351.01 563.25,352.86 572.50,354.68 581.75,356.47 591.00,358.23 600.25,359.96 609.50,361.66 618.75,363.34 628.00,365.00 637.25,366.63 646.50,368.24 655.75,369.82 665.00,371.38 674.25,372.92 683.50,374.44 692.75,375.94 702.00,377.41 711.25,378.87 720.50,380.31 729.75,381.73 739.00,383.14 748.25,384.52 757.50,385.89 766.75,387.24 776.00,388.58 785.25,389.90 794.50,391.20 803.75,392.49 813.00,393.76 822.25,395.02 831.50,396.27 840.75,397.50 850.00,398.72"/>
<line x1="880" y1="100" x2="910" y2="100" stroke="#1f77b4" stroke-width="4"/>
<text x="920" y="105" font-family="Arial, sans-serif" font-size="15" fill="#111">Constant B</text>
<polyline fill="none" stroke="#d62728" stroke-width="3" points="110.00,335.00 119.25,335.00 128.50,335.00 137.75,335.00 147.00,335.00 156.25,335.00 165.50,335.00 174.75,335.00 184.00,335.00 193.25,335.00 202.50,335.00 211.75,335.00 221.00,335.00 230.25,335.00 239.50,335.00 248.75,335.00 258.00,335.00 267.25,335.00 276.50,335.00 285.75,335.00 295.00,335.00 304.25,335.00 313.50,335.00 322.75,335.00 332.00,335.00 341.25,335.00 350.50,335.00 359.75,335.00 369.00,335.00 378.25,335.00 387.50,335.00 396.75,335.00 406.00,335.00 415.25,335.00 424.50,335.00 433.75,335.00 443.00,335.00 452.25,335.00 461.50,335.00 470.75,335.00 480.00,335.00 489.25,335.00 498.50,335.00 507.75,335.00 517.00,335.00 526.25,335.00 535.50,335.00 544.75,335.00 554.00,335.00 563.25,335.00 572.50,335.00 581.75,335.00 591.00,335.00 600.25,335.00 609.50,335.00 618.75,335.00 628.00,335.00 637.25,335.00 646.50,335.00 655.75,335.00 665.00,335.00 674.25,335.00 683.50,335.00 692.75,335.00 702.00,335.00 711.25,335.00 720.50,335.00 729.75,335.00 739.00,335.00 748.25,335.00 757.50,335.00 766.75,335.00 776.00,335.00 785.25,335.00 794.50,335.00 803.75,335.00 813.00,335.00 822.25,335.00 831.50,335.00 840.75,335.00 850.00,335.00"/>
<line x1="880" y1="130" x2="910" y2="130" stroke="#d62728" stroke-width="4"/>
<text x="920" y="135" font-family="Arial, sans-serif" font-size="15" fill="#111">B only as required</text>
<polyline fill="none" stroke="#2ca02c" stroke-width="3" points="110.00,251.72 119.25,256.36 128.50,260.65 137.75,264.62 147.00,268.33 156.25,271.81 165.50,275.08 174.75,278.17 184.00,281.10 193.25,283.88 202.50,286.52 211.75,289.05 221.00,291.46 230.25,293.78 239.50,296.00 248.75,298.14 258.00,300.19 267.25,302.18 276.50,304.09 285.75,305.94 295.00,307.73 304.25,309.46 313.50,311.15 322.75,312.78 332.00,314.36 341.25,315.91 350.50,317.40 359.75,318.86 369.00,320.29 378.25,321.67 387.50,323.03 396.75,324.35 406.00,325.64 415.25,326.90 424.50,328.13 433.75,329.34 443.00,330.52 452.25,331.67 461.50,332.80 470.75,333.91 480.00,335.00 489.25,336.07 498.50,337.11 507.75,338.14 517.00,339.15 526.25,340.14 535.50,341.11 544.75,342.07 554.00,343.01 563.25,343.93 572.50,344.84 581.75,345.73 591.00,346.61 600.25,347.48 609.50,348.33 618.75,349.17 628.00,350.00 637.25,350.81 646.50,351.62 655.75,352.41 665.00,353.19 674.25,353.96 683.50,354.72 692.75,355.47 702.00,356.21 711.25,356.94 720.50,357.66 729.75,358.37 739.00,359.07 748.25,359.76 757.50,360.45 766.75,361.12 776.00,361.79 785.25,362.45 794.50,363.10 803.75,363.75 813.00,364.38 822.25,365.01 831.50,365.63 840.75,366.25 850.00,366.86"/>
<line x1="880" y1="160" x2="910" y2="160" stroke="#2ca02c" stroke-width="4"/>
<text x="920" y="165" font-family="Arial, sans-serif" font-size="15" fill="#111">Middle ground</text>
</svg>