<svg xmlns="http://www.w3.org/2000/svg" width="1100" height="700" viewBox="0 0 1100 700">
<rect width="100%" height="100%" fill="#ffffff"/>
<text x="110" y="40" font-family="Arial, sans-serif" font-size="24" font-weight="700" fill="#111">Fusion-Edge Closure: B Scaling</text>
<text x="480.0" y="665" text-anchor="middle" font-family="Arial, sans-serif" font-size="18" fill="#111">Minor radius a (m)</text>
<text x="32" y="335.0" transform="rotate(-90 32 335.0)" text-anchor="middle" font-family="Arial, sans-serif" font-size="18" fill="#111">B (T)</text>
<line x1="110.00" y1="80" x2="110.00" y2="590" stroke="#e6e6e6" stroke-width="1"/>
<text x="110.00" y="618" text-anchor="middle" font-family="Arial, sans-serif" font-size="13" fill="#333">2</text>
<line x1="258.00" y1="80" x2="258.00" y2="590" stroke="#e6e6e6" stroke-width="1"/>
<text x="258.00" y="618" text-anchor="middle" font-family="Arial, sans-serif" font-size="13" fill="#333">11.6</text>
<line x1="406.00" y1="80" x2="406.00" y2="590" stroke="#e6e6e6" stroke-width="1"/>
<text x="406.00" y="618" text-anchor="middle" font-family="Arial, sans-serif" font-size="13" fill="#333">21.2</text>
<line x1="554.00" y1="80" x2="554.00" y2="590" stroke="#e6e6e6" stroke-width="1"/>
<text x="554.00" y="618" text-anchor="middle" font-family="Arial, sans-serif" font-size="13" fill="#333">30.8</text>
<line x1="702.00" y1="80" x2="702.00" y2="590" stroke="#e6e6e6" stroke-width="1"/>
<text x="702.00" y="618" text-anchor="middle" font-family="Arial, sans-serif" font-size="13" fill="#333">40.4</text>
<line x1="850.00" y1="80" x2="850.00" y2="590" stroke="#e6e6e6" stroke-width="1"/>
<text x="850.00" y="618" text-anchor="middle" font-family="Arial, sans-serif" font-size="13" fill="#333">50</text>
<line x1="110" y1="590.00" x2="850" y2="590.00" stroke="#e6e6e6" stroke-width="1"/>
<text x="98" y="594.00" text-anchor="end" font-family="Arial, sans-serif" font-size="13" fill="#333">1</text>
<line x1="110" y1="80.00" x2="850" y2="80.00" stroke="#e6e6e6" stroke-width="1"/>
<text x="98" y="84.00" text-anchor="end" font-family="Arial, sans-serif" font-size="13" fill="#333">10</text>
<rect x="110" y="80" width="740" height="510" fill="none" stroke="#111" stroke-width="1.4"/>
<polyline fill="none" stroke="#1f77b4" stroke-width="3" points="110.00,198.37 116.17,198.37 122.33,198.37 128.50,198.37 134.67,198.37 140.83,198.37 147.00,198.37 153.17,198.37 159.33,198.37 165.50,198.37 171.67,198.37 177.83,198.37 184.00,198.37 190.17,198.37 196.33,198.37 202.50,198.37 208.67,198.37 214.83,198.37 221.00,198.37 227.17,198.37 233.33,198.37 239.50,198.37 245.67,198.37 251.83,198.37 258.00,198.37 264.17,198.37 270.33,198.37 276.50,198.37 282.67,198.37 288.83,198.37 295.00,198.37 301.17,198.37 307.33,198.37 313.50,198.37 319.67,198.37 325.83,198.37 332.00,198.37 338.17,198.37 344.33,198.37 350.50,198.37 356.67,198.37 362.83,198.37 369.00,198.37 375.17,198.37 381.33,198.37 387.50,198.37 393.67,198.37 399.83,198.37 406.00,198.37 412.17,198.37 418.33,198.37 424.50,198.37 430.67,198.37 436.83,198.37 443.00,198.37 449.17,198.37 455.33,198.37 461.50,198.37 467.67,198.37 473.83,198.37 480.00,198.37 486.17,198.37 492.33,198.37 498.50,198.37 504.67,198.37 510.83,198.37 517.00,198.37 523.17,198.37 529.33,198.37 535.50,198.37 541.67,198.37 547.83,198.37 554.00,198.37 560.17,198.37 566.33,198.37 572.50,198.37 578.67,198.37 584.83,198.37 591.00,198.37 597.17,198.37 603.33,198.37 609.50,198.37 615.67,198.37 621.83,198.37 628.00,198.37 634.17,198.37 640.33,198.37 646.50,198.37 652.67,198.37 658.83,198.37 665.00,198.37 671.17,198.37 677.33,198.37 683.50,198.37 689.67,198.37 695.83,198.37 702.00,198.37 708.17,198.37 714.33,198.37 720.50,198.37 726.67,198.37 732.83,198.37 739.00,198.37 745.17,198.37 751.33,198.37 757.50,198.37 763.67,198.37 769.83,198.37 776.00,198.37 782.17,198.37 788.33,198.37 794.50,198.37 800.67,198.37 806.83,198.37 813.00,198.37 819.17,198.37 825.33,198.37 831.50,198.37 837.67,198.37 843.83,198.37 850.00,198.37"/>
<line x1="880" y1="100" x2="910" y2="100" stroke="#1f77b4" stroke-width="4"/>
<text x="920" y="105" font-family="Arial, sans-serif" font-size="15" fill="#111">Constant B</text>
<polyline fill="none" stroke="#2ca02c" stroke-width="3" points="110.00,186.02 116.17,196.11 122.33,204.65 128.50,212.04 134.67,218.56 140.83,224.40 147.00,229.68 153.17,234.49 159.33,238.93 165.50,243.03 171.67,246.85 177.83,250.42 184.00,253.78 190.17,256.94 196.33,259.94 202.50,262.78 208.67,265.48 214.83,268.06 221.00,270.52 227.17,272.87 233.33,275.13 239.50,277.31 245.67,279.40 251.83,281.41 258.00,283.35 264.17,285.23 270.33,287.05 276.50,288.80 282.67,290.51 288.83,292.16 295.00,293.77 301.17,295.33 307.33,296.84 313.50,298.32 319.67,299.76 325.83,301.16 332.00,302.53 338.17,303.86 344.33,305.16 350.50,306.44 356.67,307.68 362.83,308.90 369.00,310.09 375.17,311.26 381.33,312.40 387.50,313.52 393.67,314.61 399.83,315.69 406.00,316.74 412.17,317.78 418.33,318.79 424.50,319.79 430.67,320.77 436.83,321.73 443.00,322.68 449.17,323.61 455.33,324.53 461.50,325.43 467.67,326.31 473.83,327.19 480.00,328.04 486.17,328.89 492.33,329.72 498.50,330.54 504.67,331.35 510.83,332.15 517.00,332.93 523.17,333.71 529.33,334.47 535.50,335.22 541.67,335.97 547.83,336.70 554.00,337.43 560.17,338.14 566.33,338.84 572.50,339.54 578.67,340.23 584.83,340.91 591.00,341.58 597.17,342.24 603.33,342.90 609.50,343.55 615.67,344.19 621.83,344.82 628.00,345.44 634.17,346.06 640.33,346.68 646.50,347.28 652.67,347.88 658.83,348.47 665.00,349.06 671.17,349.64 677.33,350.21 683.50,350.78 689.67,351.34 695.83,351.90 702.00,352.45 708.17,352.99 714.33,353.53 720.50,354.07 726.67,354.60 732.83,355.12 739.00,355.64 745.17,356.16 751.33,356.67 757.50,357.18 763.67,357.68 769.83,358.17 776.00,358.67 782.17,359.15 788.33,359.64 794.50,360.12 800.67,360.59 806.83,361.06 813.00,361.53 819.17,361.99 825.33,362.45 831.50,362.91 837.67,363.36 843.83,363.81 850.00,364.25"/>
<line x1="880" y1="130" x2="910" y2="130" stroke="#2ca02c" stroke-width="4"/>
<text x="920" y="135" font-family="Arial, sans-serif" font-size="15" fill="#111">Middle ground</text>
<polyline fill="none" stroke="#d62728" stroke-width="3" points="110.00,170.76 116.17,193.48 122.33,211.61 128.50,226.57 134.67,239.22 140.83,250.14 147.00,259.71 153.17,268.20 159.33,275.82 165.50,282.72 171.67,289.02 177.83,294.79 184.00,300.13 190.17,305.09 196.33,309.70 202.50,314.03 208.67,318.09 214.83,321.92 221.00,325.54 227.17,328.97 233.33,332.23 239.50,335.34 245.67,338.30 251.83,341.13 258.00,343.84 264.17,346.44 270.33,348.94 276.50,351.35 282.67,353.66 288.83,355.90 295.00,358.05 301.17,360.14 307.33,362.15 313.50,364.11 319.67,366.00 325.83,367.84 332.00,369.62 338.17,371.36 344.33,373.04 350.50,374.69 356.67,376.28 362.83,377.84 369.00,379.36 375.17,380.84 381.33,382.29 387.50,383.70 393.67,385.08 399.83,386.43 406.00,387.75 412.17,389.04 418.33,390.31 424.50,391.55 430.67,392.76 436.83,393.95 443.00,395.12 449.17,396.26 455.33,397.38 461.50,398.48 467.67,399.56 473.83,400.63 480.00,401.67 486.17,402.70 492.33,403.70 498.50,404.70 504.67,405.67 510.83,406.63 517.00,407.57 523.17,408.50 529.33,409.42 535.50,410.32 541.67,411.21 547.83,412.08 554.00,412.94 560.17,413.79 566.33,414.63 572.50,415.45 578.67,416.27 584.83,417.07 591.00,417.86 597.17,418.64 603.33,419.41 609.50,420.17 615.67,420.92 621.83,421.67 628.00,422.40 634.17,423.12 640.33,423.84 646.50,424.54 652.67,425.24 658.83,425.93 665.00,426.61 671.17,427.28 677.33,427.95 683.50,428.61 689.67,429.26 695.83,429.90 702.00,430.54 708.17,431.16 714.33,431.79 720.50,432.40 726.67,433.01 732.83,433.62 739.00,434.21 745.17,434.80 751.33,435.39 757.50,435.97 763.67,436.54 769.83,437.11 776.00,437.67 782.17,438.23 788.33,438.78 794.50,439.33 800.67,439.87 806.83,440.40 813.00,440.94 819.17,441.46 825.33,441.98 831.50,442.50 837.67,443.01 843.83,443.52 850.00,444.02"/>
<line x1="880" y1="160" x2="910" y2="160" stroke="#d62728" stroke-width="4"/>
<text x="920" y="165" font-family="Arial, sans-serif" font-size="15" fill="#111">Edge-gap constrained</text>
</svg>