<svg xmlns="http://www.w3.org/2000/svg" width="1100" height="700" viewBox="0 0 1100 700">
<rect width="100%" height="100%" fill="#ffffff"/>
<text x="110" y="40" font-family="Arial, sans-serif" font-size="24" font-weight="700" fill="#111">Fusion-Fill Closure: B Scaling</text>
<text x="480.0" y="665" text-anchor="middle" font-family="Arial, sans-serif" font-size="18" fill="#111">Minor radius a (m)</text>
<text x="32" y="335.0" transform="rotate(-90 32 335.0)" text-anchor="middle" font-family="Arial, sans-serif" font-size="18" fill="#111">B (T)</text>
<line x1="110.00" y1="80" x2="110.00" y2="590" stroke="#e6e6e6" stroke-width="1"/>
<text x="110.00" y="618" text-anchor="middle" font-family="Arial, sans-serif" font-size="13" fill="#333">2</text>
<line x1="258.00" y1="80" x2="258.00" y2="590" stroke="#e6e6e6" stroke-width="1"/>
<text x="258.00" y="618" text-anchor="middle" font-family="Arial, sans-serif" font-size="13" fill="#333">11.6</text>
<line x1="406.00" y1="80" x2="406.00" y2="590" stroke="#e6e6e6" stroke-width="1"/>
<text x="406.00" y="618" text-anchor="middle" font-family="Arial, sans-serif" font-size="13" fill="#333">21.2</text>
<line x1="554.00" y1="80" x2="554.00" y2="590" stroke="#e6e6e6" stroke-width="1"/>
<text x="554.00" y="618" text-anchor="middle" font-family="Arial, sans-serif" font-size="13" fill="#333">30.8</text>
<line x1="702.00" y1="80" x2="702.00" y2="590" stroke="#e6e6e6" stroke-width="1"/>
<text x="702.00" y="618" text-anchor="middle" font-family="Arial, sans-serif" font-size="13" fill="#333">40.4</text>
<line x1="850.00" y1="80" x2="850.00" y2="590" stroke="#e6e6e6" stroke-width="1"/>
<text x="850.00" y="618" text-anchor="middle" font-family="Arial, sans-serif" font-size="13" fill="#333">50</text>
<line x1="110" y1="590.00" x2="850" y2="590.00" stroke="#e6e6e6" stroke-width="1"/>
<text x="98" y="594.00" text-anchor="end" font-family="Arial, sans-serif" font-size="13" fill="#333">1</text>
<line x1="110" y1="80.00" x2="850" y2="80.00" stroke="#e6e6e6" stroke-width="1"/>
<text x="98" y="84.00" text-anchor="end" font-family="Arial, sans-serif" font-size="13" fill="#333">10</text>
<rect x="110" y="80" width="740" height="510" fill="none" stroke="#111" stroke-width="1.4"/>
<polyline fill="none" stroke="#1f77b4" stroke-width="3" points="110.00,220.62 116.17,220.62 122.33,220.62 128.50,220.62 134.67,220.62 140.83,220.62 147.00,220.62 153.17,220.62 159.33,220.62 165.50,220.62 171.67,220.62 177.83,220.62 184.00,220.62 190.17,220.62 196.33,220.62 202.50,220.62 208.67,220.62 214.83,220.62 221.00,220.62 227.17,220.62 233.33,220.62 239.50,220.62 245.67,220.62 251.83,220.62 258.00,220.62 264.17,220.62 270.33,220.62 276.50,220.62 282.67,220.62 288.83,220.62 295.00,220.62 301.17,220.62 307.33,220.62 313.50,220.62 319.67,220.62 325.83,220.62 332.00,220.62 338.17,220.62 344.33,220.62 350.50,220.62 356.67,220.62 362.83,220.62 369.00,220.62 375.17,220.62 381.33,220.62 387.50,220.62 393.67,220.62 399.83,220.62 406.00,220.62 412.17,220.62 418.33,220.62 424.50,220.62 430.67,220.62 436.83,220.62 443.00,220.62 449.17,220.62 455.33,220.62 461.50,220.62 467.67,220.62 473.83,220.62 480.00,220.62 486.17,220.62 492.33,220.62 498.50,220.62 504.67,220.62 510.83,220.62 517.00,220.62 523.17,220.62 529.33,220.62 535.50,220.62 541.67,220.62 547.83,220.62 554.00,220.62 560.17,220.62 566.33,220.62 572.50,220.62 578.67,220.62 584.83,220.62 591.00,220.62 597.17,220.62 603.33,220.62 609.50,220.62 615.67,220.62 621.83,220.62 628.00,220.62 634.17,220.62 640.33,220.62 646.50,220.62 652.67,220.62 658.83,220.62 665.00,220.62 671.17,220.62 677.33,220.62 683.50,220.62 689.67,220.62 695.83,220.62 702.00,220.62 708.17,220.62 714.33,220.62 720.50,220.62 726.67,220.62 732.83,220.62 739.00,220.62 745.17,220.62 751.33,220.62 757.50,220.62 763.67,220.62 769.83,220.62 776.00,220.62 782.17,220.62 788.33,220.62 794.50,220.62 800.67,220.62 806.83,220.62 813.00,220.62 819.17,220.62 825.33,220.62 831.50,220.62 837.67,220.62 843.83,220.62 850.00,220.62"/>
<line x1="880" y1="100" x2="910" y2="100" stroke="#1f77b4" stroke-width="4"/>
<text x="920" y="105" font-family="Arial, sans-serif" font-size="15" fill="#111">Constant B</text>
<polyline fill="none" stroke="#2ca02c" stroke-width="3" points="110.00,220.62 116.17,230.71 122.33,239.25 128.50,246.64 134.67,253.17 140.83,259.00 147.00,264.28 153.17,269.10 159.33,273.53 165.50,277.63 171.67,281.45 177.83,285.03 184.00,288.38 190.17,291.55 196.33,294.54 202.50,297.38 208.67,300.08 214.83,302.66 221.00,305.12 227.17,307.48 233.33,309.74 239.50,311.91 245.67,314.00 251.83,316.01 258.00,317.96 264.17,319.83 270.33,321.65 276.50,323.41 282.67,325.11 288.83,326.76 295.00,328.37 301.17,329.93 307.33,331.45 313.50,332.92 319.67,334.36 325.83,335.76 332.00,337.13 338.17,338.46 344.33,339.77 350.50,341.04 356.67,342.29 362.83,343.50 369.00,344.69 375.17,345.86 381.33,347.00 387.50,348.12 393.67,349.22 399.83,350.29 406.00,351.35 412.17,352.38 418.33,353.40 424.50,354.39 430.67,355.37 436.83,356.34 443.00,357.28 449.17,358.21 455.33,359.13 461.50,360.03 467.67,360.92 473.83,361.79 480.00,362.65 486.17,363.49 492.33,364.33 498.50,365.15 504.67,365.95 510.83,366.75 517.00,367.54 523.17,368.31 529.33,369.07 535.50,369.83 541.67,370.57 547.83,371.30 554.00,372.03 560.17,372.74 566.33,373.45 572.50,374.14 578.67,374.83 584.83,375.51 591.00,376.18 597.17,376.85 603.33,377.50 609.50,378.15 615.67,378.79 621.83,379.42 628.00,380.05 634.17,380.67 640.33,381.28 646.50,381.88 652.67,382.48 658.83,383.07 665.00,383.66 671.17,384.24 677.33,384.81 683.50,385.38 689.67,385.94 695.83,386.50 702.00,387.05 708.17,387.60 714.33,388.14 720.50,388.67 726.67,389.20 732.83,389.73 739.00,390.25 745.17,390.76 751.33,391.27 757.50,391.78 763.67,392.28 769.83,392.78 776.00,393.27 782.17,393.76 788.33,394.24 794.50,394.72 800.67,395.19 806.83,395.67 813.00,396.13 819.17,396.60 825.33,397.06 831.50,397.51 837.67,397.96 843.83,398.41 850.00,398.86"/>
<line x1="880" y1="130" x2="910" y2="130" stroke="#2ca02c" stroke-width="4"/>
<text x="920" y="135" font-family="Arial, sans-serif" font-size="15" fill="#111">Middle ground</text>
<polyline fill="none" stroke="#d62728" stroke-width="3" points="110.00,220.62 116.17,236.10 122.33,248.66 128.50,259.19 134.67,268.23 140.83,276.14 147.00,283.16 153.17,289.47 159.33,295.19 165.50,300.42 171.67,305.23 177.83,309.69 184.00,313.84 190.17,317.72 196.33,321.36 202.50,324.79 208.67,328.04 214.83,331.11 221.00,334.04 227.17,336.82 233.33,339.48 239.50,342.02 245.67,344.46 251.83,346.79 258.00,349.04 264.17,351.21 270.33,353.29 276.50,355.31 282.67,357.25 288.83,359.14 295.00,360.96 301.17,362.73 307.33,364.44 313.50,366.11 319.67,367.73 325.83,369.30 332.00,370.83 338.17,372.32 344.33,373.78 350.50,375.20 356.67,376.58 362.83,377.93 369.00,379.25 375.17,380.54 381.33,381.81 387.50,383.04 393.67,384.25 399.83,385.43 406.00,386.59 412.17,387.73 418.33,388.84 424.50,389.94 430.67,391.01 436.83,392.06 443.00,393.09 449.17,394.11 455.33,395.11 461.50,396.09 467.67,397.05 473.83,398.00 480.00,398.93 486.17,399.84 492.33,400.75 498.50,401.63 504.67,402.51 510.83,403.37 517.00,404.22 523.17,405.05 529.33,405.88 535.50,406.69 541.67,407.49 547.83,408.28 554.00,409.05 560.17,409.82 566.33,410.58 572.50,411.33 578.67,412.06 584.83,412.79 591.00,413.51 597.17,414.22 603.33,414.92 609.50,415.61 615.67,416.30 621.83,416.97 628.00,417.64 634.17,418.30 640.33,418.95 646.50,419.60 652.67,420.24 658.83,420.87 665.00,421.49 671.17,422.11 677.33,422.72 683.50,423.32 689.67,423.92 695.83,424.51 702.00,425.09 708.17,425.67 714.33,426.24 720.50,426.81 726.67,427.37 732.83,427.93 739.00,428.48 745.17,429.02 751.33,429.56 757.50,430.10 763.67,430.63 769.83,431.15 776.00,431.67 782.17,432.19 788.33,432.70 794.50,433.20 800.67,433.70 806.83,434.20 813.00,434.69 819.17,435.18 825.33,435.66 831.50,436.14 837.67,436.62 843.83,437.09 850.00,437.56"/>
<line x1="880" y1="160" x2="910" y2="160" stroke="#d62728" stroke-width="4"/>
<text x="920" y="165" font-family="Arial, sans-serif" font-size="15" fill="#111">Edge-gap constrained</text>
</svg>