<svg xmlns="http://www.w3.org/2000/svg" width="1100" height="700" viewBox="0 0 1100 700">
<rect width="100%" height="100%" fill="#ffffff"/>
<text x="110" y="40" font-family="Arial, sans-serif" font-size="24" font-weight="700" fill="#111">Fusion-Fill Closure: Active Fill Fraction</text>
<text x="480.0" y="665" text-anchor="middle" font-family="Arial, sans-serif" font-size="18" fill="#111">Minor radius a (m)</text>
<text x="32" y="335.0" transform="rotate(-90 32 335.0)" text-anchor="middle" font-family="Arial, sans-serif" font-size="18" fill="#111">A_active / (pi a^2)</text>
<line x1="110.00" y1="80" x2="110.00" y2="590" stroke="#e6e6e6" stroke-width="1"/>
<text x="110.00" y="618" text-anchor="middle" font-family="Arial, sans-serif" font-size="13" fill="#333">2</text>
<line x1="258.00" y1="80" x2="258.00" y2="590" stroke="#e6e6e6" stroke-width="1"/>
<text x="258.00" y="618" text-anchor="middle" font-family="Arial, sans-serif" font-size="13" fill="#333">11.6</text>
<line x1="406.00" y1="80" x2="406.00" y2="590" stroke="#e6e6e6" stroke-width="1"/>
<text x="406.00" y="618" text-anchor="middle" font-family="Arial, sans-serif" font-size="13" fill="#333">21.2</text>
<line x1="554.00" y1="80" x2="554.00" y2="590" stroke="#e6e6e6" stroke-width="1"/>
<text x="554.00" y="618" text-anchor="middle" font-family="Arial, sans-serif" font-size="13" fill="#333">30.8</text>
<line x1="702.00" y1="80" x2="702.00" y2="590" stroke="#e6e6e6" stroke-width="1"/>
<text x="702.00" y="618" text-anchor="middle" font-family="Arial, sans-serif" font-size="13" fill="#333">40.4</text>
<line x1="850.00" y1="80" x2="850.00" y2="590" stroke="#e6e6e6" stroke-width="1"/>
<text x="850.00" y="618" text-anchor="middle" font-family="Arial, sans-serif" font-size="13" fill="#333">50</text>
<line x1="110" y1="488.00" x2="850" y2="488.00" stroke="#e6e6e6" stroke-width="1"/>
<text x="98" y="492.00" text-anchor="end" font-family="Arial, sans-serif" font-size="13" fill="#333">0.16</text>
<line x1="110" y1="386.00" x2="850" y2="386.00" stroke="#e6e6e6" stroke-width="1"/>
<text x="98" y="390.00" text-anchor="end" font-family="Arial, sans-serif" font-size="13" fill="#333">0.37</text>
<line x1="110" y1="284.00" x2="850" y2="284.00" stroke="#e6e6e6" stroke-width="1"/>
<text x="98" y="288.00" text-anchor="end" font-family="Arial, sans-serif" font-size="13" fill="#333">0.58</text>
<line x1="110" y1="182.00" x2="850" y2="182.00" stroke="#e6e6e6" stroke-width="1"/>
<text x="98" y="186.00" text-anchor="end" font-family="Arial, sans-serif" font-size="13" fill="#333">0.79</text>
<line x1="110" y1="80.00" x2="850" y2="80.00" stroke="#e6e6e6" stroke-width="1"/>
<text x="98" y="84.00" text-anchor="end" font-family="Arial, sans-serif" font-size="13" fill="#333">1.01</text>
<rect x="110" y="80" width="740" height="510" fill="none" stroke="#111" stroke-width="1.4"/>
<polyline fill="none" stroke="#1f77b4" stroke-width="3" points="110.00,340.76 116.17,377.92 122.33,404.47 128.50,424.38 134.67,439.87 140.83,452.25 147.00,462.39 153.17,470.84 159.33,477.98 165.50,484.11 171.67,489.42 177.83,494.06 184.00,498.16 190.17,501.81 196.33,505.07 202.50,508.00 208.67,510.65 214.83,513.07 221.00,515.27 227.17,517.29 233.33,519.15 239.50,520.86 245.67,522.45 251.83,523.93 258.00,525.30 264.17,526.58 270.33,527.78 276.50,528.91 282.67,529.96 288.83,530.95 295.00,531.89 301.17,532.78 307.33,533.61 313.50,534.41 319.67,535.16 325.83,535.87 332.00,536.55 338.17,537.20 344.33,537.82 350.50,538.41 356.67,538.97 362.83,539.51 369.00,540.03 375.17,540.52 381.33,540.99 387.50,541.45 393.67,541.89 399.83,542.31 406.00,542.71 412.17,543.10 418.33,543.48 424.50,543.84 430.67,544.19 436.83,544.52 443.00,544.85 449.17,545.16 455.33,545.47 461.50,545.76 467.67,546.05 473.83,546.33 480.00,546.59 486.17,546.85 492.33,547.11 498.50,547.35 504.67,547.59 510.83,547.82 517.00,548.04 523.17,548.26 529.33,548.47 535.50,548.68 541.67,548.88 547.83,549.08 554.00,549.27 560.17,549.45 566.33,549.63 572.50,549.81 578.67,549.98 584.83,550.15 591.00,550.31 597.17,550.47 603.33,550.63 609.50,550.78 615.67,550.93 621.83,551.08 628.00,551.22 634.17,551.36 640.33,551.50 646.50,551.63 652.67,551.76 658.83,551.89 665.00,552.01 671.17,552.13 677.33,552.25 683.50,552.37 689.67,552.49 695.83,552.60 702.00,552.71 708.17,552.82 714.33,552.92 720.50,553.03 726.67,553.13 732.83,553.23 739.00,553.33 745.17,553.42 751.33,553.52 757.50,553.61 763.67,553.70 769.83,553.79 776.00,553.88 782.17,553.97 788.33,554.05 794.50,554.14 800.67,554.22 806.83,554.30 813.00,554.38 819.17,554.46 825.33,554.53 831.50,554.61 837.67,554.68 843.83,554.76 850.00,554.83"/>
<line x1="880" y1="100" x2="910" y2="100" stroke="#1f77b4" stroke-width="4"/>
<text x="920" y="105" font-family="Arial, sans-serif" font-size="15" fill="#111">Constant B</text>
<polyline fill="none" stroke="#2ca02c" stroke-width="3" points="110.00,340.76 116.17,340.76 122.33,340.76 128.50,340.76 134.67,340.76 140.83,340.76 147.00,340.76 153.17,340.76 159.33,340.76 165.50,340.76 171.67,340.76 177.83,340.76 184.00,340.76 190.17,340.76 196.33,340.76 202.50,340.76 208.67,340.76 214.83,340.76 221.00,340.76 227.17,340.76 233.33,340.76 239.50,340.76 245.67,340.76 251.83,340.76 258.00,340.76 264.17,340.76 270.33,340.76 276.50,340.76 282.67,340.76 288.83,340.76 295.00,340.76 301.17,340.76 307.33,340.76 313.50,340.76 319.67,340.76 325.83,340.76 332.00,340.76 338.17,340.76 344.33,340.76 350.50,340.76 356.67,340.76 362.83,340.76 369.00,340.76 375.17,340.76 381.33,340.76 387.50,340.76 393.67,340.76 399.83,340.76 406.00,340.76 412.17,340.76 418.33,340.76 424.50,340.76 430.67,340.76 436.83,340.76 443.00,340.76 449.17,340.76 455.33,340.76 461.50,340.76 467.67,340.76 473.83,340.76 480.00,340.76 486.17,340.76 492.33,340.76 498.50,340.76 504.67,340.76 510.83,340.76 517.00,340.76 523.17,340.76 529.33,340.76 535.50,340.76 541.67,340.76 547.83,340.76 554.00,340.76 560.17,340.76 566.33,340.76 572.50,340.76 578.67,340.76 584.83,340.76 591.00,340.76 597.17,340.76 603.33,340.76 609.50,340.76 615.67,340.76 621.83,340.76 628.00,340.76 634.17,340.76 640.33,340.76 646.50,340.76 652.67,340.76 658.83,340.76 665.00,340.76 671.17,340.76 677.33,340.76 683.50,340.76 689.67,340.76 695.83,340.76 702.00,340.76 708.17,340.76 714.33,340.76 720.50,340.76 726.67,340.76 732.83,340.76 739.00,340.76 745.17,340.76 751.33,340.76 757.50,340.76 763.67,340.76 769.83,340.76 776.00,340.76 782.17,340.76 788.33,340.76 794.50,340.76 800.67,340.76 806.83,340.76 813.00,340.76 819.17,340.76 825.33,340.76 831.50,340.76 837.67,340.76 843.83,340.76 850.00,340.76"/>
<line x1="880" y1="130" x2="910" y2="130" stroke="#2ca02c" stroke-width="4"/>
<text x="920" y="135" font-family="Arial, sans-serif" font-size="15" fill="#111">Middle ground</text>
<polyline fill="none" stroke="#d62728" stroke-width="3" points="110.00,340.76 116.17,318.00 122.33,299.48 128.50,284.07 134.67,271.04 140.83,259.85 147.00,250.12 153.17,241.58 159.33,234.00 165.50,227.23 171.67,221.14 177.83,215.63 184.00,210.61 190.17,206.02 196.33,201.80 202.50,197.91 208.67,194.31 214.83,190.97 221.00,187.85 227.17,184.94 233.33,182.21 239.50,179.65 245.67,177.24 251.83,174.97 258.00,172.82 264.17,170.79 270.33,168.87 276.50,167.04 282.67,165.30 288.83,163.64 295.00,162.06 301.17,160.55 307.33,159.11 313.50,157.72 319.67,156.40 325.83,155.13 332.00,153.91 338.17,152.74 344.33,151.61 350.50,150.53 356.67,149.48 362.83,148.48 369.00,147.50 375.17,146.56 381.33,145.66 387.50,144.78 393.67,143.93 399.83,143.11 406.00,142.31 412.17,141.54 418.33,140.79 424.50,140.06 430.67,139.36 436.83,138.67 443.00,138.01 449.17,137.36 455.33,136.73 461.50,136.12 467.67,135.52 473.83,134.94 480.00,134.37 486.17,133.82 492.33,133.28 498.50,132.76 504.67,132.25 510.83,131.75 517.00,131.26 523.17,130.78 529.33,130.31 535.50,129.86 541.67,129.41 547.83,128.98 554.00,128.55 560.17,128.14 566.33,127.73 572.50,127.33 578.67,126.94 584.83,126.55 591.00,126.18 597.17,125.81 603.33,125.45 609.50,125.10 615.67,124.75 621.83,124.41 628.00,124.08 634.17,123.75 640.33,123.43 646.50,123.11 652.67,122.80 658.83,122.50 665.00,122.20 671.17,121.91 677.33,121.62 683.50,121.34 689.67,121.06 695.83,120.78 702.00,120.52 708.17,120.25 714.33,119.99 720.50,119.73 726.67,119.48 732.83,119.23 739.00,118.99 745.17,118.75 751.33,118.51 757.50,118.28 763.67,118.05 769.83,117.83 776.00,117.60 782.17,117.38 788.33,117.17 794.50,116.96 800.67,116.75 806.83,116.54 813.00,116.34 819.17,116.14 825.33,115.94 831.50,115.74 837.67,115.55 843.83,115.36 850.00,115.17"/>
<line x1="880" y1="160" x2="910" y2="160" stroke="#d62728" stroke-width="4"/>
<text x="920" y="165" font-family="Arial, sans-serif" font-size="15" fill="#111">Edge-gap constrained</text>
</svg>