<svg xmlns="http://www.w3.org/2000/svg" width="1100" height="700" viewBox="0 0 1100 700">
<rect width="100%" height="100%" fill="#ffffff"/>
<text x="110" y="40" font-family="Arial, sans-serif" font-size="24" font-weight="700" fill="#111">Fusion-Fill Closure: Active Plasma Radius</text>
<text x="480.0" y="665" text-anchor="middle" font-family="Arial, sans-serif" font-size="18" fill="#111">Minor radius a (m)</text>
<text x="32" y="335.0" transform="rotate(-90 32 335.0)" text-anchor="middle" font-family="Arial, sans-serif" font-size="18" fill="#111">r_active (m)</text>
<line x1="110.00" y1="80" x2="110.00" y2="590" stroke="#e6e6e6" stroke-width="1"/>
<text x="110.00" y="618" text-anchor="middle" font-family="Arial, sans-serif" font-size="13" fill="#333">2</text>
<line x1="258.00" y1="80" x2="258.00" y2="590" stroke="#e6e6e6" stroke-width="1"/>
<text x="258.00" y="618" text-anchor="middle" font-family="Arial, sans-serif" font-size="13" fill="#333">11.6</text>
<line x1="406.00" y1="80" x2="406.00" y2="590" stroke="#e6e6e6" stroke-width="1"/>
<text x="406.00" y="618" text-anchor="middle" font-family="Arial, sans-serif" font-size="13" fill="#333">21.2</text>
<line x1="554.00" y1="80" x2="554.00" y2="590" stroke="#e6e6e6" stroke-width="1"/>
<text x="554.00" y="618" text-anchor="middle" font-family="Arial, sans-serif" font-size="13" fill="#333">30.8</text>
<line x1="702.00" y1="80" x2="702.00" y2="590" stroke="#e6e6e6" stroke-width="1"/>
<text x="702.00" y="618" text-anchor="middle" font-family="Arial, sans-serif" font-size="13" fill="#333">40.4</text>
<line x1="850.00" y1="80" x2="850.00" y2="590" stroke="#e6e6e6" stroke-width="1"/>
<text x="850.00" y="618" text-anchor="middle" font-family="Arial, sans-serif" font-size="13" fill="#333">50</text>
<line x1="110" y1="590.00" x2="850" y2="590.00" stroke="#e6e6e6" stroke-width="1"/>
<text x="98" y="594.00" text-anchor="end" font-family="Arial, sans-serif" font-size="13" fill="#333">1</text>
<line x1="110" y1="335.00" x2="850" y2="335.00" stroke="#e6e6e6" stroke-width="1"/>
<text x="98" y="339.00" text-anchor="end" font-family="Arial, sans-serif" font-size="13" fill="#333">10</text>
<line x1="110" y1="80.00" x2="850" y2="80.00" stroke="#e6e6e6" stroke-width="1"/>
<text x="98" y="84.00" text-anchor="end" font-family="Arial, sans-serif" font-size="13" fill="#333">100</text>
<rect x="110" y="80" width="740" height="510" fill="none" stroke="#111" stroke-width="1.4"/>
<polyline fill="none" stroke="#1f77b4" stroke-width="3" points="110.00,555.77 116.17,545.67 122.33,537.14 128.50,529.74 134.67,523.22 140.83,517.39 147.00,512.11 153.17,507.29 159.33,502.86 165.50,498.76 171.67,494.93 177.83,491.36 184.00,488.00 190.17,484.84 196.33,481.85 202.50,479.01 208.67,476.30 214.83,473.73 221.00,471.27 227.17,468.91 233.33,466.65 239.50,464.48 245.67,462.39 251.83,460.37 258.00,458.43 264.17,456.55 270.33,454.74 276.50,452.98 282.67,451.28 288.83,449.62 295.00,448.02 301.17,446.46 307.33,444.94 313.50,443.46 319.67,442.03 325.83,440.62 332.00,439.26 338.17,437.92 344.33,436.62 350.50,435.35 356.67,434.10 362.83,432.88 369.00,431.69 375.17,430.53 381.33,429.39 387.50,428.27 393.67,427.17 399.83,426.10 406.00,425.04 412.17,424.01 418.33,422.99 424.50,421.99 430.67,421.01 436.83,420.05 443.00,419.10 449.17,418.17 455.33,417.26 461.50,416.36 467.67,415.47 473.83,414.60 480.00,413.74 486.17,412.89 492.33,412.06 498.50,411.24 504.67,410.43 510.83,409.64 517.00,408.85 523.17,408.08 529.33,407.31 535.50,406.56 541.67,405.82 547.83,405.08 554.00,404.36 560.17,403.64 566.33,402.94 572.50,402.24 578.67,401.55 584.83,400.88 591.00,400.20 597.17,399.54 603.33,398.89 609.50,398.24 615.67,397.60 621.83,396.96 628.00,396.34 634.17,395.72 640.33,395.11 646.50,394.50 652.67,393.90 658.83,393.31 665.00,392.73 671.17,392.15 677.33,391.57 683.50,391.01 689.67,390.44 695.83,389.89 702.00,389.34 708.17,388.79 714.33,388.25 720.50,387.71 726.67,387.18 732.83,386.66 739.00,386.14 745.17,385.62 751.33,385.11 757.50,384.61 763.67,384.11 769.83,383.61 776.00,383.12 782.17,382.63 788.33,382.15 794.50,381.67 800.67,381.19 806.83,380.72 813.00,380.25 819.17,379.79 825.33,379.33 831.50,378.88 837.67,378.42 843.83,377.98 850.00,377.53"/>
<line x1="880" y1="100" x2="910" y2="100" stroke="#1f77b4" stroke-width="4"/>
<text x="920" y="105" font-family="Arial, sans-serif" font-size="15" fill="#111">Constant B</text>
<polyline fill="none" stroke="#2ca02c" stroke-width="3" points="110.00,555.77 116.17,535.58 122.33,518.51 128.50,503.72 134.67,490.67 140.83,479.01 147.00,468.45 153.17,458.81 159.33,449.95 165.50,441.74 171.67,434.10 177.83,426.95 184.00,420.24 190.17,413.91 196.33,407.92 202.50,402.24 208.67,396.84 214.83,391.69 221.00,386.76 227.17,382.05 233.33,377.53 239.50,373.19 245.67,369.01 251.83,364.98 258.00,361.09 264.17,357.34 270.33,353.71 276.50,350.19 282.67,346.78 288.83,343.48 295.00,340.27 301.17,337.15 307.33,334.11 313.50,331.16 319.67,328.28 325.83,325.48 332.00,322.75 338.17,320.08 344.33,317.47 350.50,314.92 356.67,312.44 362.83,310.00 369.00,307.62 375.17,305.29 381.33,303.01 387.50,300.77 393.67,298.57 399.83,296.42 406.00,294.31 412.17,292.24 418.33,290.21 424.50,288.22 430.67,286.26 436.83,284.33 443.00,282.44 449.17,280.58 455.33,278.75 461.50,276.95 467.67,275.17 473.83,273.43 480.00,271.71 486.17,270.02 492.33,268.36 498.50,266.72 504.67,265.10 510.83,263.51 517.00,261.93 523.17,260.39 529.33,258.86 535.50,257.35 541.67,255.86 547.83,254.40 554.00,252.95 560.17,251.52 566.33,250.11 572.50,248.72 578.67,247.34 584.83,245.98 591.00,244.64 597.17,243.31 603.33,242.00 609.50,240.71 615.67,239.43 621.83,238.16 628.00,236.91 634.17,235.67 640.33,234.45 646.50,233.24 652.67,232.04 658.83,230.86 665.00,229.69 671.17,228.53 677.33,227.38 683.50,226.24 689.67,225.12 695.83,224.01 702.00,222.90 708.17,221.81 714.33,220.73 720.50,219.66 726.67,218.60 732.83,217.55 739.00,216.51 745.17,215.48 751.33,214.46 757.50,213.45 763.67,212.45 769.83,211.45 776.00,210.47 782.17,209.49 788.33,208.53 794.50,207.57 800.67,206.62 806.83,205.68 813.00,204.74 819.17,203.81 825.33,202.89 831.50,201.98 837.67,201.08 843.83,200.18 850.00,199.29"/>
<line x1="880" y1="130" x2="910" y2="130" stroke="#2ca02c" stroke-width="4"/>
<text x="920" y="135" font-family="Arial, sans-serif" font-size="15" fill="#111">Middle ground</text>
<polyline fill="none" stroke="#d62728" stroke-width="3" points="110.00,555.77 116.17,530.19 122.33,509.10 128.50,491.17 134.67,475.61 140.83,461.86 147.00,449.56 153.17,438.44 159.33,428.29 165.50,418.96 171.67,410.32 177.83,402.29 184.00,394.78 190.17,387.74 196.33,381.10 202.50,374.83 208.67,368.88 214.83,363.23 221.00,357.85 227.17,352.71 233.33,347.79 239.50,343.08 245.67,338.55 251.83,334.20 258.00,330.01 264.17,325.97 270.33,322.06 276.50,318.29 282.67,314.64 288.83,311.11 295.00,307.68 301.17,304.35 307.33,301.12 313.50,297.98 319.67,294.92 325.83,291.94 332.00,289.04 338.17,286.22 344.33,283.46 350.50,280.77 356.67,278.14 362.83,275.57 369.00,273.06 375.17,270.60 381.33,268.20 387.50,265.85 393.67,263.54 399.83,261.28 406.00,259.07 412.17,256.90 418.33,254.77 424.50,252.68 430.67,250.62 436.83,248.61 443.00,246.63 449.17,244.68 455.33,242.77 461.50,240.89 467.67,239.04 473.83,237.22 480.00,235.43 486.17,233.67 492.33,231.93 498.50,230.23 504.67,228.54 510.83,226.89 517.00,225.25 523.17,223.64 529.33,222.06 535.50,220.49 541.67,218.95 547.83,217.43 554.00,215.92 560.17,214.44 566.33,212.98 572.50,211.54 578.67,210.11 584.83,208.70 591.00,207.31 597.17,205.94 603.33,204.58 609.50,203.24 615.67,201.92 621.83,200.61 628.00,199.32 634.17,198.04 640.33,196.78 646.50,195.53 652.67,194.29 658.83,193.07 665.00,191.86 671.17,190.66 677.33,189.48 683.50,188.31 689.67,187.15 695.83,186.00 702.00,184.86 708.17,183.74 714.33,182.63 720.50,181.52 726.67,180.43 732.83,179.35 739.00,178.28 745.17,177.22 751.33,176.17 757.50,175.13 763.67,174.10 769.83,173.08 776.00,172.07 782.17,171.06 788.33,170.07 794.50,169.09 800.67,168.11 806.83,167.14 813.00,166.18 819.17,165.23 825.33,164.29 831.50,163.35 837.67,162.42 843.83,161.50 850.00,160.59"/>
<line x1="880" y1="160" x2="910" y2="160" stroke="#d62728" stroke-width="4"/>
<text x="920" y="165" font-family="Arial, sans-serif" font-size="15" fill="#111">Edge-gap constrained</text>
</svg>