<svg xmlns="http://www.w3.org/2000/svg" width="1100" height="700" viewBox="0 0 1100 700">
<rect width="100%" height="100%" fill="#ffffff"/>
<text x="110" y="40" font-family="Arial, sans-serif" font-size="24" font-weight="700" fill="#111">Fusion Tube Scaling: Edge Gap</text>
<text x="480.0" y="665" text-anchor="middle" font-family="Arial, sans-serif" font-size="18" fill="#111">Minor radius a (m)</text>
<text x="32" y="335.0" transform="rotate(-90 32 335.0)" text-anchor="middle" font-family="Arial, sans-serif" font-size="18" fill="#111">a - r_active (m)</text>
<line x1="110.00" y1="80" x2="110.00" y2="590" stroke="#e6e6e6" stroke-width="1"/>
<text x="110.00" y="618" text-anchor="middle" font-family="Arial, sans-serif" font-size="13" fill="#333">2</text>
<line x1="258.00" y1="80" x2="258.00" y2="590" stroke="#e6e6e6" stroke-width="1"/>
<text x="258.00" y="618" text-anchor="middle" font-family="Arial, sans-serif" font-size="13" fill="#333">11.6</text>
<line x1="406.00" y1="80" x2="406.00" y2="590" stroke="#e6e6e6" stroke-width="1"/>
<text x="406.00" y="618" text-anchor="middle" font-family="Arial, sans-serif" font-size="13" fill="#333">21.2</text>
<line x1="554.00" y1="80" x2="554.00" y2="590" stroke="#e6e6e6" stroke-width="1"/>
<text x="554.00" y="618" text-anchor="middle" font-family="Arial, sans-serif" font-size="13" fill="#333">30.8</text>
<line x1="702.00" y1="80" x2="702.00" y2="590" stroke="#e6e6e6" stroke-width="1"/>
<text x="702.00" y="618" text-anchor="middle" font-family="Arial, sans-serif" font-size="13" fill="#333">40.4</text>
<line x1="850.00" y1="80" x2="850.00" y2="590" stroke="#e6e6e6" stroke-width="1"/>
<text x="850.00" y="618" text-anchor="middle" font-family="Arial, sans-serif" font-size="13" fill="#333">50</text>
<line x1="110" y1="590.00" x2="850" y2="590.00" stroke="#e6e6e6" stroke-width="1"/>
<text x="98" y="594.00" text-anchor="end" font-family="Arial, sans-serif" font-size="13" fill="#333">1</text>
<line x1="110" y1="335.00" x2="850" y2="335.00" stroke="#e6e6e6" stroke-width="1"/>
<text x="98" y="339.00" text-anchor="end" font-family="Arial, sans-serif" font-size="13" fill="#333">10</text>
<line x1="110" y1="80.00" x2="850" y2="80.00" stroke="#e6e6e6" stroke-width="1"/>
<text x="98" y="84.00" text-anchor="end" font-family="Arial, sans-serif" font-size="13" fill="#333">100</text>
<rect x="110" y="80" width="740" height="510" fill="none" stroke="#111" stroke-width="1.4"/>
<polyline fill="none" stroke="#1f77b4" stroke-width="3" points="110.00,589.63 116.17,560.25 122.33,536.52 128.50,516.65 134.67,499.56 140.83,484.59 147.00,471.26 153.17,459.27 159.33,448.36 165.50,438.37 171.67,429.14 177.83,420.59 184.00,412.60 190.17,405.12 196.33,398.09 202.50,391.45 208.67,385.16 214.83,379.20 221.00,373.52 227.17,368.10 233.33,362.92 239.50,357.96 245.67,353.21 251.83,348.64 258.00,344.24 264.17,340.00 270.33,335.91 276.50,331.96 282.67,328.13 288.83,324.43 295.00,320.85 301.17,317.37 307.33,313.99 313.50,310.71 319.67,307.52 325.83,304.41 332.00,301.39 338.17,298.44 344.33,295.57 350.50,292.76 356.67,290.02 362.83,287.35 369.00,284.73 375.17,282.18 381.33,279.68 387.50,277.23 393.67,274.83 399.83,272.48 406.00,270.18 412.17,267.93 418.33,265.71 424.50,263.54 430.67,261.41 436.83,259.32 443.00,257.27 449.17,255.25 455.33,253.26 461.50,251.31 467.67,249.40 473.83,247.51 480.00,245.65 486.17,243.83 492.33,242.03 498.50,240.26 504.67,238.52 510.83,236.80 517.00,235.11 523.17,233.45 529.33,231.80 535.50,230.18 541.67,228.59 547.83,227.01 554.00,225.46 560.17,223.93 566.33,222.41 572.50,220.92 578.67,219.45 584.83,217.99 591.00,216.56 597.17,215.14 603.33,213.74 609.50,212.35 615.67,210.99 621.83,209.64 628.00,208.30 634.17,206.98 640.33,205.68 646.50,204.39 652.67,203.11 658.83,201.85 665.00,200.60 671.17,199.37 677.33,198.14 683.50,196.94 689.67,195.74 695.83,194.56 702.00,193.39 708.17,192.23 714.33,191.08 720.50,189.95 726.67,188.82 732.83,187.71 739.00,186.60 745.17,185.51 751.33,184.43 757.50,183.36 763.67,182.30 769.83,181.25 776.00,180.20 782.17,179.17 788.33,178.15 794.50,177.13 800.67,176.13 806.83,175.13 813.00,174.14 819.17,173.16 825.33,172.19 831.50,171.23 837.67,170.28 843.83,169.33 850.00,168.39"/>
<line x1="880" y1="100" x2="910" y2="100" stroke="#1f77b4" stroke-width="4"/>
<text x="920" y="105" font-family="Arial, sans-serif" font-size="15" fill="#111">Constant B</text>
<polyline fill="none" stroke="#2ca02c" stroke-width="3" points="110.00,578.59 116.17,558.39 122.33,541.32 128.50,526.54 134.67,513.49 140.83,501.82 147.00,491.27 153.17,481.63 159.33,472.77 165.50,464.56 171.67,456.92 177.83,449.77 184.00,443.06 190.17,436.73 196.33,430.74 202.50,425.06 208.67,419.66 214.83,414.51 221.00,409.58 227.17,404.87 233.33,400.35 239.50,396.01 245.67,391.83 251.83,387.80 258.00,383.91 264.17,380.16 270.33,376.53 276.50,373.01 282.67,369.60 288.83,366.30 295.00,363.09 301.17,359.97 307.33,356.93 313.50,353.98 319.67,351.10 325.83,348.30 332.00,345.56 338.17,342.89 344.33,340.29 350.50,337.74 356.67,335.25 362.83,332.82 369.00,330.44 375.17,328.11 381.33,325.82 387.50,323.59 393.67,321.39 399.83,319.24 406.00,317.13 412.17,315.06 418.33,313.03 424.50,311.04 430.67,309.08 436.83,307.15 443.00,305.26 449.17,303.39 455.33,301.56 461.50,299.76 467.67,297.99 473.83,296.25 480.00,294.53 486.17,292.84 492.33,291.17 498.50,289.53 504.67,287.92 510.83,286.32 517.00,284.75 523.17,283.20 529.33,281.68 535.50,280.17 541.67,278.68 547.83,277.22 554.00,275.77 560.17,274.34 566.33,272.93 572.50,271.54 578.67,270.16 584.83,268.80 591.00,267.46 597.17,266.13 603.33,264.82 609.50,263.53 615.67,262.25 621.83,260.98 628.00,259.73 634.17,258.49 640.33,257.27 646.50,256.06 652.67,254.86 658.83,253.68 665.00,252.50 671.17,251.34 677.33,250.20 683.50,249.06 689.67,247.94 695.83,246.82 702.00,245.72 708.17,244.63 714.33,243.55 720.50,242.48 726.67,241.42 732.83,240.37 739.00,239.33 745.17,238.30 751.33,237.28 757.50,236.27 763.67,235.27 769.83,234.27 776.00,233.29 782.17,232.31 788.33,231.35 794.50,230.39 800.67,229.44 806.83,228.49 813.00,227.56 819.17,226.63 825.33,225.71 831.50,224.80 837.67,223.90 843.83,223.00 850.00,222.11"/>
<line x1="880" y1="130" x2="910" y2="130" stroke="#2ca02c" stroke-width="4"/>
<text x="920" y="135" font-family="Arial, sans-serif" font-size="15" fill="#111">Middle ground</text>
<polyline fill="none" stroke="#d62728" stroke-width="3" points="110.00,567.68 116.17,556.32 122.33,547.26 128.50,539.78 134.67,533.45 140.83,527.99 147.00,523.21 153.17,518.96 159.33,515.15 165.50,511.70 171.67,508.55 177.83,505.66 184.00,502.99 190.17,500.52 196.33,498.21 202.50,496.05 208.67,494.01 214.83,492.10 221.00,490.29 227.17,488.57 233.33,486.94 239.50,485.39 245.67,483.91 251.83,482.49 258.00,481.14 264.17,479.84 270.33,478.59 276.50,477.39 282.67,476.23 288.83,475.11 295.00,474.03 301.17,472.99 307.33,471.98 313.50,471.01 319.67,470.06 325.83,469.14 332.00,468.25 338.17,467.38 344.33,466.54 350.50,465.72 356.67,464.92 362.83,464.14 369.00,463.38 375.17,462.64 381.33,461.92 387.50,461.21 393.67,460.52 399.83,459.84 406.00,459.18 412.17,458.54 418.33,457.91 424.50,457.29 430.67,456.68 436.83,456.09 443.00,455.50 449.17,454.93 455.33,454.37 461.50,453.82 467.67,453.28 473.83,452.75 480.00,452.22 486.17,451.71 492.33,451.21 498.50,450.71 504.67,450.22 510.83,449.74 517.00,449.27 523.17,448.81 529.33,448.35 535.50,447.90 541.67,447.46 547.83,447.02 554.00,446.59 560.17,446.16 566.33,445.75 572.50,445.33 578.67,444.93 584.83,444.53 591.00,444.13 597.17,443.74 603.33,443.35 609.50,442.97 615.67,442.60 621.83,442.23 628.00,441.86 634.17,441.50 640.33,441.14 646.50,440.79 652.67,440.44 658.83,440.10 665.00,439.76 671.17,439.42 677.33,439.09 683.50,438.76 689.67,438.43 695.83,438.11 702.00,437.79 708.17,437.48 714.33,437.17 720.50,436.86 726.67,436.55 732.83,436.25 739.00,435.95 745.17,435.66 751.33,435.37 757.50,435.08 763.67,434.79 769.83,434.51 776.00,434.22 782.17,433.95 788.33,433.67 794.50,433.40 800.67,433.13 806.83,432.86 813.00,432.59 819.17,432.33 825.33,432.07 831.50,431.81 837.67,431.55 843.83,431.30 850.00,431.05"/>
<line x1="880" y1="160" x2="910" y2="160" stroke="#d62728" stroke-width="4"/>
<text x="920" y="165" font-family="Arial, sans-serif" font-size="15" fill="#111">Edge-gap constrained</text>
</svg>