<svg xmlns="http://www.w3.org/2000/svg" width="1100" height="700" viewBox="0 0 1100 700">
<rect width="100%" height="100%" fill="#ffffff"/>
<text x="110" y="40" font-family="Arial, sans-serif" font-size="24" font-weight="700" fill="#111">Fusion-Fill Closure: Edge-Gap Orbit Ratio</text>
<text x="480.0" y="665" text-anchor="middle" font-family="Arial, sans-serif" font-size="18" fill="#111">Minor radius a (m)</text>
<text x="32" y="335.0" transform="rotate(-90 32 335.0)" text-anchor="middle" font-family="Arial, sans-serif" font-size="18" fill="#111">rho / (a - r_active)</text>
<line x1="110.00" y1="80" x2="110.00" y2="590" stroke="#e6e6e6" stroke-width="1"/>
<text x="110.00" y="618" text-anchor="middle" font-family="Arial, sans-serif" font-size="13" fill="#333">2</text>
<line x1="258.00" y1="80" x2="258.00" y2="590" stroke="#e6e6e6" stroke-width="1"/>
<text x="258.00" y="618" text-anchor="middle" font-family="Arial, sans-serif" font-size="13" fill="#333">11.6</text>
<line x1="406.00" y1="80" x2="406.00" y2="590" stroke="#e6e6e6" stroke-width="1"/>
<text x="406.00" y="618" text-anchor="middle" font-family="Arial, sans-serif" font-size="13" fill="#333">21.2</text>
<line x1="554.00" y1="80" x2="554.00" y2="590" stroke="#e6e6e6" stroke-width="1"/>
<text x="554.00" y="618" text-anchor="middle" font-family="Arial, sans-serif" font-size="13" fill="#333">30.8</text>
<line x1="702.00" y1="80" x2="702.00" y2="590" stroke="#e6e6e6" stroke-width="1"/>
<text x="702.00" y="618" text-anchor="middle" font-family="Arial, sans-serif" font-size="13" fill="#333">40.4</text>
<line x1="850.00" y1="80" x2="850.00" y2="590" stroke="#e6e6e6" stroke-width="1"/>
<text x="850.00" y="618" text-anchor="middle" font-family="Arial, sans-serif" font-size="13" fill="#333">50</text>
<line x1="110" y1="590.00" x2="850" y2="590.00" stroke="#e6e6e6" stroke-width="1"/>
<text x="98" y="594.00" text-anchor="end" font-family="Arial, sans-serif" font-size="13" fill="#333">1.0e-04</text>
<line x1="110" y1="335.00" x2="850" y2="335.00" stroke="#e6e6e6" stroke-width="1"/>
<text x="98" y="339.00" text-anchor="end" font-family="Arial, sans-serif" font-size="13" fill="#333">1.0e-03</text>
<line x1="110" y1="80.00" x2="850" y2="80.00" stroke="#e6e6e6" stroke-width="1"/>
<text x="98" y="84.00" text-anchor="end" font-family="Arial, sans-serif" font-size="13" fill="#333">0.01</text>
<rect x="110" y="80" width="740" height="510" fill="none" stroke="#111" stroke-width="1.4"/>
<polyline fill="none" stroke="#1f77b4" stroke-width="3" points="110.00,113.31 116.17,152.41 122.33,182.22 128.50,206.31 134.67,226.50 140.83,243.88 147.00,259.13 153.17,272.69 159.33,284.92 165.50,296.03 171.67,306.22 177.83,315.62 184.00,324.35 190.17,332.49 196.33,340.12 202.50,347.30 208.67,354.07 214.83,360.48 221.00,366.57 227.17,372.37 233.33,377.89 239.50,383.17 245.67,388.23 251.83,393.08 258.00,397.74 264.17,402.23 270.33,406.55 276.50,410.72 282.67,414.75 288.83,418.65 295.00,422.42 301.17,426.08 307.33,429.62 313.50,433.06 319.67,436.41 325.83,439.66 332.00,442.83 338.17,445.91 344.33,448.91 350.50,451.84 356.67,454.70 362.83,457.49 369.00,460.21 375.17,462.87 381.33,465.47 387.50,468.02 393.67,470.51 399.83,472.95 406.00,475.34 412.17,477.69 418.33,479.98 424.50,482.23 430.67,484.44 436.83,486.61 443.00,488.74 449.17,490.83 455.33,492.88 461.50,494.90 467.67,496.88 473.83,498.83 480.00,500.75 486.17,502.64 492.33,504.50 498.50,506.32 504.67,508.12 510.83,509.89 517.00,511.64 523.17,513.36 529.33,515.05 535.50,516.72 541.67,518.37 547.83,519.99 554.00,521.59 560.17,523.17 566.33,524.73 572.50,526.26 578.67,527.78 584.83,529.28 591.00,530.75 597.17,532.21 603.33,533.65 609.50,535.08 615.67,536.48 621.83,537.87 628.00,539.24 634.17,540.60 640.33,541.94 646.50,543.26 652.67,544.57 658.83,545.87 665.00,547.15 671.17,548.42 677.33,549.67 683.50,550.91 689.67,552.13 695.83,553.35 702.00,554.55 708.17,555.74 714.33,556.91 720.50,558.08 726.67,559.23 732.83,560.37 739.00,561.50 745.17,562.62 751.33,563.73 757.50,564.83 763.67,565.91 769.83,566.99 776.00,568.06 782.17,569.11 788.33,570.16 794.50,571.20 800.67,572.23 806.83,573.25 813.00,574.26 819.17,575.26 825.33,576.25 831.50,577.24 837.67,578.21 843.83,579.18 850.00,580.14"/>
<line x1="880" y1="100" x2="910" y2="100" stroke="#1f77b4" stroke-width="4"/>
<text x="920" y="105" font-family="Arial, sans-serif" font-size="15" fill="#111">Constant B</text>
<polyline fill="none" stroke="#2ca02c" stroke-width="3" points="110.00,113.31 116.17,128.46 122.33,141.26 128.50,152.35 134.67,162.13 140.83,170.89 147.00,178.80 153.17,186.03 159.33,192.68 165.50,198.83 171.67,204.56 177.83,209.92 184.00,214.96 190.17,219.71 196.33,224.20 202.50,228.46 208.67,232.51 214.83,236.37 221.00,240.07 227.17,243.60 233.33,246.99 239.50,250.25 245.67,253.38 251.83,256.40 258.00,259.32 264.17,262.14 270.33,264.86 276.50,267.50 282.67,270.05 288.83,272.53 295.00,274.94 301.17,277.28 307.33,279.55 313.50,281.77 319.67,283.93 325.83,286.03 332.00,288.08 338.17,290.08 344.33,292.04 350.50,293.95 356.67,295.81 362.83,297.64 369.00,299.42 375.17,301.17 381.33,302.89 387.50,304.56 393.67,306.21 399.83,307.82 406.00,309.40 412.17,310.96 418.33,312.48 424.50,313.98 430.67,315.45 436.83,316.89 443.00,318.31 449.17,319.71 455.33,321.08 461.50,322.43 467.67,323.76 473.83,325.07 480.00,326.36 486.17,327.62 492.33,328.87 498.50,330.10 504.67,331.32 510.83,332.51 517.00,333.69 523.17,334.85 529.33,336.00 535.50,337.13 541.67,338.24 547.83,339.34 554.00,340.43 560.17,341.50 566.33,342.56 572.50,343.60 578.67,344.63 584.83,345.65 591.00,346.66 597.17,347.65 603.33,348.64 609.50,349.61 615.67,350.57 621.83,351.52 628.00,352.46 634.17,353.38 640.33,354.30 646.50,355.21 652.67,356.11 658.83,357.00 665.00,357.88 671.17,358.75 677.33,359.61 683.50,360.46 689.67,361.30 695.83,362.14 702.00,362.96 708.17,363.78 714.33,364.59 720.50,365.39 726.67,366.19 732.83,366.98 739.00,367.76 745.17,368.53 751.33,369.29 757.50,370.05 763.67,370.80 769.83,371.55 776.00,372.29 782.17,373.02 788.33,373.74 794.50,374.46 800.67,375.18 806.83,375.88 813.00,376.58 819.17,377.28 825.33,377.97 831.50,378.65 837.67,379.33 843.83,380.00 850.00,380.67"/>
<line x1="880" y1="130" x2="910" y2="130" stroke="#2ca02c" stroke-width="4"/>
<text x="920" y="135" font-family="Arial, sans-serif" font-size="15" fill="#111">Middle ground</text>
<polyline fill="none" stroke="#d62728" stroke-width="3" points="110.00,113.31 116.17,113.31 122.33,113.31 128.50,113.31 134.67,113.31 140.83,113.31 147.00,113.31 153.17,113.31 159.33,113.31 165.50,113.31 171.67,113.31 177.83,113.31 184.00,113.31 190.17,113.31 196.33,113.31 202.50,113.31 208.67,113.31 214.83,113.31 221.00,113.31 227.17,113.31 233.33,113.31 239.50,113.31 245.67,113.31 251.83,113.31 258.00,113.31 264.17,113.31 270.33,113.31 276.50,113.31 282.67,113.31 288.83,113.31 295.00,113.31 301.17,113.31 307.33,113.31 313.50,113.31 319.67,113.31 325.83,113.31 332.00,113.31 338.17,113.31 344.33,113.31 350.50,113.31 356.67,113.31 362.83,113.31 369.00,113.31 375.17,113.31 381.33,113.31 387.50,113.31 393.67,113.31 399.83,113.31 406.00,113.31 412.17,113.31 418.33,113.31 424.50,113.31 430.67,113.31 436.83,113.31 443.00,113.31 449.17,113.31 455.33,113.31 461.50,113.31 467.67,113.31 473.83,113.31 480.00,113.31 486.17,113.31 492.33,113.31 498.50,113.31 504.67,113.31 510.83,113.31 517.00,113.31 523.17,113.31 529.33,113.31 535.50,113.31 541.67,113.31 547.83,113.31 554.00,113.31 560.17,113.31 566.33,113.31 572.50,113.31 578.67,113.31 584.83,113.31 591.00,113.31 597.17,113.31 603.33,113.31 609.50,113.31 615.67,113.31 621.83,113.31 628.00,113.31 634.17,113.31 640.33,113.31 646.50,113.31 652.67,113.31 658.83,113.31 665.00,113.31 671.17,113.31 677.33,113.31 683.50,113.31 689.67,113.31 695.83,113.31 702.00,113.31 708.17,113.31 714.33,113.31 720.50,113.31 726.67,113.31 732.83,113.31 739.00,113.31 745.17,113.31 751.33,113.31 757.50,113.31 763.67,113.31 769.83,113.31 776.00,113.31 782.17,113.31 788.33,113.31 794.50,113.31 800.67,113.31 806.83,113.31 813.00,113.31 819.17,113.31 825.33,113.31 831.50,113.31 837.67,113.31 843.83,113.31 850.00,113.31"/>
<line x1="880" y1="160" x2="910" y2="160" stroke="#d62728" stroke-width="4"/>
<text x="920" y="165" font-family="Arial, sans-serif" font-size="15" fill="#111">Edge-gap constrained</text>
</svg>