<svg xmlns="http://www.w3.org/2000/svg" width="1100" height="700" viewBox="0 0 1100 700">
<rect width="100%" height="100%" fill="#ffffff"/>
<text x="110" y="40" font-family="Arial, sans-serif" font-size="24" font-weight="700" fill="#111">Fusion Tube Scaling: Edge-Gap Orbit Ratio</text>
<text x="480.0" y="665" text-anchor="middle" font-family="Arial, sans-serif" font-size="18" fill="#111">Minor radius a (m)</text>
<text x="32" y="335.0" transform="rotate(-90 32 335.0)" text-anchor="middle" font-family="Arial, sans-serif" font-size="18" fill="#111">rho / (a - r_active)</text>
<line x1="110.00" y1="80" x2="110.00" y2="590" stroke="#e6e6e6" stroke-width="1"/>
<text x="110.00" y="618" text-anchor="middle" font-family="Arial, sans-serif" font-size="13" fill="#333">2</text>
<line x1="258.00" y1="80" x2="258.00" y2="590" stroke="#e6e6e6" stroke-width="1"/>
<text x="258.00" y="618" text-anchor="middle" font-family="Arial, sans-serif" font-size="13" fill="#333">11.6</text>
<line x1="406.00" y1="80" x2="406.00" y2="590" stroke="#e6e6e6" stroke-width="1"/>
<text x="406.00" y="618" text-anchor="middle" font-family="Arial, sans-serif" font-size="13" fill="#333">21.2</text>
<line x1="554.00" y1="80" x2="554.00" y2="590" stroke="#e6e6e6" stroke-width="1"/>
<text x="554.00" y="618" text-anchor="middle" font-family="Arial, sans-serif" font-size="13" fill="#333">30.8</text>
<line x1="702.00" y1="80" x2="702.00" y2="590" stroke="#e6e6e6" stroke-width="1"/>
<text x="702.00" y="618" text-anchor="middle" font-family="Arial, sans-serif" font-size="13" fill="#333">40.4</text>
<line x1="850.00" y1="80" x2="850.00" y2="590" stroke="#e6e6e6" stroke-width="1"/>
<text x="850.00" y="618" text-anchor="middle" font-family="Arial, sans-serif" font-size="13" fill="#333">50</text>
<line x1="110" y1="590.00" x2="850" y2="590.00" stroke="#e6e6e6" stroke-width="1"/>
<text x="98" y="594.00" text-anchor="end" font-family="Arial, sans-serif" font-size="13" fill="#333">1.0e-05</text>
<line x1="110" y1="420.00" x2="850" y2="420.00" stroke="#e6e6e6" stroke-width="1"/>
<text x="98" y="424.00" text-anchor="end" font-family="Arial, sans-serif" font-size="13" fill="#333">1.0e-04</text>
<line x1="110" y1="250.00" x2="850" y2="250.00" stroke="#e6e6e6" stroke-width="1"/>
<text x="98" y="254.00" text-anchor="end" font-family="Arial, sans-serif" font-size="13" fill="#333">1.0e-03</text>
<line x1="110" y1="80.00" x2="850" y2="80.00" stroke="#e6e6e6" stroke-width="1"/>
<text x="98" y="84.00" text-anchor="end" font-family="Arial, sans-serif" font-size="13" fill="#333">0.01</text>
<rect x="110" y="80" width="740" height="510" fill="none" stroke="#111" stroke-width="1.4"/>
<polyline fill="none" stroke="#1f77b4" stroke-width="3" points="110.00,143.08 116.17,162.67 122.33,178.48 128.50,191.73 134.67,203.12 140.83,213.11 147.00,221.99 153.17,229.99 159.33,237.26 165.50,243.92 171.67,250.07 177.83,255.77 184.00,261.10 190.17,266.08 196.33,270.77 202.50,275.20 208.67,279.39 214.83,283.37 221.00,287.15 227.17,290.76 233.33,294.21 239.50,297.52 245.67,300.69 251.83,303.74 258.00,306.67 264.17,309.50 270.33,312.22 276.50,314.86 282.67,317.41 288.83,319.87 295.00,322.26 301.17,324.58 307.33,326.83 313.50,329.02 319.67,331.15 325.83,333.22 332.00,335.24 338.17,337.20 344.33,339.12 350.50,340.99 356.67,342.81 362.83,344.60 369.00,346.34 375.17,348.04 381.33,349.71 387.50,351.34 393.67,352.94 399.83,354.51 406.00,356.04 412.17,357.55 418.33,359.02 424.50,360.47 430.67,361.89 436.83,363.28 443.00,364.65 449.17,366.00 455.33,367.32 461.50,368.62 467.67,369.90 473.83,371.16 480.00,372.39 486.17,373.61 492.33,374.81 498.50,375.99 504.67,377.15 510.83,378.29 517.00,379.42 523.17,380.53 529.33,381.63 535.50,382.71 541.67,383.77 547.83,384.82 554.00,385.86 560.17,386.88 566.33,387.89 572.50,388.88 578.67,389.86 584.83,390.83 591.00,391.79 597.17,392.74 603.33,393.67 609.50,394.59 615.67,395.51 621.83,396.41 628.00,397.30 634.17,398.18 640.33,399.05 646.50,399.91 652.67,400.76 658.83,401.60 665.00,402.43 671.17,403.25 677.33,404.07 683.50,404.87 689.67,405.67 695.83,406.46 702.00,407.24 708.17,408.01 714.33,408.78 720.50,409.53 726.67,410.28 732.83,411.02 739.00,411.76 745.17,412.49 751.33,413.21 757.50,413.92 763.67,414.63 769.83,415.33 776.00,416.03 782.17,416.72 788.33,417.40 794.50,418.07 800.67,418.74 806.83,419.41 813.00,420.07 819.17,420.72 825.33,421.37 831.50,422.01 837.67,422.65 843.83,423.28 850.00,423.90"/>
<line x1="880" y1="100" x2="910" y2="100" stroke="#1f77b4" stroke-width="4"/>
<text x="920" y="105" font-family="Arial, sans-serif" font-size="15" fill="#111">Constant B</text>
<polyline fill="none" stroke="#2ca02c" stroke-width="3" points="110.00,154.56 116.17,164.65 122.33,173.19 128.50,180.58 134.67,187.10 140.83,192.94 147.00,198.22 153.17,203.03 159.33,207.47 165.50,211.57 171.67,215.39 177.83,218.96 184.00,222.32 190.17,225.49 196.33,228.48 202.50,231.32 208.67,234.02 214.83,236.60 221.00,239.06 227.17,241.42 233.33,243.68 239.50,245.85 245.67,247.94 251.83,249.95 258.00,251.89 264.17,253.77 270.33,255.59 276.50,257.35 282.67,259.05 288.83,260.70 295.00,262.31 301.17,263.87 307.33,265.38 313.50,266.86 319.67,268.30 325.83,269.70 332.00,271.07 338.17,272.40 344.33,273.71 350.50,274.98 356.67,276.22 362.83,277.44 369.00,278.63 375.17,279.80 381.33,280.94 387.50,282.06 393.67,283.15 399.83,284.23 406.00,285.28 412.17,286.32 418.33,287.34 424.50,288.33 430.67,289.31 436.83,290.28 443.00,291.22 449.17,292.15 455.33,293.07 461.50,293.97 467.67,294.85 473.83,295.73 480.00,296.59 486.17,297.43 492.33,298.26 498.50,299.08 504.67,299.89 510.83,300.69 517.00,301.47 523.17,302.25 529.33,303.01 535.50,303.77 541.67,304.51 547.83,305.24 554.00,305.97 560.17,306.68 566.33,307.39 572.50,308.08 578.67,308.77 584.83,309.45 591.00,310.12 597.17,310.78 603.33,311.44 609.50,312.09 615.67,312.73 621.83,313.36 628.00,313.99 634.17,314.60 640.33,315.22 646.50,315.82 652.67,316.42 658.83,317.01 665.00,317.60 671.17,318.18 677.33,318.75 683.50,319.32 689.67,319.88 695.83,320.44 702.00,320.99 708.17,321.54 714.33,322.08 720.50,322.61 726.67,323.14 732.83,323.67 739.00,324.19 745.17,324.70 751.33,325.21 757.50,325.72 763.67,326.22 769.83,326.71 776.00,327.21 782.17,327.69 788.33,328.18 794.50,328.66 800.67,329.13 806.83,329.60 813.00,330.07 819.17,330.53 825.33,330.99 831.50,331.45 837.67,331.90 843.83,332.35 850.00,332.79"/>
<line x1="880" y1="130" x2="910" y2="130" stroke="#2ca02c" stroke-width="4"/>
<text x="920" y="135" font-family="Arial, sans-serif" font-size="15" fill="#111">Middle ground</text>
<polyline fill="none" stroke="#d62728" stroke-width="3" points="110.00,166.91 116.17,166.91 122.33,166.91 128.50,166.91 134.67,166.91 140.83,166.91 147.00,166.91 153.17,166.91 159.33,166.91 165.50,166.91 171.67,166.91 177.83,166.91 184.00,166.91 190.17,166.91 196.33,166.91 202.50,166.91 208.67,166.91 214.83,166.91 221.00,166.91 227.17,166.91 233.33,166.91 239.50,166.91 245.67,166.91 251.83,166.91 258.00,166.91 264.17,166.91 270.33,166.91 276.50,166.91 282.67,166.91 288.83,166.91 295.00,166.91 301.17,166.91 307.33,166.91 313.50,166.91 319.67,166.91 325.83,166.91 332.00,166.91 338.17,166.91 344.33,166.91 350.50,166.91 356.67,166.91 362.83,166.91 369.00,166.91 375.17,166.91 381.33,166.91 387.50,166.91 393.67,166.91 399.83,166.91 406.00,166.91 412.17,166.91 418.33,166.91 424.50,166.91 430.67,166.91 436.83,166.91 443.00,166.91 449.17,166.91 455.33,166.91 461.50,166.91 467.67,166.91 473.83,166.91 480.00,166.91 486.17,166.91 492.33,166.91 498.50,166.91 504.67,166.91 510.83,166.91 517.00,166.91 523.17,166.91 529.33,166.91 535.50,166.91 541.67,166.91 547.83,166.91 554.00,166.91 560.17,166.91 566.33,166.91 572.50,166.91 578.67,166.91 584.83,166.91 591.00,166.91 597.17,166.91 603.33,166.91 609.50,166.91 615.67,166.91 621.83,166.91 628.00,166.91 634.17,166.91 640.33,166.91 646.50,166.91 652.67,166.91 658.83,166.91 665.00,166.91 671.17,166.91 677.33,166.91 683.50,166.91 689.67,166.91 695.83,166.91 702.00,166.91 708.17,166.91 714.33,166.91 720.50,166.91 726.67,166.91 732.83,166.91 739.00,166.91 745.17,166.91 751.33,166.91 757.50,166.91 763.67,166.91 769.83,166.91 776.00,166.91 782.17,166.91 788.33,166.91 794.50,166.91 800.67,166.91 806.83,166.91 813.00,166.91 819.17,166.91 825.33,166.91 831.50,166.91 837.67,166.91 843.83,166.91 850.00,166.91"/>
<line x1="880" y1="160" x2="910" y2="160" stroke="#d62728" stroke-width="4"/>
<text x="920" y="165" font-family="Arial, sans-serif" font-size="15" fill="#111">Edge-gap constrained</text>
</svg>