<svg xmlns="http://www.w3.org/2000/svg" width="1100" height="700" viewBox="0 0 1100 700">
<rect width="100%" height="100%" fill="#ffffff"/>
<text x="110" y="40" font-family="Arial, sans-serif" font-size="24" font-weight="700" fill="#111">Fusion-Fill Closure: Estimated Magnet Mass Intensity</text>
<text x="480.0" y="665" text-anchor="middle" font-family="Arial, sans-serif" font-size="18" fill="#111">Minor radius a (m)</text>
<text x="32" y="335.0" transform="rotate(-90 32 335.0)" text-anchor="middle" font-family="Arial, sans-serif" font-size="18" fill="#111">kg/kW</text>
<line x1="110.00" y1="80" x2="110.00" y2="590" stroke="#e6e6e6" stroke-width="1"/>
<text x="110.00" y="618" text-anchor="middle" font-family="Arial, sans-serif" font-size="13" fill="#333">2</text>
<line x1="258.00" y1="80" x2="258.00" y2="590" stroke="#e6e6e6" stroke-width="1"/>
<text x="258.00" y="618" text-anchor="middle" font-family="Arial, sans-serif" font-size="13" fill="#333">11.6</text>
<line x1="406.00" y1="80" x2="406.00" y2="590" stroke="#e6e6e6" stroke-width="1"/>
<text x="406.00" y="618" text-anchor="middle" font-family="Arial, sans-serif" font-size="13" fill="#333">21.2</text>
<line x1="554.00" y1="80" x2="554.00" y2="590" stroke="#e6e6e6" stroke-width="1"/>
<text x="554.00" y="618" text-anchor="middle" font-family="Arial, sans-serif" font-size="13" fill="#333">30.8</text>
<line x1="702.00" y1="80" x2="702.00" y2="590" stroke="#e6e6e6" stroke-width="1"/>
<text x="702.00" y="618" text-anchor="middle" font-family="Arial, sans-serif" font-size="13" fill="#333">40.4</text>
<line x1="850.00" y1="80" x2="850.00" y2="590" stroke="#e6e6e6" stroke-width="1"/>
<text x="850.00" y="618" text-anchor="middle" font-family="Arial, sans-serif" font-size="13" fill="#333">50</text>
<line x1="110" y1="590.00" x2="850" y2="590.00" stroke="#e6e6e6" stroke-width="1"/>
<text x="98" y="594.00" text-anchor="end" font-family="Arial, sans-serif" font-size="13" fill="#333">0.36</text>
<line x1="110" y1="488.00" x2="850" y2="488.00" stroke="#e6e6e6" stroke-width="1"/>
<text x="98" y="492.00" text-anchor="end" font-family="Arial, sans-serif" font-size="13" fill="#333">1.36</text>
<line x1="110" y1="386.00" x2="850" y2="386.00" stroke="#e6e6e6" stroke-width="1"/>
<text x="98" y="390.00" text-anchor="end" font-family="Arial, sans-serif" font-size="13" fill="#333">2.35</text>
<line x1="110" y1="284.00" x2="850" y2="284.00" stroke="#e6e6e6" stroke-width="1"/>
<text x="98" y="288.00" text-anchor="end" font-family="Arial, sans-serif" font-size="13" fill="#333">3.35</text>
<line x1="110" y1="182.00" x2="850" y2="182.00" stroke="#e6e6e6" stroke-width="1"/>
<text x="98" y="186.00" text-anchor="end" font-family="Arial, sans-serif" font-size="13" fill="#333">4.35</text>
<line x1="110" y1="80.00" x2="850" y2="80.00" stroke="#e6e6e6" stroke-width="1"/>
<text x="98" y="84.00" text-anchor="end" font-family="Arial, sans-serif" font-size="13" fill="#333">5.34</text>
<rect x="110" y="80" width="740" height="510" fill="none" stroke="#111" stroke-width="1.4"/>
<polyline fill="none" stroke="#1f77b4" stroke-width="3" points="110.00,115.17 116.17,115.17 122.33,115.17 128.50,115.17 134.67,115.17 140.83,115.17 147.00,115.17 153.17,115.17 159.33,115.17 165.50,115.17 171.67,115.17 177.83,115.17 184.00,115.17 190.17,115.17 196.33,115.17 202.50,115.17 208.67,115.17 214.83,115.17 221.00,115.17 227.17,115.17 233.33,115.17 239.50,115.17 245.67,115.17 251.83,115.17 258.00,115.17 264.17,115.17 270.33,115.17 276.50,115.17 282.67,115.17 288.83,115.17 295.00,115.17 301.17,115.17 307.33,115.17 313.50,115.17 319.67,115.17 325.83,115.17 332.00,115.17 338.17,115.17 344.33,115.17 350.50,115.17 356.67,115.17 362.83,115.17 369.00,115.17 375.17,115.17 381.33,115.17 387.50,115.17 393.67,115.17 399.83,115.17 406.00,115.17 412.17,115.17 418.33,115.17 424.50,115.17 430.67,115.17 436.83,115.17 443.00,115.17 449.17,115.17 455.33,115.17 461.50,115.17 467.67,115.17 473.83,115.17 480.00,115.17 486.17,115.17 492.33,115.17 498.50,115.17 504.67,115.17 510.83,115.17 517.00,115.17 523.17,115.17 529.33,115.17 535.50,115.17 541.67,115.17 547.83,115.17 554.00,115.17 560.17,115.17 566.33,115.17 572.50,115.17 578.67,115.17 584.83,115.17 591.00,115.17 597.17,115.17 603.33,115.17 609.50,115.17 615.67,115.17 621.83,115.17 628.00,115.17 634.17,115.17 640.33,115.17 646.50,115.17 652.67,115.17 658.83,115.17 665.00,115.17 671.17,115.17 677.33,115.17 683.50,115.17 689.67,115.17 695.83,115.17 702.00,115.17 708.17,115.17 714.33,115.17 720.50,115.17 726.67,115.17 732.83,115.17 739.00,115.17 745.17,115.17 751.33,115.17 757.50,115.17 763.67,115.17 769.83,115.17 776.00,115.17 782.17,115.17 788.33,115.17 794.50,115.17 800.67,115.17 806.83,115.17 813.00,115.17 819.17,115.17 825.33,115.17 831.50,115.17 837.67,115.17 843.83,115.17 850.00,115.17"/>
<line x1="880" y1="100" x2="910" y2="100" stroke="#1f77b4" stroke-width="4"/>
<text x="920" y="105" font-family="Arial, sans-serif" font-size="15" fill="#111">Constant B</text>
<polyline fill="none" stroke="#2ca02c" stroke-width="3" points="110.00,115.17 116.17,159.77 122.33,194.43 128.50,222.36 134.67,245.51 140.83,265.08 147.00,281.93 153.17,296.62 159.33,309.58 165.50,321.12 171.67,331.50 177.83,340.88 184.00,349.42 190.17,357.24 196.33,364.44 202.50,371.09 208.67,377.25 214.83,383.00 221.00,388.36 227.17,393.38 233.33,398.10 239.50,402.55 245.67,406.75 251.83,410.71 258.00,414.48 264.17,418.05 270.33,421.45 276.50,424.68 282.67,427.77 288.83,430.72 295.00,433.55 301.17,436.25 307.33,438.85 313.50,441.34 319.67,443.74 325.83,446.04 332.00,448.26 338.17,450.40 344.33,452.47 350.50,454.46 356.67,456.39 362.83,458.26 369.00,460.06 375.17,461.81 381.33,463.50 387.50,465.15 393.67,466.74 399.83,468.29 406.00,469.79 412.17,471.26 418.33,472.68 424.50,474.06 430.67,475.41 436.83,476.72 443.00,478.00 449.17,479.25 455.33,480.46 461.50,481.65 467.67,482.81 473.83,483.94 480.00,485.05 486.17,486.12 492.33,487.18 498.50,488.21 504.67,489.22 510.83,490.21 517.00,491.18 523.17,492.12 529.33,493.05 535.50,493.96 541.67,494.85 547.83,495.72 554.00,496.58 560.17,497.41 566.33,498.24 572.50,499.04 578.67,499.84 584.83,500.61 591.00,501.38 597.17,502.13 603.33,502.86 609.50,503.59 615.67,504.30 621.83,505.00 628.00,505.69 634.17,506.36 640.33,507.03 646.50,507.68 652.67,508.32 658.83,508.96 665.00,509.58 671.17,510.19 677.33,510.80 683.50,511.39 689.67,511.98 695.83,512.55 702.00,513.12 708.17,513.68 714.33,514.23 720.50,514.78 726.67,515.31 732.83,515.84 739.00,516.36 745.17,516.87 751.33,517.38 757.50,517.88 763.67,518.37 769.83,518.86 776.00,519.34 782.17,519.81 788.33,520.28 794.50,520.74 800.67,521.19 806.83,521.64 813.00,522.09 819.17,522.52 825.33,522.96 831.50,523.38 837.67,523.81 843.83,524.22 850.00,524.64"/>
<line x1="880" y1="130" x2="910" y2="130" stroke="#2ca02c" stroke-width="4"/>
<text x="920" y="135" font-family="Arial, sans-serif" font-size="15" fill="#111">Middle ground</text>
<polyline fill="none" stroke="#d62728" stroke-width="3" points="110.00,115.17 116.17,181.93 122.33,229.65 128.50,265.69 134.67,294.03 140.83,316.98 147.00,336.03 153.17,352.14 159.33,365.97 165.50,378.01 171.67,388.60 177.83,398.01 184.00,406.43 190.17,414.02 196.33,420.91 202.50,427.20 208.67,432.97 214.83,438.28 221.00,443.20 227.17,447.76 233.33,452.01 239.50,455.98 245.67,459.70 251.83,463.20 258.00,466.49 264.17,469.60 270.33,472.53 276.50,475.32 282.67,477.96 288.83,480.47 295.00,482.87 301.17,485.15 307.33,487.33 313.50,489.41 319.67,491.41 325.83,493.32 332.00,495.16 338.17,496.92 344.33,498.62 350.50,500.26 356.67,501.83 362.83,503.35 369.00,504.81 375.17,506.23 381.33,507.60 387.50,508.92 393.67,510.20 399.83,511.44 406.00,512.65 412.17,513.82 418.33,514.95 424.50,516.05 430.67,517.12 436.83,518.16 443.00,519.17 449.17,520.15 455.33,521.11 461.50,522.04 467.67,522.95 473.83,523.84 480.00,524.70 486.17,525.54 492.33,526.37 498.50,527.17 504.67,527.96 510.83,528.72 517.00,529.47 523.17,530.21 529.33,530.92 535.50,531.62 541.67,532.31 547.83,532.98 554.00,533.64 560.17,534.29 566.33,534.92 572.50,535.54 578.67,536.14 584.83,536.74 591.00,537.32 597.17,537.90 603.33,538.46 609.50,539.01 615.67,539.55 621.83,540.08 628.00,540.61 634.17,541.12 640.33,541.62 646.50,542.12 652.67,542.61 658.83,543.08 665.00,543.56 671.17,544.02 677.33,544.48 683.50,544.92 689.67,545.36 695.83,545.80 702.00,546.23 708.17,546.65 714.33,547.06 720.50,547.47 726.67,547.87 732.83,548.27 739.00,548.66 745.17,549.04 751.33,549.42 757.50,549.80 763.67,550.16 769.83,550.53 776.00,550.89 782.17,551.24 788.33,551.59 794.50,551.93 800.67,552.27 806.83,552.60 813.00,552.93 819.17,553.26 825.33,553.58 831.50,553.90 837.67,554.21 843.83,554.52 850.00,554.83"/>
<line x1="880" y1="160" x2="910" y2="160" stroke="#d62728" stroke-width="4"/>
<text x="920" y="165" font-family="Arial, sans-serif" font-size="15" fill="#111">Edge-gap constrained</text>
</svg>