<svg xmlns="http://www.w3.org/2000/svg" width="1100" height="700" viewBox="0 0 1100 700">
<rect width="100%" height="100%" fill="#ffffff"/>
<text x="110" y="40" font-family="Arial, sans-serif" font-size="24" font-weight="700" fill="#111">Fusion Tube Scaling: Estimated Magnet Mass Intensity</text>
<text x="480.0" y="665" text-anchor="middle" font-family="Arial, sans-serif" font-size="18" fill="#111">Minor radius a (m)</text>
<text x="32" y="335.0" transform="rotate(-90 32 335.0)" text-anchor="middle" font-family="Arial, sans-serif" font-size="18" fill="#111">kg/kW</text>
<line x1="110.00" y1="80" x2="110.00" y2="590" stroke="#e6e6e6" stroke-width="1"/>
<text x="110.00" y="618" text-anchor="middle" font-family="Arial, sans-serif" font-size="13" fill="#333">2</text>
<line x1="258.00" y1="80" x2="258.00" y2="590" stroke="#e6e6e6" stroke-width="1"/>
<text x="258.00" y="618" text-anchor="middle" font-family="Arial, sans-serif" font-size="13" fill="#333">11.6</text>
<line x1="406.00" y1="80" x2="406.00" y2="590" stroke="#e6e6e6" stroke-width="1"/>
<text x="406.00" y="618" text-anchor="middle" font-family="Arial, sans-serif" font-size="13" fill="#333">21.2</text>
<line x1="554.00" y1="80" x2="554.00" y2="590" stroke="#e6e6e6" stroke-width="1"/>
<text x="554.00" y="618" text-anchor="middle" font-family="Arial, sans-serif" font-size="13" fill="#333">30.8</text>
<line x1="702.00" y1="80" x2="702.00" y2="590" stroke="#e6e6e6" stroke-width="1"/>
<text x="702.00" y="618" text-anchor="middle" font-family="Arial, sans-serif" font-size="13" fill="#333">40.4</text>
<line x1="850.00" y1="80" x2="850.00" y2="590" stroke="#e6e6e6" stroke-width="1"/>
<text x="850.00" y="618" text-anchor="middle" font-family="Arial, sans-serif" font-size="13" fill="#333">50</text>
<line x1="110" y1="590.00" x2="850" y2="590.00" stroke="#e6e6e6" stroke-width="1"/>
<text x="98" y="594.00" text-anchor="end" font-family="Arial, sans-serif" font-size="13" fill="#333">0.07</text>
<line x1="110" y1="488.00" x2="850" y2="488.00" stroke="#e6e6e6" stroke-width="1"/>
<text x="98" y="492.00" text-anchor="end" font-family="Arial, sans-serif" font-size="13" fill="#333">1.44</text>
<line x1="110" y1="386.00" x2="850" y2="386.00" stroke="#e6e6e6" stroke-width="1"/>
<text x="98" y="390.00" text-anchor="end" font-family="Arial, sans-serif" font-size="13" fill="#333">2.8</text>
<line x1="110" y1="284.00" x2="850" y2="284.00" stroke="#e6e6e6" stroke-width="1"/>
<text x="98" y="288.00" text-anchor="end" font-family="Arial, sans-serif" font-size="13" fill="#333">4.16</text>
<line x1="110" y1="182.00" x2="850" y2="182.00" stroke="#e6e6e6" stroke-width="1"/>
<text x="98" y="186.00" text-anchor="end" font-family="Arial, sans-serif" font-size="13" fill="#333">5.52</text>
<line x1="110" y1="80.00" x2="850" y2="80.00" stroke="#e6e6e6" stroke-width="1"/>
<text x="98" y="84.00" text-anchor="end" font-family="Arial, sans-serif" font-size="13" fill="#333">6.89</text>
<rect x="110" y="80" width="740" height="510" fill="none" stroke="#111" stroke-width="1.4"/>
<polyline fill="none" stroke="#1f77b4" stroke-width="3" points="110.00,221.19 116.17,221.19 122.33,221.19 128.50,221.19 134.67,221.19 140.83,221.19 147.00,221.19 153.17,221.19 159.33,221.19 165.50,221.19 171.67,221.19 177.83,221.19 184.00,221.19 190.17,221.19 196.33,221.19 202.50,221.19 208.67,221.19 214.83,221.19 221.00,221.19 227.17,221.19 233.33,221.19 239.50,221.19 245.67,221.19 251.83,221.19 258.00,221.19 264.17,221.19 270.33,221.19 276.50,221.19 282.67,221.19 288.83,221.19 295.00,221.19 301.17,221.19 307.33,221.19 313.50,221.19 319.67,221.19 325.83,221.19 332.00,221.19 338.17,221.19 344.33,221.19 350.50,221.19 356.67,221.19 362.83,221.19 369.00,221.19 375.17,221.19 381.33,221.19 387.50,221.19 393.67,221.19 399.83,221.19 406.00,221.19 412.17,221.19 418.33,221.19 424.50,221.19 430.67,221.19 436.83,221.19 443.00,221.19 449.17,221.19 455.33,221.19 461.50,221.19 467.67,221.19 473.83,221.19 480.00,221.19 486.17,221.19 492.33,221.19 498.50,221.19 504.67,221.19 510.83,221.19 517.00,221.19 523.17,221.19 529.33,221.19 535.50,221.19 541.67,221.19 547.83,221.19 554.00,221.19 560.17,221.19 566.33,221.19 572.50,221.19 578.67,221.19 584.83,221.19 591.00,221.19 597.17,221.19 603.33,221.19 609.50,221.19 615.67,221.19 621.83,221.19 628.00,221.19 634.17,221.19 640.33,221.19 646.50,221.19 652.67,221.19 658.83,221.19 665.00,221.19 671.17,221.19 677.33,221.19 683.50,221.19 689.67,221.19 695.83,221.19 702.00,221.19 708.17,221.19 714.33,221.19 720.50,221.19 726.67,221.19 732.83,221.19 739.00,221.19 745.17,221.19 751.33,221.19 757.50,221.19 763.67,221.19 769.83,221.19 776.00,221.19 782.17,221.19 788.33,221.19 794.50,221.19 800.67,221.19 806.83,221.19 813.00,221.19 819.17,221.19 825.33,221.19 831.50,221.19 837.67,221.19 843.83,221.19 850.00,221.19"/>
<line x1="880" y1="100" x2="910" y2="100" stroke="#1f77b4" stroke-width="4"/>
<text x="920" y="105" font-family="Arial, sans-serif" font-size="15" fill="#111">Constant B</text>
<polyline fill="none" stroke="#2ca02c" stroke-width="3" points="110.00,177.00 116.17,213.47 122.33,241.81 128.50,264.66 134.67,283.58 140.83,299.59 147.00,313.37 153.17,325.38 159.33,335.98 165.50,345.42 171.67,353.90 177.83,361.58 184.00,368.56 190.17,374.96 196.33,380.84 202.50,386.28 208.67,391.32 214.83,396.02 221.00,400.40 227.17,404.51 233.33,408.37 239.50,412.01 245.67,415.44 251.83,418.69 258.00,421.76 264.17,424.68 270.33,427.46 276.50,430.11 282.67,432.64 288.83,435.05 295.00,437.36 301.17,439.57 307.33,441.69 313.50,443.73 319.67,445.69 325.83,447.58 332.00,449.39 338.17,451.14 344.33,452.83 350.50,454.46 356.67,456.04 362.83,457.57 369.00,459.04 375.17,460.47 381.33,461.86 387.50,463.20 393.67,464.50 399.83,465.77 406.00,467.00 412.17,468.20 418.33,469.36 424.50,470.49 430.67,471.59 436.83,472.67 443.00,473.71 449.17,474.73 455.33,475.73 461.50,476.70 467.67,477.64 473.83,478.57 480.00,479.47 486.17,480.36 492.33,481.22 498.50,482.06 504.67,482.89 510.83,483.70 517.00,484.49 523.17,485.26 529.33,486.02 535.50,486.76 541.67,487.49 547.83,488.20 554.00,488.90 560.17,489.59 566.33,490.26 572.50,490.92 578.67,491.57 584.83,492.20 591.00,492.83 597.17,493.44 603.33,494.05 609.50,494.64 615.67,495.22 621.83,495.79 628.00,496.35 634.17,496.91 640.33,497.45 646.50,497.98 652.67,498.51 658.83,499.03 665.00,499.54 671.17,500.04 677.33,500.53 683.50,501.02 689.67,501.50 695.83,501.97 702.00,502.43 708.17,502.89 714.33,503.34 720.50,503.79 726.67,504.22 732.83,504.66 739.00,505.08 745.17,505.50 751.33,505.92 757.50,506.32 763.67,506.73 769.83,507.12 776.00,507.52 782.17,507.90 788.33,508.29 794.50,508.66 800.67,509.03 806.83,509.40 813.00,509.76 819.17,510.12 825.33,510.48 831.50,510.83 837.67,511.17 843.83,511.51 850.00,511.85"/>
<line x1="880" y1="130" x2="910" y2="130" stroke="#2ca02c" stroke-width="4"/>
<text x="920" y="135" font-family="Arial, sans-serif" font-size="15" fill="#111">Middle ground</text>
<polyline fill="none" stroke="#d62728" stroke-width="3" points="110.00,115.17 116.17,204.27 122.33,263.36 128.50,305.33 134.67,336.67 140.83,360.98 147.00,380.40 153.17,396.28 159.33,409.54 165.50,420.77 171.67,430.43 177.83,438.82 184.00,446.20 190.17,452.73 196.33,458.57 202.50,463.81 208.67,468.56 214.83,472.87 221.00,476.82 227.17,480.44 233.33,483.78 239.50,486.87 245.67,489.74 251.83,492.41 258.00,494.91 264.17,497.24 270.33,499.44 276.50,501.50 282.67,503.45 288.83,505.29 295.00,507.03 301.17,508.68 307.33,510.25 313.50,511.74 319.67,513.16 325.83,514.52 332.00,515.81 338.17,517.05 344.33,518.24 350.50,519.38 356.67,520.47 362.83,521.52 369.00,522.52 375.17,523.49 381.33,524.43 387.50,525.33 393.67,526.20 399.83,527.04 406.00,527.85 412.17,528.64 418.33,529.40 424.50,530.13 430.67,530.85 436.83,531.54 443.00,532.21 449.17,532.86 455.33,533.49 461.50,534.11 467.67,534.70 473.83,535.29 480.00,535.85 486.17,536.40 492.33,536.94 498.50,537.46 504.67,537.97 510.83,538.47 517.00,538.95 523.17,539.42 529.33,539.89 535.50,540.34 541.67,540.78 547.83,541.21 554.00,541.63 560.17,542.04 566.33,542.44 572.50,542.84 578.67,543.22 584.83,543.60 591.00,543.97 597.17,544.33 603.33,544.69 609.50,545.04 615.67,545.38 621.83,545.71 628.00,546.04 634.17,546.37 640.33,546.68 646.50,546.99 652.67,547.30 658.83,547.60 665.00,547.89 671.17,548.18 677.33,548.46 683.50,548.74 689.67,549.02 695.83,549.29 702.00,549.55 708.17,549.81 714.33,550.07 720.50,550.32 726.67,550.57 732.83,550.81 739.00,551.05 745.17,551.29 751.33,551.52 757.50,551.75 763.67,551.98 769.83,552.20 776.00,552.42 782.17,552.64 788.33,552.85 794.50,553.06 800.67,553.27 806.83,553.47 813.00,553.68 819.17,553.87 825.33,554.07 831.50,554.26 837.67,554.45 843.83,554.64 850.00,554.83"/>
<line x1="880" y1="160" x2="910" y2="160" stroke="#d62728" stroke-width="4"/>
<text x="920" y="165" font-family="Arial, sans-serif" font-size="15" fill="#111">Edge-gap constrained</text>
</svg>