<svg xmlns="http://www.w3.org/2000/svg" width="1100" height="700" viewBox="0 0 1100 700">
<rect width="100%" height="100%" fill="#ffffff"/>
<text x="110" y="40" font-family="Arial, sans-serif" font-size="24" font-weight="700" fill="#111">Fusion Edge Closure: Cross-Field Confinement Time</text>
<text x="480.0" y="665" text-anchor="middle" font-family="Arial, sans-serif" font-size="18" fill="#111">Minor radius a (m)</text>
<text x="32" y="335.0" transform="rotate(-90 32 335.0)" text-anchor="middle" font-family="Arial, sans-serif" font-size="18" fill="#111">tau_perp (s)</text>
<line x1="110.00" y1="80" x2="110.00" y2="590" stroke="#e6e6e6" stroke-width="1"/>
<text x="110.00" y="618" text-anchor="middle" font-family="Arial, sans-serif" font-size="13" fill="#333">2.5</text>
<line x1="258.00" y1="80" x2="258.00" y2="590" stroke="#e6e6e6" stroke-width="1"/>
<text x="258.00" y="618" text-anchor="middle" font-family="Arial, sans-serif" font-size="13" fill="#333">12</text>
<line x1="406.00" y1="80" x2="406.00" y2="590" stroke="#e6e6e6" stroke-width="1"/>
<text x="406.00" y="618" text-anchor="middle" font-family="Arial, sans-serif" font-size="13" fill="#333">21.5</text>
<line x1="554.00" y1="80" x2="554.00" y2="590" stroke="#e6e6e6" stroke-width="1"/>
<text x="554.00" y="618" text-anchor="middle" font-family="Arial, sans-serif" font-size="13" fill="#333">31</text>
<line x1="702.00" y1="80" x2="702.00" y2="590" stroke="#e6e6e6" stroke-width="1"/>
<text x="702.00" y="618" text-anchor="middle" font-family="Arial, sans-serif" font-size="13" fill="#333">40.5</text>
<line x1="850.00" y1="80" x2="850.00" y2="590" stroke="#e6e6e6" stroke-width="1"/>
<text x="850.00" y="618" text-anchor="middle" font-family="Arial, sans-serif" font-size="13" fill="#333">50</text>
<line x1="110" y1="590.00" x2="850" y2="590.00" stroke="#e6e6e6" stroke-width="1"/>
<text x="98" y="594.00" text-anchor="end" font-family="Arial, sans-serif" font-size="13" fill="#333">0.1</text>
<line x1="110" y1="488.00" x2="850" y2="488.00" stroke="#e6e6e6" stroke-width="1"/>
<text x="98" y="492.00" text-anchor="end" font-family="Arial, sans-serif" font-size="13" fill="#333">1</text>
<line x1="110" y1="386.00" x2="850" y2="386.00" stroke="#e6e6e6" stroke-width="1"/>
<text x="98" y="390.00" text-anchor="end" font-family="Arial, sans-serif" font-size="13" fill="#333">10</text>
<line x1="110" y1="284.00" x2="850" y2="284.00" stroke="#e6e6e6" stroke-width="1"/>
<text x="98" y="288.00" text-anchor="end" font-family="Arial, sans-serif" font-size="13" fill="#333">100</text>
<line x1="110" y1="182.00" x2="850" y2="182.00" stroke="#e6e6e6" stroke-width="1"/>
<text x="98" y="186.00" text-anchor="end" font-family="Arial, sans-serif" font-size="13" fill="#333">1.0e+03</text>
<line x1="110" y1="80.00" x2="850" y2="80.00" stroke="#e6e6e6" stroke-width="1"/>
<text x="98" y="84.00" text-anchor="end" font-family="Arial, sans-serif" font-size="13" fill="#333">1.0e+04</text>
<rect x="110" y="80" width="740" height="510" fill="none" stroke="#111" stroke-width="1.4"/>
<polyline fill="none" stroke="#1f77b4" stroke-width="3" points="110.00,502.87 116.17,483.34 122.33,466.31 128.50,451.22 134.67,437.67 140.83,425.38 147.00,414.12 153.17,403.75 159.33,394.12 165.50,385.15 171.67,376.75 177.83,368.84 184.00,361.38 190.17,354.32 196.33,347.61 202.50,341.22 208.67,335.13 214.83,329.30 221.00,323.72 227.17,318.37 233.33,313.22 239.50,308.26 245.67,303.48 251.83,298.87 258.00,294.41 264.17,290.10 270.33,285.92 276.50,281.87 282.67,277.94 288.83,274.13 295.00,270.42 301.17,266.81 307.33,263.29 313.50,259.87 319.67,256.53 325.83,253.27 332.00,250.09 338.17,246.99 344.33,243.96 350.50,240.99 356.67,238.09 362.83,235.25 369.00,232.47 375.17,229.75 381.33,227.08 387.50,224.47 393.67,221.90 399.83,219.39 406.00,216.92 412.17,214.49 418.33,212.11 424.50,209.77 430.67,207.47 436.83,205.21 443.00,202.99 449.17,200.81 455.33,198.66 461.50,196.54 467.67,194.46 473.83,192.41 480.00,190.39 486.17,188.40 492.33,186.44 498.50,184.51 504.67,182.61 510.83,180.73 517.00,178.88 523.17,177.05 529.33,175.25 535.50,173.48 541.67,171.72 547.83,169.99 554.00,168.29 560.17,166.60 566.33,164.94 572.50,163.29 578.67,161.67 584.83,160.06 591.00,158.48 597.17,156.91 603.33,155.36 609.50,153.83 615.67,152.32 621.83,150.82 628.00,149.34 634.17,147.88 640.33,146.43 646.50,145.00 652.67,143.58 658.83,142.18 665.00,140.79 671.17,139.42 677.33,138.06 683.50,136.72 689.67,135.39 695.83,134.07 702.00,132.76 708.17,131.47 714.33,130.19 720.50,128.92 726.67,127.67 732.83,126.42 739.00,125.19 745.17,123.97 751.33,122.76 757.50,121.56 763.67,120.37 769.83,119.19 776.00,118.02 782.17,116.87 788.33,115.72 794.50,114.58 800.67,113.45 806.83,112.33 813.00,111.23 819.17,110.13 825.33,109.03 831.50,107.95 837.67,106.88 843.83,105.81 850.00,104.76"/>
<line x1="880" y1="100" x2="910" y2="100" stroke="#1f77b4" stroke-width="4"/>
<text x="920" y="105" font-family="Arial, sans-serif" font-size="15" fill="#111">1</text>
<polyline fill="none" stroke="#2ca02c" stroke-width="3" points="110.00,502.87 116.17,484.97 122.33,469.36 128.50,455.53 134.67,443.11 140.83,431.83 147.00,421.52 153.17,412.01 159.33,403.19 165.50,394.96 171.67,387.26 177.83,380.01 184.00,373.17 190.17,366.69 196.33,360.55 202.50,354.69 208.67,349.11 214.83,343.77 221.00,338.65 227.17,333.74 233.33,329.02 239.50,324.48 245.67,320.10 251.83,315.87 258.00,311.79 264.17,307.83 270.33,304.00 276.50,300.29 282.67,296.69 288.83,293.19 295.00,289.79 301.17,286.48 307.33,283.26 313.50,280.12 319.67,277.06 325.83,274.07 332.00,271.16 338.17,268.31 344.33,265.53 350.50,262.82 356.67,260.16 362.83,257.55 369.00,255.01 375.17,252.51 381.33,250.07 387.50,247.67 393.67,245.32 399.83,243.01 406.00,240.75 412.17,238.52 418.33,236.34 424.50,234.20 430.67,232.09 436.83,230.02 443.00,227.98 449.17,225.98 455.33,224.01 461.50,222.07 467.67,220.16 473.83,218.28 480.00,216.43 486.17,214.61 492.33,212.81 498.50,211.04 504.67,209.30 510.83,207.57 517.00,205.88 523.17,204.21 529.33,202.56 535.50,200.93 541.67,199.32 547.83,197.73 554.00,196.17 560.17,194.62 566.33,193.10 572.50,191.59 578.67,190.10 584.83,188.63 591.00,187.18 597.17,185.74 603.33,184.32 609.50,182.92 615.67,181.53 621.83,180.16 628.00,178.80 634.17,177.46 640.33,176.13 646.50,174.82 652.67,173.52 658.83,172.24 665.00,170.97 671.17,169.71 677.33,168.46 683.50,167.23 689.67,166.01 695.83,164.80 702.00,163.60 708.17,162.42 714.33,161.25 720.50,160.08 726.67,158.93 732.83,157.79 739.00,156.66 745.17,155.54 751.33,154.43 757.50,153.33 763.67,152.24 769.83,151.16 776.00,150.09 782.17,149.03 788.33,147.98 794.50,146.94 800.67,145.90 806.83,144.88 813.00,143.86 819.17,142.85 825.33,141.85 831.50,140.86 837.67,139.88 843.83,138.90 850.00,137.93"/>
<line x1="880" y1="130" x2="910" y2="130" stroke="#2ca02c" stroke-width="4"/>
<text x="920" y="135" font-family="Arial, sans-serif" font-size="15" fill="#111">2</text>
<polyline fill="none" stroke="#d62728" stroke-width="3" points="110.00,502.87 116.17,486.60 122.33,472.41 128.50,459.83 134.67,448.54 140.83,438.29 147.00,428.91 153.17,420.27 159.33,412.25 165.50,404.77 171.67,397.77 177.83,391.18 184.00,384.96 190.17,379.07 196.33,373.48 202.50,368.16 208.67,363.09 214.83,358.23 221.00,353.58 227.17,349.12 233.33,344.83 239.50,340.70 245.67,336.72 251.83,332.87 258.00,329.16 264.17,325.56 270.33,322.08 276.50,318.71 282.67,315.43 288.83,312.25 295.00,309.16 301.17,306.15 307.33,303.22 313.50,300.37 319.67,297.59 325.83,294.87 332.00,292.22 338.17,289.64 344.33,287.11 350.50,284.64 356.67,282.22 362.83,279.86 369.00,277.54 375.17,275.27 381.33,273.05 387.50,270.87 393.67,268.73 399.83,266.63 406.00,264.58 412.17,262.56 418.33,260.57 424.50,258.62 430.67,256.71 436.83,254.82 443.00,252.97 449.17,251.15 455.33,249.36 461.50,247.60 467.67,245.86 473.83,244.15 480.00,242.47 486.17,240.81 492.33,239.18 498.50,237.57 504.67,235.98 510.83,234.42 517.00,232.88 523.17,231.36 529.33,229.86 535.50,228.38 541.67,226.92 547.83,225.47 554.00,224.05 560.17,222.65 566.33,221.26 572.50,219.89 578.67,218.53 584.83,217.20 591.00,215.88 597.17,214.57 603.33,213.28 609.50,212.00 615.67,210.74 621.83,209.50 628.00,208.26 634.17,207.04 640.33,205.84 646.50,204.64 652.67,203.46 658.83,202.30 665.00,201.14 671.17,200.00 677.33,198.86 683.50,197.74 689.67,196.63 695.83,195.53 702.00,194.45 708.17,193.37 714.33,192.30 720.50,191.25 726.67,190.20 732.83,189.16 739.00,188.14 745.17,187.12 751.33,186.11 757.50,185.11 763.67,184.12 769.83,183.14 776.00,182.17 782.17,181.20 788.33,180.24 794.50,179.30 800.67,178.36 806.83,177.42 813.00,176.50 819.17,175.58 825.33,174.67 831.50,173.77 837.67,172.88 843.83,171.99 850.00,171.11"/>
<line x1="880" y1="160" x2="910" y2="160" stroke="#d62728" stroke-width="4"/>
<text x="920" y="165" font-family="Arial, sans-serif" font-size="15" fill="#111">3</text>
</svg>