<svg xmlns="http://www.w3.org/2000/svg" width="1100" height="700" viewBox="0 0 1100 700">
<rect width="100%" height="100%" fill="#ffffff"/>
<text x="110" y="40" font-family="Arial, sans-serif" font-size="24" font-weight="700" fill="#111">Radius Sweep: B Scaling</text>
<text x="480.0" y="665" text-anchor="middle" font-family="Arial, sans-serif" font-size="18" fill="#111">Minor radius a (m)</text>
<text x="32" y="335.0" transform="rotate(-90 32 335.0)" text-anchor="middle" font-family="Arial, sans-serif" font-size="18" fill="#111">B (T)</text>
<line x1="110.00" y1="80" x2="110.00" y2="590" stroke="#e6e6e6" stroke-width="1"/>
<text x="110.00" y="618" text-anchor="middle" font-family="Arial, sans-serif" font-size="13" fill="#333">2</text>
<line x1="258.00" y1="80" x2="258.00" y2="590" stroke="#e6e6e6" stroke-width="1"/>
<text x="258.00" y="618" text-anchor="middle" font-family="Arial, sans-serif" font-size="13" fill="#333">11.6</text>
<line x1="406.00" y1="80" x2="406.00" y2="590" stroke="#e6e6e6" stroke-width="1"/>
<text x="406.00" y="618" text-anchor="middle" font-family="Arial, sans-serif" font-size="13" fill="#333">21.2</text>
<line x1="554.00" y1="80" x2="554.00" y2="590" stroke="#e6e6e6" stroke-width="1"/>
<text x="554.00" y="618" text-anchor="middle" font-family="Arial, sans-serif" font-size="13" fill="#333">30.8</text>
<line x1="702.00" y1="80" x2="702.00" y2="590" stroke="#e6e6e6" stroke-width="1"/>
<text x="702.00" y="618" text-anchor="middle" font-family="Arial, sans-serif" font-size="13" fill="#333">40.4</text>
<line x1="850.00" y1="80" x2="850.00" y2="590" stroke="#e6e6e6" stroke-width="1"/>
<text x="850.00" y="618" text-anchor="middle" font-family="Arial, sans-serif" font-size="13" fill="#333">50</text>
<line x1="110" y1="590.00" x2="850" y2="590.00" stroke="#e6e6e6" stroke-width="1"/>
<text x="98" y="594.00" text-anchor="end" font-family="Arial, sans-serif" font-size="13" fill="#333">0.1</text>
<line x1="110" y1="335.00" x2="850" y2="335.00" stroke="#e6e6e6" stroke-width="1"/>
<text x="98" y="339.00" text-anchor="end" font-family="Arial, sans-serif" font-size="13" fill="#333">1</text>
<line x1="110" y1="80.00" x2="850" y2="80.00" stroke="#e6e6e6" stroke-width="1"/>
<text x="98" y="84.00" text-anchor="end" font-family="Arial, sans-serif" font-size="13" fill="#333">10</text>
<rect x="110" y="80" width="740" height="510" fill="none" stroke="#111" stroke-width="1.4"/>
<polyline fill="none" stroke="#1f77b4" stroke-width="3" points="110.00,80.00 116.17,80.00 122.33,80.00 128.50,80.00 134.67,80.00 140.83,80.00 147.00,80.00 153.17,80.00 159.33,80.00 165.50,80.00 171.67,80.00 177.83,80.00 184.00,80.00 190.17,80.00 196.33,80.00 202.50,80.00 208.67,80.00 214.83,80.00 221.00,80.00 227.17,80.00 233.33,80.00 239.50,80.00 245.67,80.00 251.83,80.00 258.00,80.00 264.17,80.00 270.33,80.00 276.50,80.00 282.67,80.00 288.83,80.00 295.00,80.00 301.17,80.00 307.33,80.00 313.50,80.00 319.67,80.00 325.83,80.00 332.00,80.00 338.17,80.00 344.33,80.00 350.50,80.00 356.67,80.00 362.83,80.00 369.00,80.00 375.17,80.00 381.33,80.00 387.50,80.00 393.67,80.00 399.83,80.00 406.00,80.00 412.17,80.00 418.33,80.00 424.50,80.00 430.67,80.00 436.83,80.00 443.00,80.00 449.17,80.00 455.33,80.00 461.50,80.00 467.67,80.00 473.83,80.00 480.00,80.00 486.17,80.00 492.33,80.00 498.50,80.00 504.67,80.00 510.83,80.00 517.00,80.00 523.17,80.00 529.33,80.00 535.50,80.00 541.67,80.00 547.83,80.00 554.00,80.00 560.17,80.00 566.33,80.00 572.50,80.00 578.67,80.00 584.83,80.00 591.00,80.00 597.17,80.00 603.33,80.00 609.50,80.00 615.67,80.00 621.83,80.00 628.00,80.00 634.17,80.00 640.33,80.00 646.50,80.00 652.67,80.00 658.83,80.00 665.00,80.00 671.17,80.00 677.33,80.00 683.50,80.00 689.67,80.00 695.83,80.00 702.00,80.00 708.17,80.00 714.33,80.00 720.50,80.00 726.67,80.00 732.83,80.00 739.00,80.00 745.17,80.00 751.33,80.00 757.50,80.00 763.67,80.00 769.83,80.00 776.00,80.00 782.17,80.00 788.33,80.00 794.50,80.00 800.67,80.00 806.83,80.00 813.00,80.00 819.17,80.00 825.33,80.00 831.50,80.00 837.67,80.00 843.83,80.00 850.00,80.00"/>
<line x1="880" y1="100" x2="910" y2="100" stroke="#1f77b4" stroke-width="4"/>
<text x="920" y="105" font-family="Arial, sans-serif" font-size="15" fill="#111">Constant B</text>
<polyline fill="none" stroke="#2ca02c" stroke-width="3" points="110.00,80.00 116.17,90.10 122.33,98.63 128.50,106.03 134.67,112.55 140.83,118.38 147.00,123.66 153.17,128.48 159.33,132.91 165.50,137.01 171.67,140.83 177.83,144.41 184.00,147.76 190.17,150.93 196.33,153.92 202.50,156.76 208.67,159.46 214.83,162.04 221.00,164.50 227.17,166.86 233.33,169.12 239.50,171.29 245.67,173.38 251.83,175.39 258.00,177.34 264.17,179.21 270.33,181.03 276.50,182.79 282.67,184.49 288.83,186.14 295.00,187.75 301.17,189.31 307.33,190.83 313.50,192.30 319.67,193.74 325.83,195.14 332.00,196.51 338.17,197.85 344.33,199.15 350.50,200.42 356.67,201.67 362.83,202.88 369.00,204.07 375.17,205.24 381.33,206.38 387.50,207.50 393.67,208.60 399.83,209.67 406.00,210.73 412.17,211.76 418.33,212.78 424.50,213.78 430.67,214.76 436.83,215.72 443.00,216.66 449.17,217.60 455.33,218.51 461.50,219.41 467.67,220.30 473.83,221.17 480.00,222.03 486.17,222.87 492.33,223.71 498.50,224.53 504.67,225.33 510.83,226.13 517.00,226.92 523.17,227.69 529.33,228.45 535.50,229.21 541.67,229.95 547.83,230.69 554.00,231.41 560.17,232.12 566.33,232.83 572.50,233.53 578.67,234.21 584.83,234.89 591.00,235.56 597.17,236.23 603.33,236.88 609.50,237.53 615.67,238.17 621.83,238.80 628.00,239.43 634.17,240.05 640.33,240.66 646.50,241.26 652.67,241.86 658.83,242.46 665.00,243.04 671.17,243.62 677.33,244.19 683.50,244.76 689.67,245.32 695.83,245.88 702.00,246.43 708.17,246.98 714.33,247.52 720.50,248.05 726.67,248.58 732.83,249.11 739.00,249.63 745.17,250.14 751.33,250.65 757.50,251.16 763.67,251.66 769.83,252.16 776.00,252.65 782.17,253.14 788.33,253.62 794.50,254.10 800.67,254.58 806.83,255.05 813.00,255.51 819.17,255.98 825.33,256.44 831.50,256.89 837.67,257.34 843.83,257.79 850.00,258.24"/>
<line x1="880" y1="130" x2="910" y2="130" stroke="#2ca02c" stroke-width="4"/>
<text x="920" y="135" font-family="Arial, sans-serif" font-size="15" fill="#111">Middle ground</text>
<polyline fill="none" stroke="#d62728" stroke-width="3" points="110.00,80.00 116.17,100.19 122.33,117.26 128.50,132.05 134.67,145.09 140.83,156.76 147.00,167.32 153.17,176.95 159.33,185.82 165.50,194.03 171.67,201.67 177.83,208.81 184.00,215.53 190.17,221.86 196.33,227.84 202.50,233.53 208.67,238.93 214.83,244.08 221.00,249.00 227.17,253.72 233.33,258.24 239.50,262.58 245.67,266.76 251.83,270.79 258.00,274.67 264.17,278.43 270.33,282.06 276.50,285.58 282.67,288.98 288.83,292.29 295.00,295.50 301.17,298.62 307.33,301.65 313.50,304.61 319.67,307.48 325.83,310.29 332.00,313.02 338.17,315.69 344.33,318.30 350.50,320.84 356.67,323.33 362.83,325.77 369.00,328.15 375.17,330.48 381.33,332.76 387.50,335.00 393.67,337.19 399.83,339.34 406.00,341.45 412.17,343.52 418.33,345.56 424.50,347.55 430.67,349.51 436.83,351.44 443.00,353.33 449.17,355.19 455.33,357.02 461.50,358.82 467.67,360.59 473.83,362.34 480.00,364.06 486.17,365.75 492.33,367.41 498.50,369.05 504.67,370.67 510.83,372.26 517.00,373.83 523.17,375.38 529.33,376.91 535.50,378.42 541.67,379.90 547.83,381.37 554.00,382.82 560.17,384.25 566.33,385.66 572.50,387.05 578.67,388.43 584.83,389.79 591.00,391.13 597.17,392.45 603.33,393.76 609.50,395.06 615.67,396.34 621.83,397.61 628.00,398.86 634.17,400.09 640.33,401.32 646.50,402.53 652.67,403.73 658.83,404.91 665.00,406.08 671.17,407.24 677.33,408.39 683.50,409.53 689.67,410.65 695.83,411.76 702.00,412.86 708.17,413.96 714.33,415.04 720.50,416.11 726.67,417.17 732.83,418.22 739.00,419.26 745.17,420.29 751.33,421.31 757.50,422.32 763.67,423.32 769.83,424.31 776.00,425.30 782.17,426.27 788.33,427.24 794.50,428.20 800.67,429.15 806.83,430.09 813.00,431.03 819.17,431.95 825.33,432.87 831.50,433.78 837.67,434.69 843.83,435.59 850.00,436.47"/>
<line x1="880" y1="160" x2="910" y2="160" stroke="#d62728" stroke-width="4"/>
<text x="920" y="165" font-family="Arial, sans-serif" font-size="15" fill="#111">Orbit-ratio constrained</text>
</svg>