<svg xmlns="http://www.w3.org/2000/svg" width="1100" height="700" viewBox="0 0 1100 700">
<rect width="100%" height="100%" fill="#ffffff"/>
<text x="110" y="40" font-family="Arial, sans-serif" font-size="24" font-weight="700" fill="#111">Radius Sweep: Beta-Limited Density</text>
<text x="480.0" y="665" text-anchor="middle" font-family="Arial, sans-serif" font-size="18" fill="#111">Minor radius a (m)</text>
<text x="32" y="335.0" transform="rotate(-90 32 335.0)" text-anchor="middle" font-family="Arial, sans-serif" font-size="18" fill="#111">n_beta (m^-3)</text>
<line x1="110.00" y1="80" x2="110.00" y2="590" stroke="#e6e6e6" stroke-width="1"/>
<text x="110.00" y="618" text-anchor="middle" font-family="Arial, sans-serif" font-size="13" fill="#333">2</text>
<line x1="258.00" y1="80" x2="258.00" y2="590" stroke="#e6e6e6" stroke-width="1"/>
<text x="258.00" y="618" text-anchor="middle" font-family="Arial, sans-serif" font-size="13" fill="#333">11.6</text>
<line x1="406.00" y1="80" x2="406.00" y2="590" stroke="#e6e6e6" stroke-width="1"/>
<text x="406.00" y="618" text-anchor="middle" font-family="Arial, sans-serif" font-size="13" fill="#333">21.2</text>
<line x1="554.00" y1="80" x2="554.00" y2="590" stroke="#e6e6e6" stroke-width="1"/>
<text x="554.00" y="618" text-anchor="middle" font-family="Arial, sans-serif" font-size="13" fill="#333">30.8</text>
<line x1="702.00" y1="80" x2="702.00" y2="590" stroke="#e6e6e6" stroke-width="1"/>
<text x="702.00" y="618" text-anchor="middle" font-family="Arial, sans-serif" font-size="13" fill="#333">40.4</text>
<line x1="850.00" y1="80" x2="850.00" y2="590" stroke="#e6e6e6" stroke-width="1"/>
<text x="850.00" y="618" text-anchor="middle" font-family="Arial, sans-serif" font-size="13" fill="#333">50</text>
<line x1="110" y1="590.00" x2="850" y2="590.00" stroke="#e6e6e6" stroke-width="1"/>
<text x="98" y="594.00" text-anchor="end" font-family="Arial, sans-serif" font-size="13" fill="#333">1.0e+17</text>
<line x1="110" y1="420.00" x2="850" y2="420.00" stroke="#e6e6e6" stroke-width="1"/>
<text x="98" y="424.00" text-anchor="end" font-family="Arial, sans-serif" font-size="13" fill="#333">1.0e+18</text>
<line x1="110" y1="250.00" x2="850" y2="250.00" stroke="#e6e6e6" stroke-width="1"/>
<text x="98" y="254.00" text-anchor="end" font-family="Arial, sans-serif" font-size="13" fill="#333">1.0e+19</text>
<line x1="110" y1="80.00" x2="850" y2="80.00" stroke="#e6e6e6" stroke-width="1"/>
<text x="98" y="84.00" text-anchor="end" font-family="Arial, sans-serif" font-size="13" fill="#333">1.0e+20</text>
<rect x="110" y="80" width="740" height="510" fill="none" stroke="#111" stroke-width="1.4"/>
<polyline fill="none" stroke="#1f77b4" stroke-width="3" points="110.00,85.26 116.17,85.26 122.33,85.26 128.50,85.26 134.67,85.26 140.83,85.26 147.00,85.26 153.17,85.26 159.33,85.26 165.50,85.26 171.67,85.26 177.83,85.26 184.00,85.26 190.17,85.26 196.33,85.26 202.50,85.26 208.67,85.26 214.83,85.26 221.00,85.26 227.17,85.26 233.33,85.26 239.50,85.26 245.67,85.26 251.83,85.26 258.00,85.26 264.17,85.26 270.33,85.26 276.50,85.26 282.67,85.26 288.83,85.26 295.00,85.26 301.17,85.26 307.33,85.26 313.50,85.26 319.67,85.26 325.83,85.26 332.00,85.26 338.17,85.26 344.33,85.26 350.50,85.26 356.67,85.26 362.83,85.26 369.00,85.26 375.17,85.26 381.33,85.26 387.50,85.26 393.67,85.26 399.83,85.26 406.00,85.26 412.17,85.26 418.33,85.26 424.50,85.26 430.67,85.26 436.83,85.26 443.00,85.26 449.17,85.26 455.33,85.26 461.50,85.26 467.67,85.26 473.83,85.26 480.00,85.26 486.17,85.26 492.33,85.26 498.50,85.26 504.67,85.26 510.83,85.26 517.00,85.26 523.17,85.26 529.33,85.26 535.50,85.26 541.67,85.26 547.83,85.26 554.00,85.26 560.17,85.26 566.33,85.26 572.50,85.26 578.67,85.26 584.83,85.26 591.00,85.26 597.17,85.26 603.33,85.26 609.50,85.26 615.67,85.26 621.83,85.26 628.00,85.26 634.17,85.26 640.33,85.26 646.50,85.26 652.67,85.26 658.83,85.26 665.00,85.26 671.17,85.26 677.33,85.26 683.50,85.26 689.67,85.26 695.83,85.26 702.00,85.26 708.17,85.26 714.33,85.26 720.50,85.26 726.67,85.26 732.83,85.26 739.00,85.26 745.17,85.26 751.33,85.26 757.50,85.26 763.67,85.26 769.83,85.26 776.00,85.26 782.17,85.26 788.33,85.26 794.50,85.26 800.67,85.26 806.83,85.26 813.00,85.26 819.17,85.26 825.33,85.26 831.50,85.26 837.67,85.26 843.83,85.26 850.00,85.26"/>
<line x1="880" y1="100" x2="910" y2="100" stroke="#1f77b4" stroke-width="4"/>
<text x="920" y="105" font-family="Arial, sans-serif" font-size="15" fill="#111">Constant B</text>
<polyline fill="none" stroke="#2ca02c" stroke-width="3" points="110.00,85.26 116.17,98.72 122.33,110.10 128.50,119.96 134.67,128.65 140.83,136.43 147.00,143.47 153.17,149.89 159.33,155.80 165.50,161.27 171.67,166.37 177.83,171.13 184.00,175.61 190.17,179.83 196.33,183.82 202.50,187.61 208.67,191.21 214.83,194.64 221.00,197.93 227.17,201.07 233.33,204.08 239.50,206.98 245.67,209.76 251.83,212.45 258.00,215.04 264.17,217.54 270.33,219.96 276.50,222.31 282.67,224.58 288.83,226.78 295.00,228.92 301.17,231.00 307.33,233.03 313.50,234.99 319.67,236.91 325.83,238.78 332.00,240.60 338.17,242.38 344.33,244.12 350.50,245.82 356.67,247.48 362.83,249.10 369.00,250.69 375.17,252.24 381.33,253.76 387.50,255.26 393.67,256.72 399.83,258.15 406.00,259.56 412.17,260.94 418.33,262.29 424.50,263.62 430.67,264.93 436.83,266.21 443.00,267.48 449.17,268.72 455.33,269.94 461.50,271.14 467.67,272.32 473.83,273.48 480.00,274.63 486.17,275.75 492.33,276.86 498.50,277.96 504.67,279.04 510.83,280.10 517.00,281.15 523.17,282.18 529.33,283.20 535.50,284.20 541.67,285.19 547.83,286.17 554.00,287.13 560.17,288.09 566.33,289.03 572.50,289.96 578.67,290.87 584.83,291.78 591.00,292.67 597.17,293.56 603.33,294.43 609.50,295.30 615.67,296.15 621.83,296.99 628.00,297.83 634.17,298.65 640.33,299.47 646.50,300.28 652.67,301.07 658.83,301.86 665.00,302.64 671.17,303.42 677.33,304.18 683.50,304.94 689.67,305.69 695.83,306.43 702.00,307.17 708.17,307.89 714.33,308.61 720.50,309.33 726.67,310.03 732.83,310.73 739.00,311.43 745.17,312.11 751.33,312.79 757.50,313.47 763.67,314.14 769.83,314.80 776.00,315.45 782.17,316.11 788.33,316.75 794.50,317.39 800.67,318.02 806.83,318.65 813.00,319.27 819.17,319.89 825.33,320.50 831.50,321.11 837.67,321.72 843.83,322.31 850.00,322.91"/>
<line x1="880" y1="130" x2="910" y2="130" stroke="#2ca02c" stroke-width="4"/>
<text x="920" y="135" font-family="Arial, sans-serif" font-size="15" fill="#111">Middle ground</text>
<polyline fill="none" stroke="#d62728" stroke-width="3" points="110.00,85.26 116.17,112.18 122.33,134.94 128.50,154.66 134.67,172.05 140.83,187.61 147.00,201.68 153.17,214.53 159.33,226.35 165.50,237.29 171.67,247.48 177.83,257.01 184.00,265.96 190.17,274.40 196.33,282.38 202.50,289.96 208.67,297.16 214.83,304.03 221.00,310.59 227.17,316.88 233.33,322.91 239.50,328.70 245.67,334.27 251.83,339.64 258.00,344.82 264.17,349.83 270.33,354.67 276.50,359.36 282.67,363.90 288.83,368.31 295.00,372.59 301.17,376.75 307.33,380.80 313.50,384.73 319.67,388.57 325.83,392.31 332.00,395.95 338.17,399.51 344.33,402.99 350.50,406.38 356.67,409.70 362.83,412.94 369.00,416.12 375.17,419.23 381.33,422.27 387.50,425.26 393.67,428.18 399.83,431.05 406.00,433.86 412.17,436.62 418.33,439.33 424.50,441.99 430.67,444.60 436.83,447.17 443.00,449.70 449.17,452.18 455.33,454.62 461.50,457.02 467.67,459.38 473.83,461.71 480.00,464.00 486.17,466.25 492.33,468.47 498.50,470.66 504.67,472.82 510.83,474.94 517.00,477.03 523.17,479.10 529.33,481.14 535.50,483.15 541.67,485.13 547.83,487.08 554.00,489.01 560.17,490.92 566.33,492.80 572.50,494.66 578.67,496.49 584.83,498.30 591.00,500.09 597.17,501.86 603.33,503.61 609.50,505.34 615.67,507.04 621.83,508.73 628.00,510.40 634.17,512.05 640.33,513.68 646.50,515.29 652.67,516.89 658.83,518.47 665.00,520.03 671.17,521.58 677.33,523.11 683.50,524.62 689.67,526.12 695.83,527.61 702.00,529.08 708.17,530.53 714.33,531.97 720.50,533.40 726.67,534.81 732.83,536.21 739.00,537.60 745.17,538.97 751.33,540.33 757.50,541.68 763.67,543.02 769.83,544.34 776.00,545.65 782.17,546.95 788.33,548.24 794.50,549.52 800.67,550.79 806.83,552.05 813.00,553.29 819.17,554.53 825.33,555.75 831.50,556.97 837.67,558.17 843.83,559.37 850.00,560.56"/>
<line x1="880" y1="160" x2="910" y2="160" stroke="#d62728" stroke-width="4"/>
<text x="920" y="165" font-family="Arial, sans-serif" font-size="15" fill="#111">Orbit-ratio constrained</text>
</svg>