<svg xmlns="http://www.w3.org/2000/svg" width="1100" height="700" viewBox="0 0 1100 700">
<rect width="100%" height="100%" fill="#ffffff"/>
<text x="110" y="40" font-family="Arial, sans-serif" font-size="24" font-weight="700" fill="#111">Radius Sweep: Required Line Inventory</text>
<text x="480.0" y="665" text-anchor="middle" font-family="Arial, sans-serif" font-size="18" fill="#111">Minor radius a (m)</text>
<text x="32" y="335.0" transform="rotate(-90 32 335.0)" text-anchor="middle" font-family="Arial, sans-serif" font-size="18" fill="#111">lambda_req (m^-1)</text>
<line x1="110.00" y1="80" x2="110.00" y2="590" stroke="#e6e6e6" stroke-width="1"/>
<text x="110.00" y="618" text-anchor="middle" font-family="Arial, sans-serif" font-size="13" fill="#333">2</text>
<line x1="258.00" y1="80" x2="258.00" y2="590" stroke="#e6e6e6" stroke-width="1"/>
<text x="258.00" y="618" text-anchor="middle" font-family="Arial, sans-serif" font-size="13" fill="#333">11.6</text>
<line x1="406.00" y1="80" x2="406.00" y2="590" stroke="#e6e6e6" stroke-width="1"/>
<text x="406.00" y="618" text-anchor="middle" font-family="Arial, sans-serif" font-size="13" fill="#333">21.2</text>
<line x1="554.00" y1="80" x2="554.00" y2="590" stroke="#e6e6e6" stroke-width="1"/>
<text x="554.00" y="618" text-anchor="middle" font-family="Arial, sans-serif" font-size="13" fill="#333">30.8</text>
<line x1="702.00" y1="80" x2="702.00" y2="590" stroke="#e6e6e6" stroke-width="1"/>
<text x="702.00" y="618" text-anchor="middle" font-family="Arial, sans-serif" font-size="13" fill="#333">40.4</text>
<line x1="850.00" y1="80" x2="850.00" y2="590" stroke="#e6e6e6" stroke-width="1"/>
<text x="850.00" y="618" text-anchor="middle" font-family="Arial, sans-serif" font-size="13" fill="#333">50</text>
<line x1="110" y1="590.00" x2="850" y2="590.00" stroke="#e6e6e6" stroke-width="1"/>
<text x="98" y="594.00" text-anchor="end" font-family="Arial, sans-serif" font-size="13" fill="#333">1.0e+23</text>
<line x1="110" y1="488.00" x2="850" y2="488.00" stroke="#e6e6e6" stroke-width="1"/>
<text x="98" y="492.00" text-anchor="end" font-family="Arial, sans-serif" font-size="13" fill="#333">1.0e+24</text>
<line x1="110" y1="386.00" x2="850" y2="386.00" stroke="#e6e6e6" stroke-width="1"/>
<text x="98" y="390.00" text-anchor="end" font-family="Arial, sans-serif" font-size="13" fill="#333">1.0e+25</text>
<line x1="110" y1="284.00" x2="850" y2="284.00" stroke="#e6e6e6" stroke-width="1"/>
<text x="98" y="288.00" text-anchor="end" font-family="Arial, sans-serif" font-size="13" fill="#333">1.0e+26</text>
<line x1="110" y1="182.00" x2="850" y2="182.00" stroke="#e6e6e6" stroke-width="1"/>
<text x="98" y="186.00" text-anchor="end" font-family="Arial, sans-serif" font-size="13" fill="#333">1.0e+27</text>
<line x1="110" y1="80.00" x2="850" y2="80.00" stroke="#e6e6e6" stroke-width="1"/>
<text x="98" y="84.00" text-anchor="end" font-family="Arial, sans-serif" font-size="13" fill="#333">1.0e+28</text>
<rect x="110" y="80" width="740" height="510" fill="none" stroke="#111" stroke-width="1.4"/>
<polyline fill="none" stroke="#1f77b4" stroke-width="3" points="110.00,566.88 116.17,558.81 122.33,551.98 128.50,546.06 134.67,540.84 140.83,536.18 147.00,531.96 153.17,528.10 159.33,524.56 165.50,521.27 171.67,518.22 177.83,515.36 184.00,512.67 190.17,510.14 196.33,507.74 202.50,505.47 208.67,503.31 214.83,501.25 221.00,499.28 227.17,497.40 233.33,495.59 239.50,493.85 245.67,492.18 251.83,490.57 258.00,489.01 264.17,487.51 270.33,486.06 276.50,484.65 282.67,483.29 288.83,481.97 295.00,480.68 301.17,479.43 307.33,478.22 313.50,477.04 319.67,475.89 325.83,474.77 332.00,473.67 338.17,472.61 344.33,471.56 350.50,470.55 356.67,469.55 362.83,468.58 369.00,467.62 375.17,466.69 381.33,465.78 387.50,464.88 393.67,464.01 399.83,463.15 406.00,462.30 412.17,461.47 418.33,460.66 424.50,459.86 430.67,459.08 436.83,458.31 443.00,457.55 449.17,456.81 455.33,456.07 461.50,455.35 467.67,454.64 473.83,453.95 480.00,453.26 486.17,452.58 492.33,451.92 498.50,451.26 504.67,450.61 510.83,449.98 517.00,449.35 523.17,448.73 529.33,448.12 535.50,447.52 541.67,446.92 547.83,446.33 554.00,445.76 560.17,445.18 566.33,444.62 572.50,444.06 578.67,443.51 584.83,442.97 591.00,442.43 597.17,441.90 603.33,441.38 609.50,440.86 615.67,440.35 621.83,439.84 628.00,439.34 634.17,438.84 640.33,438.36 646.50,437.87 652.67,437.39 658.83,436.92 665.00,436.45 671.17,435.99 677.33,435.53 683.50,435.07 689.67,434.62 695.83,434.18 702.00,433.74 708.17,433.30 714.33,432.87 720.50,432.44 726.67,432.02 732.83,431.60 739.00,431.18 745.17,430.77 751.33,430.36 757.50,429.96 763.67,429.55 769.83,429.16 776.00,428.76 782.17,428.37 788.33,427.99 794.50,427.60 800.67,427.22 806.83,426.85 813.00,426.47 819.17,426.10 825.33,425.73 831.50,425.37 837.67,425.01 843.83,424.65 850.00,424.29"/>
<line x1="880" y1="100" x2="910" y2="100" stroke="#1f77b4" stroke-width="4"/>
<text x="920" y="105" font-family="Arial, sans-serif" font-size="15" fill="#111">Constant B</text>
<polyline fill="none" stroke="#2ca02c" stroke-width="3" points="110.00,566.88 116.17,550.73 122.33,537.07 128.50,525.24 134.67,514.81 140.83,505.47 147.00,497.03 153.17,489.32 159.33,482.23 165.50,475.66 171.67,469.55 177.83,463.83 184.00,458.46 190.17,453.40 196.33,448.61 202.50,444.06 208.67,439.74 214.83,435.62 221.00,431.68 227.17,427.91 233.33,424.29 239.50,420.82 245.67,417.47 251.83,414.25 258.00,411.14 264.17,408.14 270.33,405.23 276.50,402.42 282.67,399.70 288.83,397.05 295.00,394.48 301.17,391.99 307.33,389.56 313.50,387.20 319.67,384.90 325.83,382.65 332.00,380.46 338.17,378.33 344.33,376.24 350.50,374.21 356.67,372.22 362.83,370.27 369.00,368.36 375.17,366.50 381.33,364.67 387.50,362.88 393.67,361.13 399.83,359.41 406.00,357.72 412.17,356.06 418.33,354.44 424.50,352.84 430.67,351.27 436.83,349.73 443.00,348.22 449.17,346.73 455.33,345.27 461.50,343.82 467.67,342.41 473.83,341.01 480.00,339.64 486.17,338.29 492.33,336.95 498.50,335.64 504.67,334.35 510.83,333.07 517.00,331.82 523.17,330.58 529.33,329.35 535.50,328.15 541.67,326.96 547.83,325.79 554.00,324.63 560.17,323.49 566.33,322.36 572.50,321.24 578.67,320.14 584.83,319.05 591.00,317.98 597.17,316.92 603.33,315.87 609.50,314.83 615.67,313.81 621.83,312.80 628.00,311.80 634.17,310.81 640.33,309.83 646.50,308.86 652.67,307.90 658.83,306.95 665.00,306.02 671.17,305.09 677.33,304.17 683.50,303.26 689.67,302.36 695.83,301.47 702.00,300.59 708.17,299.72 714.33,298.85 720.50,298.00 726.67,297.15 732.83,296.31 739.00,295.48 745.17,294.65 751.33,293.84 757.50,293.03 763.67,292.23 769.83,291.43 776.00,290.64 782.17,289.86 788.33,289.09 794.50,288.32 800.67,287.56 806.83,286.81 813.00,286.06 819.17,285.32 825.33,284.58 831.50,283.85 837.67,283.13 843.83,282.41 850.00,281.70"/>
<line x1="880" y1="130" x2="910" y2="130" stroke="#2ca02c" stroke-width="4"/>
<text x="920" y="135" font-family="Arial, sans-serif" font-size="15" fill="#111">Middle ground</text>
<polyline fill="none" stroke="#d62728" stroke-width="3" points="110.00,566.88 116.17,542.65 122.33,522.17 128.50,504.42 134.67,488.77 140.83,474.77 147.00,462.10 153.17,450.54 159.33,439.90 165.50,430.05 171.67,420.88 177.83,412.31 184.00,404.25 190.17,396.65 196.33,389.47 202.50,382.65 208.67,376.17 214.83,369.99 221.00,364.08 227.17,358.42 233.33,353.00 239.50,347.79 245.67,342.77 251.83,337.94 258.00,333.27 264.17,328.77 270.33,324.41 276.50,320.19 282.67,316.10 288.83,312.13 295.00,308.28 301.17,304.54 307.33,300.90 313.50,297.35 319.67,293.90 325.83,290.54 332.00,287.26 338.17,284.05 344.33,280.93 350.50,277.87 356.67,274.88 362.83,271.96 369.00,269.11 375.17,266.31 381.33,263.57 387.50,260.88 393.67,258.25 399.83,255.67 406.00,253.14 412.17,250.65 418.33,248.22 424.50,245.82 430.67,243.47 436.83,241.16 443.00,238.89 449.17,236.65 455.33,234.46 461.50,232.30 467.67,230.17 473.83,228.08 480.00,226.02 486.17,223.99 492.33,221.99 498.50,220.02 504.67,218.08 510.83,216.17 517.00,214.28 523.17,212.42 529.33,210.59 535.50,208.78 541.67,207.00 547.83,205.24 554.00,203.50 560.17,201.79 566.33,200.09 572.50,198.42 578.67,196.77 584.83,195.14 591.00,193.53 597.17,191.94 603.33,190.37 609.50,188.81 615.67,187.27 621.83,185.76 628.00,184.25 634.17,182.77 640.33,181.30 646.50,179.85 652.67,178.41 658.83,176.99 665.00,175.58 671.17,174.19 677.33,172.82 683.50,171.45 689.67,170.10 695.83,168.77 702.00,167.44 708.17,166.14 714.33,164.84 720.50,163.56 726.67,162.28 732.83,161.02 739.00,159.78 745.17,158.54 751.33,157.31 757.50,156.10 763.67,154.90 769.83,153.71 776.00,152.53 782.17,151.35 788.33,150.19 794.50,149.04 800.67,147.90 806.83,146.77 813.00,145.65 819.17,144.54 825.33,143.43 831.50,142.34 837.67,141.26 843.83,140.18 850.00,139.11"/>
<line x1="880" y1="160" x2="910" y2="160" stroke="#d62728" stroke-width="4"/>
<text x="920" y="165" font-family="Arial, sans-serif" font-size="15" fill="#111">Orbit-ratio constrained</text>
</svg>