<svg xmlns="http://www.w3.org/2000/svg" width="1100" height="700" viewBox="0 0 1100 700">
<rect width="100%" height="100%" fill="#ffffff"/>
<text x="110" y="40" font-family="Arial, sans-serif" font-size="24" font-weight="700" fill="#111">Radius Sweep: Orbit-Ratio Constraint</text>
<text x="480.0" y="665" text-anchor="middle" font-family="Arial, sans-serif" font-size="18" fill="#111">Minor radius a (m)</text>
<text x="32" y="335.0" transform="rotate(-90 32 335.0)" text-anchor="middle" font-family="Arial, sans-serif" font-size="18" fill="#111">a / rho</text>
<line x1="110.00" y1="80" x2="110.00" y2="590" stroke="#e6e6e6" stroke-width="1"/>
<text x="110.00" y="618" text-anchor="middle" font-family="Arial, sans-serif" font-size="13" fill="#333">2</text>
<line x1="258.00" y1="80" x2="258.00" y2="590" stroke="#e6e6e6" stroke-width="1"/>
<text x="258.00" y="618" text-anchor="middle" font-family="Arial, sans-serif" font-size="13" fill="#333">11.6</text>
<line x1="406.00" y1="80" x2="406.00" y2="590" stroke="#e6e6e6" stroke-width="1"/>
<text x="406.00" y="618" text-anchor="middle" font-family="Arial, sans-serif" font-size="13" fill="#333">21.2</text>
<line x1="554.00" y1="80" x2="554.00" y2="590" stroke="#e6e6e6" stroke-width="1"/>
<text x="554.00" y="618" text-anchor="middle" font-family="Arial, sans-serif" font-size="13" fill="#333">30.8</text>
<line x1="702.00" y1="80" x2="702.00" y2="590" stroke="#e6e6e6" stroke-width="1"/>
<text x="702.00" y="618" text-anchor="middle" font-family="Arial, sans-serif" font-size="13" fill="#333">40.4</text>
<line x1="850.00" y1="80" x2="850.00" y2="590" stroke="#e6e6e6" stroke-width="1"/>
<text x="850.00" y="618" text-anchor="middle" font-family="Arial, sans-serif" font-size="13" fill="#333">50</text>
<line x1="110" y1="590.00" x2="850" y2="590.00" stroke="#e6e6e6" stroke-width="1"/>
<text x="98" y="594.00" text-anchor="end" font-family="Arial, sans-serif" font-size="13" fill="#333">100</text>
<line x1="110" y1="335.00" x2="850" y2="335.00" stroke="#e6e6e6" stroke-width="1"/>
<text x="98" y="339.00" text-anchor="end" font-family="Arial, sans-serif" font-size="13" fill="#333">1.0e+03</text>
<line x1="110" y1="80.00" x2="850" y2="80.00" stroke="#e6e6e6" stroke-width="1"/>
<text x="98" y="84.00" text-anchor="end" font-family="Arial, sans-serif" font-size="13" fill="#333">1.0e+04</text>
<rect x="110" y="80" width="740" height="510" fill="none" stroke="#111" stroke-width="1.4"/>
<polyline fill="none" stroke="#1f77b4" stroke-width="3" points="110.00,452.50 116.17,432.31 122.33,415.24 128.50,400.45 134.67,387.40 140.83,375.74 147.00,365.18 153.17,355.55 159.33,346.68 165.50,338.47 171.67,330.83 177.83,323.69 184.00,316.97 190.17,310.64 196.33,304.65 202.50,298.97 208.67,293.57 214.83,288.42 221.00,283.50 227.17,278.78 233.33,274.26 239.50,269.92 245.67,265.74 251.83,261.71 258.00,257.82 264.17,254.07 270.33,250.44 276.50,246.92 282.67,243.52 288.83,240.21 295.00,237.00 301.17,233.88 307.33,230.85 313.50,227.89 319.67,225.02 325.83,222.21 332.00,219.48 338.17,216.81 344.33,214.20 350.50,211.66 356.67,209.17 362.83,206.73 369.00,204.35 375.17,202.02 381.33,199.74 387.50,197.50 393.67,195.31 399.83,193.16 406.00,191.05 412.17,188.98 418.33,186.94 424.50,184.95 430.67,182.99 436.83,181.06 443.00,179.17 449.17,177.31 455.33,175.48 461.50,173.68 467.67,171.90 473.83,170.16 480.00,168.44 486.17,166.75 492.33,165.09 498.50,163.45 504.67,161.83 510.83,160.24 517.00,158.67 523.17,157.12 529.33,155.59 535.50,154.08 541.67,152.60 547.83,151.13 554.00,149.68 560.17,148.25 566.33,146.84 572.50,145.45 578.67,144.07 584.83,142.71 591.00,141.37 597.17,140.05 603.33,138.73 609.50,137.44 615.67,136.16 621.83,134.89 628.00,133.64 634.17,132.40 640.33,131.18 646.50,129.97 652.67,128.77 658.83,127.59 665.00,126.42 671.17,125.26 677.33,124.11 683.50,122.97 689.67,121.85 695.83,120.74 702.00,119.63 708.17,118.54 714.33,117.46 720.50,116.39 726.67,115.33 732.83,114.28 739.00,113.24 745.17,112.21 751.33,111.19 757.50,110.18 763.67,109.18 769.83,108.19 776.00,107.20 782.17,106.23 788.33,105.26 794.50,104.30 800.67,103.35 806.83,102.41 813.00,101.47 819.17,100.55 825.33,99.63 831.50,98.71 837.67,97.81 843.83,96.91 850.00,96.02"/>
<line x1="880" y1="100" x2="910" y2="100" stroke="#1f77b4" stroke-width="4"/>
<text x="920" y="105" font-family="Arial, sans-serif" font-size="15" fill="#111">Constant B</text>
<polyline fill="none" stroke="#2ca02c" stroke-width="3" points="110.00,452.50 116.17,442.40 122.33,433.87 128.50,426.47 134.67,419.95 140.83,414.12 147.00,408.84 153.17,404.02 159.33,399.59 165.50,395.49 171.67,391.67 177.83,388.09 184.00,384.74 190.17,381.57 196.33,378.58 202.50,375.74 208.67,373.03 214.83,370.46 221.00,368.00 227.17,365.64 233.33,363.38 239.50,361.21 245.67,359.12 251.83,357.11 258.00,355.16 264.17,353.28 270.33,351.47 276.50,349.71 282.67,348.01 288.83,346.35 295.00,344.75 301.17,343.19 307.33,341.67 313.50,340.20 319.67,338.76 325.83,337.36 332.00,335.99 338.17,334.65 344.33,333.35 350.50,332.08 356.67,330.83 362.83,329.62 369.00,328.43 375.17,327.26 381.33,326.12 387.50,325.00 393.67,323.90 399.83,322.83 406.00,321.77 412.17,320.74 418.33,319.72 424.50,318.72 430.67,317.74 436.83,316.78 443.00,315.83 449.17,314.90 455.33,313.99 461.50,313.09 467.67,312.20 473.83,311.33 480.00,310.47 486.17,309.63 492.33,308.79 498.50,307.97 504.67,307.16 510.83,306.37 517.00,305.58 523.17,304.81 529.33,304.04 535.50,303.29 541.67,302.55 547.83,301.81 554.00,301.09 560.17,300.38 566.33,299.67 572.50,298.97 578.67,298.29 584.83,297.61 591.00,296.94 597.17,296.27 603.33,295.62 609.50,294.97 615.67,294.33 621.83,293.70 628.00,293.07 634.17,292.45 640.33,291.84 646.50,291.23 652.67,290.64 658.83,290.04 665.00,289.46 671.17,288.88 677.33,288.30 683.50,287.74 689.67,287.17 695.83,286.62 702.00,286.07 708.17,285.52 714.33,284.98 720.50,284.45 726.67,283.92 732.83,283.39 739.00,282.87 745.17,282.36 751.33,281.85 757.50,281.34 763.67,280.84 769.83,280.34 776.00,279.85 782.17,279.36 788.33,278.88 794.50,278.40 800.67,277.92 806.83,277.45 813.00,276.99 819.17,276.52 825.33,276.06 831.50,275.61 837.67,275.15 843.83,274.71 850.00,274.26"/>
<line x1="880" y1="130" x2="910" y2="130" stroke="#2ca02c" stroke-width="4"/>
<text x="920" y="135" font-family="Arial, sans-serif" font-size="15" fill="#111">Middle ground</text>
<polyline fill="none" stroke="#d62728" stroke-width="3" points="110.00,452.50 116.17,452.50 122.33,452.50 128.50,452.50 134.67,452.50 140.83,452.50 147.00,452.50 153.17,452.50 159.33,452.50 165.50,452.50 171.67,452.50 177.83,452.50 184.00,452.50 190.17,452.50 196.33,452.50 202.50,452.50 208.67,452.50 214.83,452.50 221.00,452.50 227.17,452.50 233.33,452.50 239.50,452.50 245.67,452.50 251.83,452.50 258.00,452.50 264.17,452.50 270.33,452.50 276.50,452.50 282.67,452.50 288.83,452.50 295.00,452.50 301.17,452.50 307.33,452.50 313.50,452.50 319.67,452.50 325.83,452.50 332.00,452.50 338.17,452.50 344.33,452.50 350.50,452.50 356.67,452.50 362.83,452.50 369.00,452.50 375.17,452.50 381.33,452.50 387.50,452.50 393.67,452.50 399.83,452.50 406.00,452.50 412.17,452.50 418.33,452.50 424.50,452.50 430.67,452.50 436.83,452.50 443.00,452.50 449.17,452.50 455.33,452.50 461.50,452.50 467.67,452.50 473.83,452.50 480.00,452.50 486.17,452.50 492.33,452.50 498.50,452.50 504.67,452.50 510.83,452.50 517.00,452.50 523.17,452.50 529.33,452.50 535.50,452.50 541.67,452.50 547.83,452.50 554.00,452.50 560.17,452.50 566.33,452.50 572.50,452.50 578.67,452.50 584.83,452.50 591.00,452.50 597.17,452.50 603.33,452.50 609.50,452.50 615.67,452.50 621.83,452.50 628.00,452.50 634.17,452.50 640.33,452.50 646.50,452.50 652.67,452.50 658.83,452.50 665.00,452.50 671.17,452.50 677.33,452.50 683.50,452.50 689.67,452.50 695.83,452.50 702.00,452.50 708.17,452.50 714.33,452.50 720.50,452.50 726.67,452.50 732.83,452.50 739.00,452.50 745.17,452.50 751.33,452.50 757.50,452.50 763.67,452.50 769.83,452.50 776.00,452.50 782.17,452.50 788.33,452.50 794.50,452.50 800.67,452.50 806.83,452.50 813.00,452.50 819.17,452.50 825.33,452.50 831.50,452.50 837.67,452.50 843.83,452.50 850.00,452.50"/>
<line x1="880" y1="160" x2="910" y2="160" stroke="#d62728" stroke-width="4"/>
<text x="920" y="165" font-family="Arial, sans-serif" font-size="15" fill="#111">Orbit-ratio constrained</text>
</svg>